<svg xmlns="http://www.w3.org/2000/svg" viewBox="0 0 1978 1978"><path fill="#FAFBFA" d="M890 0a11249 11249 0 0 0 71 0h11a10286 10286 0 0 0 91-1 441 441 0 0 1 111 11h2a998 998 0 0 1 432 199l7 5 17 14a1109 1109 0 0 0 32 29 164 164 0 0 1 17 15l14 14a1827 1827 0 0 0 33 35 401 401 0 0 0 17 20 462 462 0 0 0 26 30 947 947 0 0 0 31 42 997 997 0 0 1 78 130l2 3a892 892 0 0 1 88 265v2a547 547 0 0 1 4 23c5 27 5 54 5 81a3967 3967 0 0 0 0 129v20a471 471 0 0 1-9 102l-5 28-1 2a1034 1034 0 0 1-165 371l-2 3-5 7-2 2a886 886 0 0 1-100 116l-3 3a247 247 0 0 1-19 18 172 172 0 0 1-18 16 321 321 0 0 1-21 18 254 254 0 0 1-24 20 635 635 0 0 1-33 25c-58 43-122 79-188 107l-2 1a991 991 0 0 1-226 66l-3 1a1222 1222 0 0 1-22 3 272 272 0 0 1-51 3 4972 4972 0 0 1-70 1h-5a9086 9086 0 0 0-90 0c-30 0-59-1-88-7l-10-1-18-4h-3a1040 1040 0 0 1-200-62l-4-2a885 885 0 0 1-154-83l-2-2-39-27-2-2a824 824 0 0 1-107-92l-17-17-6-7a169 169 0 0 1-16-16 295 295 0 0 1-22-26 403 403 0 0 1-22-27l-30-40-2-2a829 829 0 0 1-43-67c-45-77-80-159-129-371l-1-3v-18a4994 4994 0 0 1-1-134 10611 10611 0 0 1 0-59 434 434 0 0 1 11-111v-2a1080 1080 0 0 1 137-343l6-8c23-35 48-68 75-100l1-2a4452 4452 0 0 1 43-47 452 452 0 0 1 49-48 302 302 0 0 1 24-21 291 291 0 0 1 20-16 628 628 0 0 1 51-39l41-27 3-2a790 790 0 0 1 120-64l4-2A1036 1036 0 0 1 854 2c12-2 24-2 36-2Z"/><path fill="#010101" d="M890 0a11249 11249 0 0 0 71 0h11a10286 10286 0 0 0 91-1 441 441 0 0 1 111 11h2a998 998 0 0 1 432 199l7 5 17 14a1109 1109 0 0 0 32 29 164 164 0 0 1 17 15l14 14a1827 1827 0 0 0 33 35 401 401 0 0 0 17 20 462 462 0 0 0 26 30 947 947 0 0 0 31 42 997 997 0 0 1 78 130l2 3a892 892 0 0 1 88 265v2a547 547 0 0 1 4 23c5 27 5 54 5 81a3967 3967 0 0 0 0 129v20a471 471 0 0 1-9 102l-5 28-1 2a1034 1034 0 0 1-165 371l-2 3-5 7-2 2a886 886 0 0 1-100 116l-3 3a247 247 0 0 1-19 18 172 172 0 0 1-18 16 321 321 0 0 1-21 18 254 254 0 0 1-24 20 635 635 0 0 1-33 25c-58 43-122 79-188 107l-2 1a991 991 0 0 1-226 66l-3 1a1222 1222 0 0 1-22 3 272 272 0 0 1-51 3 4972 4972 0 0 1-70 1h-5a9086 9086 0 0 0-90 0c-30 0-59-1-88-7l-10-1-18-4h-3a1040 1040 0 0 1-200-62l-4-2a885 885 0 0 1-154-83l-2-2-39-27-2-2a824 824 0 0 1-107-92l-17-17-6-7a169 169 0 0 1-16-16 295 295 0 0 1-22-26 403 403 0 0 1-22-27l-30-40-2-2a829 829 0 0 1-43-67c-45-77-80-159-129-371l-1-3v-18a4994 4994 0 0 1-1-134 10611 10611 0 0 1 0-59 434 434 0 0 1 11-111v-2a1080 1080 0 0 1 137-343l6-8c23-35 48-68 75-100l1-2a4452 4452 0 0 1 43-47 452 452 0 0 1 49-48 302 302 0 0 1 24-21 291 291 0 0 1 20-16 628 628 0 0 1 51-39l41-27 3-2a790 790 0 0 1 120-64l4-2A1036 1036 0 0 1 854 2c12-2 24-2 36-2Zm-36 44-4 1a888 888 0 0 0-199 51l-2 1a941 941 0 0 0-236 131l-2 1a856 856 0 0 0-84 73l-16 15a2175 2175 0 0 1-20 21l-9 9a263 263 0 0 0-20 24 291 291 0 0 0-17 20 596 596 0 0 0-27 35c-22 29-41 60-59 91l-2 3c-18 33-35 66-49 100l-1 2a821 821 0 0 0-40 118 760 760 0 0 0-29 190v12a8315 8315 0 0 0 0 55 763 763 0 0 0 28 238l1 4a264 264 0 0 0 9 30l10 29 1 3 17 46 1 3a1087 1087 0 0 0 23 52 912 912 0 0 0 188 264l2 2a272 272 0 0 0 22 21 204 204 0 0 0 21 19 997 997 0 0 1 38 32l63 45 3 2a901 901 0 0 0 186 95l2 1a845 845 0 0 0 145 41c88 19 182 25 272 16h3c34-3 34-3 68-9l21-4a781 781 0 0 0 65-13l32-10 11-3a940 940 0 0 0 206-91l33-21 6-4a980 980 0 0 0 141-114l3-3a5682 5682 0 0 0 33-34l8-8a266 266 0 0 0 21-25 420 420 0 0 0 21-26l24-32 2-2c56-79 99-166 129-258l1-3a1031 1031 0 0 0 34-143v-2a598 598 0 0 0 6-42 928 928 0 0 0-33-372l-1-3a978 978 0 0 0-141-287l-2-2a821 821 0 0 0-90-108l-3-2a5623 5623 0 0 0-19-19l-2-2-14-13c-4 2-6 4-9 8l-2 1-8 9c-5 7-12 12-18 18l-7 6c-18 16-42 31-66 37l2-2a568 568 0 0 0 96-88 7509 7509 0 0 0-56-46l-2-1-5-5c-8-6-14-8-24-7a421 421 0 0 0-32 2l-19 1h-17a413 413 0 0 1-135-16v-2h2l16-5 3-1a2061 2061 0 0 0 13-4c20-7 20-7 37-17l-1-4a12773 12773 0 0 0-52-4c-28-2-66-11-86-31-5-6-8-13-10-20l-1-4c-2-6-1-14-2-21v-7l-2-4c-5 0-7 3-11 5l-22 16-2 1c-41 26-83 48-129 63l-2 1-29 9-3 1-48 10h-3l-8 2h-2l-14 1-8 1h-2l-5 1c5-5 8-6 15-6 8-1 15-4 23-6l8-3c78-24 153-57 223-99l3-1 2-2 2-1 3-3a567 567 0 0 0-86-19c-37-7-75-11-113-11h-15a6353 6353 0 0 0-93 0c-27 0-52 2-78 6Z"/><path fill="#131313" d="M890 0a11249 11249 0 0 0 71 0h11a10286 10286 0 0 0 91-1 441 441 0 0 1 111 11h2a998 998 0 0 1 432 199l7 5 17 14a1109 1109 0 0 0 32 29 164 164 0 0 1 17 15l14 14a1827 1827 0 0 0 33 35 401 401 0 0 0 17 20 462 462 0 0 0 26 30 947 947 0 0 0 31 42 997 997 0 0 1 78 130l2 3a892 892 0 0 1 88 265v2a547 547 0 0 1 4 23c5 27 5 54 5 81a3967 3967 0 0 0 0 129v20a471 471 0 0 1-9 102l-5 28-1 2a1034 1034 0 0 1-165 371l-2 3-5 7-2 2a886 886 0 0 1-100 116l-3 3a247 247 0 0 1-19 18 172 172 0 0 1-18 16 321 321 0 0 1-21 18 254 254 0 0 1-24 20 635 635 0 0 1-33 25c-58 43-122 79-188 107l-2 1a991 991 0 0 1-226 66l-3 1a1222 1222 0 0 1-22 3 272 272 0 0 1-51 3 4972 4972 0 0 1-70 1h-5a9086 9086 0 0 0-90 0c-30 0-59-1-88-7l-10-1-18-4h-3a1040 1040 0 0 1-200-62l-4-2a885 885 0 0 1-154-83l-2-2-39-27-2-2a824 824 0 0 1-107-92l-17-17-6-7a169 169 0 0 1-16-16 295 295 0 0 1-22-26 403 403 0 0 1-22-27l-30-40-2-2a829 829 0 0 1-43-67c-45-77-80-159-129-371l-1-3v-18a4994 4994 0 0 1-1-134 10611 10611 0 0 1 0-59 434 434 0 0 1 11-111v-2a1080 1080 0 0 1 137-343l6-8c23-35 48-68 75-100l1-2a4452 4452 0 0 1 43-47 452 452 0 0 1 49-48 302 302 0 0 1 24-21 291 291 0 0 1 20-16 628 628 0 0 1 51-39l41-27 3-2a790 790 0 0 1 120-64l4-2A1036 1036 0 0 1 854 2c12-2 24-2 36-2Zm-55 16h-3c-19 4-39 7-58 12h-3l-27 7h-3l-12 5h-5l-17 4-3 1-8 3-3 1-2 1h-2l-3 2-4 1-21 5a293 293 0 0 1-14 5c-6 2-11 5-17 6l-20 9v2l-2 1c-8 2-15 5-22 9l-11 5-12 6-6 1-11 5-5 3-2 1-6 3-3 1-1 3h-3l-8 4-3 1-3 2-3 1a983 983 0 0 0-10 6c-4 2-4 2-6 5l-5 2-4 3-10 7-6 4-14 8v2l-2 1-10 5-10 5v3l-2 1c-4 1-8 3-11 6v2l-2 1-5 2v2l-2 1-9 5v2h-2c-3 1-3 3-5 6l-2 1v2l-2 1c-6 2-9 5-13 9-10 9-10 9-15 11l-11 8-10 8-8 8-5 5-3 4-7 6c-3 3-3 3-4 7h-2a1446 1446 0 0 1-11 9l-1 2a10134 10134 0 0 1-18 18l-1 2-7 5v2l-2 1c-3 1-4 3-6 6l-7 7-5 6-8 10-4 4v2h-2l-3 4-9 11-15 18-13 16-4 7-5 5-3 5-7 11-11 16-2 2-4 7-1 2-5 8-5 7-3 5-5 8-6 11c-3 6-3 6-5 7a132 132 0 0 0-6 12l-2 4-1 2-1 2-1 6h-2l-2 8h-2v2l-1 2-3 1-2 4-7 15-3 6-3 4a268 268 0 0 0-5 12 4673844378 4673844378 0 0 0-15 35l-6 16-3 6a218 218 0 0 0-4 12l-17 49-1 3-1 3v2l-1 5h-2a775 775 0 0 0-33 154l-2 12v3l-2 27h2v1l-2 11v10l1 8v7a9389 9389 0 0 0 3 168 196 196 0 0 0 5 35l3 10v3l1 14 2 13v5h2l1 3 4 21 1 5 2 5 1 9 3 4 1 5 1 3 1 7c1 6 2 10 6 14l3 9 3 11 5 14c2 7 4 14 8 20l3 10a387 387 0 0 0 8 20c2 9 6 17 10 25l5 15 3 4 2 7 1 3v2h2v2a89 89 0 0 0 10 21l2 3a433 433 0 0 1 18 34l1 2 3 3c2 1 2 1 3 5l1 3h2v2l4 8 4 8h2l1 2 3 5 8 14h2v2c1 4 3 7 6 10l1 2a407 407 0 0 0 17 26h2l2 4h2v2l3 2 3 7c1 2 2 3 5 4v2h2v2l4 4 1 3c2 4 3 6 6 8h2l2 5h2l1 2 4 6 1 3h3v2l3 6h2v3h3v3h2v2l3 3 2 1 1 2h2l1 3c1 3 1 3 4 4l2 1 1 4 2 2 7 6c2 4 5 6 8 9l3 3a279 279 0 0 0 35 34l5 6 5 5c3 2 4 3 5 7h4v2l2 1c2 1 3 2 4 5h3v2l6 2 1 3 6 3 1 3 3 1 2 1 1 3c4 5 9 8 14 11h2l1 3h2l2 1 2 4 3 3h4v2l4 3 5 6 5 3 3 1 5 2 1 3 7 2c3 1 3 2 4 5l8 3v2l3 3 2 1 11 7 3 2 7 6h2l3 3 1 2 6-1v3l5 1v2l3 1c4 1 5 2 7 5l4 2 1 2 5 2c8 3 8 3 9 6l6 1 1 3a94 94 0 0 0 18 8l8 5h2v2c11 6 11 6 22 9v2l7 2v2l2 1a225 225 0 0 1 28 13l8 1v2l2 1h2l3 1 4 3 7 1 15 5 5 1v3l11 2v2l8 2v2h4l6 2c4 2 9 2 13 3l8 4 6 2c4 0 7 2 11 3l4 1 10 3c8 3 16 5 25 6l12 3a179 179 0 0 0 35 8 299 299 0 0 0 47 7 2168960147 2168960147 0 0 0 51 7l19 2a355344390 355344390 0 0 0 19 1l51 1a2915 2915 0 0 1 65-2h3l32-4a255 255 0 0 1 35-4l14-2c24 0 24 0 46-7l21-3c12-2 23-5 35-9a148 148 0 0 1 25-7l15-5c4 0 7-2 11-3l4-1 11-3 18-5c6-1 13-3 19-7v-2h3c3 0 5-1 8-3l7-2v-2h5v-2h4c4 0 8-2 12-4l3-1 14-7v-3l10-3v-2l2-1 13-4v-2l5-1v-2l3-1 9-4 6-3 5-3 8-3 10-6 6-3 9-5 17-8 9-6 5-3v-2l3-1 8-4v-2l4-1c9-3 18-10 26-17l5-3 5-4c7-7 16-15 25-18l3-3c3-4 5-5 9-6l7-5v-2l2-1c4-1 5-3 8-6l3-1a281 281 0 0 0 14-13 68 68 0 0 1 8-7v-2l2-1 4-4c2-3 3-4 7-6l8-9 12-11 11-11 7-6 12-14 9-9c3-1 4-4 6-6l2-2 10-13a76 76 0 0 1 9-12l7-7 1-2 2-2 1-3 4-1v-2h2l3-4 2-2 1-4 3-1 2-4 11-14 2-2 6-8v-3h2l3-4 6-9 1-4h2l3-4 2-2 1-3 2-3 7-11 4-4c3-3 3-5 4-8l4-5 2-5 7-11 5-9 4-8 9-16 3-4v-2l3-4a43 43 0 0 0 8-12l12-27 13-29 1-6h2l5-13 4-12 1-2 4-11a147 147 0 0 0 9-24 26584 26584 0 0 1 15-50l4-11v-2l3-9 8-36 2-4 2-9 1-4 1-4v-4l2-14h2l1-4 1-9 1-3 1-5 1-14 1-3 1-9v-2a1537 1537 0 0 0 7-74 889 889 0 0 0 0-95v-5l1-3v-10a266376411 266376411 0 0 1-4-42l-1-6-2-14c0-7-1-13-3-19l-1-9-2-12v-3l-1-4v-2l-3-7-2-8c0-5 0-5-2-9l-1-6-1-6-2-11a431 431 0 0 0-13-51v-2l-3-7-3-12-1-2-4-16-3-12-3-8c-4-13-4-13-10-25l-5-13-4-7-2-5h-2v-4l-1-3-1-5h-2l-3-9h-2v-7h-2l-3-11h-2l-1-4-6-12-1-2-10-18-2-6a92 92 0 0 0-9-18 185 185 0 0 0-7-14l-9-14-5-9c-3-6-6-11-11-16l-3-6c-2-5-6-9-10-13l-2-3h-3v-2l-4-8-1-4-4-6c-2-2-2-4-2-7h-3l1-3-4-1 1-3-5-1v-2h-2l-1-4h-2l-1-4h-2l-1-2-5-9-7-9a144357348 144357348 0 0 1-12-14l-8-9c-1-3-4-5-6-7l-5-6-5-3-2-4-3-1a972307079 972307079 0 0 1-16-17l-5-5-5-5c-2-3-2-3-5-4l-3-4h-2v-3a174 174 0 0 0-7-6l-7-7-11-11c-2-3-5-5-9-6l-2-1-1-4h-2v-4l-5-1-1-3h-2v-3l-6-1v-2l-2-1-3-3h-2l-1-3-3-1-3-1-1-3-6-5-4-4-3-1-1-2-5-1-1-3-5-2-1-2h-2v-2l-4-1v-2l-4-1v-2l-4-1v-2h-2l-1-3-10-5-1-2c-1-2-2-3-5-4l-2-1-5-1v-2l-6-5-2-1-15-10-4-4-10-4c-3-2-4-3-5-6l-4-2c-8-2-8-2-10-6l-3-1-5-3c-3-3-5-3-9-4l-4-3-5-1-3-1-1-2c-1-3-3-3-6-5l-3-1-2-2-6-3-3-1-4-3h-4v-2l-4-2h-2l-4-1v-2l-7-2v-2a1062 1062 0 0 0-9-4l-6-1v-2l-2-1h-3l-3-1-3-3-6-2-11-5-12-4c-3 0-5-2-8-3a113 113 0 0 0-9-2 186324132 186324132 0 0 1-5-5l-5-1c-5-1-8-2-12-5-3-2-6-2-10-3l-5-3-13-3-16-6-21-5-6-3-5-1-3-1h-2l-6-1h-3l-5-3-13-3-4-1-19-3-7-1a471 471 0 0 0-86-14 228 228 0 0 0-38-1h-23a23481 23481 0 0 0-115-1c-30 0-59 2-88 7Z"/><path fill="#424242" d="M901 10a7416 7416 0 0 0 22 0h17a20611 20611 0 0 1 128 0c16 0 31 1 46 4l17 2 34 4 3 1 12 3 7 2h4l7 1c6 0 12 2 17 3l4 1 12 4 5 1a6140691662 6140691662 0 0 1 25 6l20 6 15 5 3 1a624 624 0 0 0 17 6l3 1 6 3 13 4h2l1 2 3 1 1 2 4 1 8 2 8 3 11 4 12 5 4 3 5 2h3l2 1v2h2a48 48 0 0 1 11 4l2 1v2h2l5 2v2l4 1 6 2v2h2l8 4 15 8c2 1 3 2 4 5a706 706 0 0 0 9 3c3 3 6 3 10 4l5 5 5 1 2 3c4 3 7 4 11 5l3 4 7 3c4 2 8 4 11 8l9 6 5 3 2 2 6 4v2h2c4 1 8 3 11 6v2l2 1 9 5v2h2v2l4 1v2l4 1v2l4 1v2h2l1 2 6 3v2h2l3 1 1 2 2 1 4 4 3 1 5 5v2l3 1 3 1 1 3h2l3 3 2 1v2l6 1v3l3 1v2l5 1v4h2v2l1 2 5 2 8 8 12 11 9 9 2 1v3l2 1 3 3 2 1 5 5c2 4 6 6 9 9l12 13 6 5 2 1v2l2 1 5 5 2 2 2 2a3738 3738 0 0 0 35 43l2 2 1 4h2l1 4h2l1 4h2v2l5 1-1 3 4 2-1 2 3 1v2l3 6 6 12 2 3v3h2c3 1 3 3 5 6l2 2c4 4 6 7 8 12 1 4 3 5 6 8l9 14 5 9 10 17 3 5a368 368 0 0 1 9 21l6 12 7 14 6 11 1 4h2l3 11h2v7h2l3 9h2l2 12h2l1 2 1 2 1 3 3 4 2 7 7 14 4 12 3 9c2 4 3 7 3 11l2 4 2 7 3 17 1 2 4 13 5 17 1 3 9 39 2 8v4l3 11 1 8 2 5 2 7v3l1 4 1 6v3l2 8a134 134 0 0 1 3 22 538 538 0 0 1 3 25l2 17 2 21v8l-1 4v14l1 43v4c0 21 0 41-2 62v3a803 803 0 0 1-7 59l-4 28-2 11h-2v2l-3 21-1 3-1 3v3l-3 8-1 6-2 11-4 14-1 4a1200 1200 0 0 0-16 55 4474 4474 0 0 1-27 73l-2 6h-2v2l-5 11-1 3a569 569 0 0 1-7 15l-1 2-4 12c-10 27-10 27-18 31a600 600 0 0 0-10 19l-1 3a9070 9070 0 0 0-12 21l-6 9a5766 5766 0 0 0-6 9l-2 6-3 4-6 9a1978 1978 0 0 1-9 13l-2 2-1 2h-2l-1 2c-1 5-4 8-6 11l-3 4h-2v2l-5 7c-6 7-11 13-15 21l-2 2h-2l-1 2-5 8h-2v2h-2l-2 1-1 2-7 9-1 2-7 7-1 2-2 1-2 5c-4 6-8 12-14 16l-5 5-6 7-10 11-6 5-8 8-11 11a733 733 0 0 0-25 25l-2 2h-2l-1 3-4 3-8 7-8 7-1 2-5 3-2 2-6 3v2c-3 3-7 6-11 7l-7 5-7 6c-8 4-14 9-20 15l-9 6-5 4a53 53 0 0 1-11 8l-10 5-4 1-1 3-4 2-2 1-4 1-1 3-5 2-1 2-4 2-3 2-3 1a283 283 0 0 0-33 18l-8 4-2 1-6 3-11 5-6 3-4 1v2l-5 1v2l-6 2-4 2-5 1v2l-10 3v3l-5 2-2 2-6 2-7 4c-5 2-8 2-13 2v2h-5v2l-3 1-6 3-9 1v2c-6 4-11 6-19 7l-15 4h-3l-8 4-4 1-7 2-8 2-3 1-5 1-3 1h-3l-7 3a850 850 0 0 1-39 11l-9 2h-4l-3 1-24 5c-13 5-29 5-43 6l-15 2-14 1-21 2-32 4h-2a1055 1055 0 0 1-64 2c-80 1-80 1-92-5h-4l-18-1-2-1-12-2-18-3-3-1-16-2a296 296 0 0 1-68-15h-7l-12-3-3-1-13-4-8-2-2-1c-3-2-7-2-11-3l-5-3-10-3c-4 0-7-1-11-3h-5v-2l-8-2v-2h-4l-7-2v-3h-2l-8-3-16-4h-2l-1-2-5-2h-2l-2-1v-2h-4l-3-1h-2l-1-2-6-2-13-6-9-4v-2h-2l-5-2v-2h-2c-7-2-13-5-20-9v-2l-2-1-5-2-10-4-12-7v-2h-3l-3-1-1-2-10-5c-3-1-3-1-5-4l-5-3-1-2-7-2v-2l-5-1v-3l-6 1-1-2c-1-3-3-3-6-4l-4-3c-7-5-13-10-21-14v-3l-3-1-7-4v-2l-2-1h-2l-3-1-2-1-1-3-5-2c-6-2-10-5-14-10l-3-3v-2h-2c-4-1-5-2-7-5v-2l-5-2v-2l-2-1c-6-2-10-6-14-10l-1-3-3-1-2-1-1-3-4-2-3-2v-2h-2l-4-2v-2h-3l-3-5-3-1v-2h-4l-1-3-4-4-6-6-8-8a186 186 0 0 1-20-19 203 203 0 0 1-17-18l-6-7-5-4-4-7-2-1c-3-1-3-1-4-4l-1-3h-2l-2-3-4-2v-3h-2v-3h-3v-3l-3-1c-2-3-2-4-2-7h-3l-1-3-1-1-4-7h-2l-2-5h-2c-4-4-6-7-8-12l-3-3v-2h-2v-2l-2-1c-3-1-3-3-5-6-1-4-1-4-4-6v-2l-4-2v-2h-2l-1-3-4-5-4-6-7-11c-8-10-8-10-8-15h-2l-3-6-7-10-2-5h-2l-1-2-5-10-2-6h-2l-1-3c-1-5-1-4-5-6l-2-4-2-2-1-3a2008 2008 0 0 0-22-42l-2-3-1-3-2-7h-2v-2l-1-3v-2l-4-7-1-5-8-17a237 237 0 0 1-15-40l-1-3-4-10c-4-8-6-16-8-25l-6-16-2-8-3-4c-3-5-4-10-5-15a1049 1049 0 0 0-1-10l-3-4-2-6-2-10-1-5-4-19-1-5-2-1 1-2-2-10-1-8-2-17v-3l-3-11-2-6v-5l-2-15-2-16a248 248 0 0 0-1-14v-3l-1-42 1-24v-3a3523 3523 0 0 0 0-69v-3l-1-15v-7l1-4 1-7H6c0-16 1-32 5-47l3-17c15-103 15-103 29-132h2l1-4 5-17 1-4a402 402 0 0 1 21-59 270 270 0 0 1 18-42l5-11 5-9 2-5 4-8 1-2a3918 3918 0 0 1 6-12h2l1-4h2l2-8h2v-2l7-16 3-5 3-4a181 181 0 0 0 7-14l2-2 7-11 1-3 4-5 4-6 8-14a288 288 0 0 0 22-32l6-7 1-2 7-9 10-13 11-13a232 232 0 0 0 14-18h2v-2l3-3c4-4 8-8 10-13l6-5a57 57 0 0 0 11-13h2v-2l3-3 11-10 2-2a3516 3516 0 0 0 11-11l2-2 9-8h2l1-2 8-9 4-5 7-8 2-2 10-8 6-5c4-4 8-6 13-9 6-3 12-8 18-14 2-2 5-5 9-5v-2l2-1 3-5 4-1v-2c3-3 7-5 11-6v-2c4-3 4-3 7-3v-2l5-4 3-2 5-1v-3l2-1 12-6 6-3 2-1 1-3 4-2 6-4 11-7 11-7 6-3 1-1c4-4 9-6 13-9a759 759 0 0 0 10-5l3-2 9-2 2-4 4-2 9-4 2-1a589 589 0 0 0 16-6l5-2a198 198 0 0 1 21-11l22-8v-2a230 230 0 0 1 37-15 178 178 0 0 1 29-9l6-1 6-2 17-6 7-1 3-1 4-2 10-1 6-2 12-4 2-1 8-2h3c31-7 62-13 94-18h2a409 409 0 0 1 45-3Zm-23 8-6 1h-6l-4 1a1542 1542 0 0 1-51 6v2h-2a113 113 0 0 0-26 6 326847656 326847656 0 0 0-92 23v2h-3c-8 1-15 5-22 7l-5 2-3 1-29 10v2h-2c-10 3-20 6-30 12l-7 2-12 6-7 4-19 8a1819 1819 0 0 1-40 22l-19 11-6 3-11 7-2 1a986 986 0 0 0-65 44l-7 4-5 5c-18 16-18 16-28 22-8 4-14 11-21 18l-9 7-11 10-3 2v2h-2v2l-2 1-7 5-2 3a11561 11561 0 0 0-45 45l-8 9-14 16-8 10a426 426 0 0 0-21 25 813 813 0 0 0-37 51l-2 2-2 4c-2 3-3 4-3 8l-3 1-4 5-1 3c-2 3-3 5-3 8l-3 1-1 3-1 4-3 1-2 7h-2c-2 3-2 3-2 7h-2l-2 4-2 2-2 5-10 18-1 3-2 3-1 4h-2l-1 3-8 15-1 3-1 3-2 3-4 6-2 5-5 10-2 5v2l-1 5-3 1-1 4-4 10-1 2-2 6-1 2-1 3-1 5-3 1-3 9-5 14-9 26-1 3-3 12h-2l-2 13h-2v2l-2 8-1 3-4 15-3 12-5 18a332 332 0 0 0-11 50l-2 8v3l-1 3v3a3988 3988 0 0 0-6 42v3l-1 3a373 373 0 0 0-2 64 27340 27340 0 0 1 0 102 522 522 0 0 0 10 109v3l3 17 3 15 4 18 2 9 5 22 1 4 2 9h2v2l8 30a8971 8971 0 0 1 24 68l4 10 1 2 5 13 5 11 7 14a786 786 0 0 0 74 134l31 44 5 6a750 750 0 0 0 54 64l1 2 2 2 3 4a317 317 0 0 0 37 37 7210 7210 0 0 0 46 42 458 458 0 0 1 34 29l6 3a309 309 0 0 1 8 7l3 2 2 2 3 2 17 13 2 1c8 6 8 6 16 9v2l3 2 3 2 2 1a967 967 0 0 1 6 4l3 3 6 1v2l4 1v2h4v2l3 2 20 11 53 29 14 7 11 5 6 3 12 5 10 4 5 1 1 3 7 2h3l3 1v2l2 1a305 305 0 0 1 41 14l2 1a1044 1044 0 0 0 8 3l26 8 7 2h2l12 4 7 2 3 1 2 1h3l11 3h4l6 3 7 1 25 5 4 1 3 1a313411428 313411428 0 0 0 11 3h6l23 4h3l10 2 21 2a5709 5709 0 0 1 42 4l3 1 7 1c19 2 39 1 59 1h10a777 777 0 0 0 109-6l4-1 7-1a654 654 0 0 0 53-8h4l3-1 3-1 5-1 3-1a529724741 529724741 0 0 0 48-10l12-3a400 400 0 0 0 60-19h3a201 201 0 0 0 24-9l13-5 9-3a150 150 0 0 0 29-13l3-1 6-2v-2h2l9-3v-2h2c11-3 21-9 31-15l23-12a6606 6606 0 0 0 21-11v-2l2-1c20-8 38-22 56-34l3-2a917 917 0 0 0 155-131l2-2 11-12 7-8 13-14 1-1a724 724 0 0 0 40-50 641 641 0 0 0 76-117 883 883 0 0 0 29-57l4-6 3-8 6-14 1-2 3-8 11-26 1-3a1714 1714 0 0 0 12-33l1-3a5058 5058 0 0 0 6-19l1-2 4-17h2a282 282 0 0 0 10-41l4-16 2-10 5-21 1-12 1-2a1252 1252 0 0 1 6-35v-3a360 360 0 0 0 7-62c2-22 2-44 2-66v-3a802 802 0 0 0-13-163l-2-17h-2v-3c0-10-2-19-5-29l-5-22a608 608 0 0 0-22-80l-2-4-4-11-4-11-3-9-10-24a753 753 0 0 1-17-40l-7-15-2-3a10400 10400 0 0 0-11-22l-1-2-7-15h-2v-2l-3-7h-2v-2l-2-5h-2v-2l-4-8-1-2-1-2h-2l-1-3-6-12-8-13-3-3-1-3h-2l-1-2c-5-12-14-23-22-34l-2-2a872 872 0 0 0-74-92l-4-4-2-4-3-3-11-9-1-2-6-6-16-15-13-13-12-11-7-7a298 298 0 0 0-24-20l-21-17-2-2-45-32-5-4-10-8-2-1c-5-4-10-6-16-8l-1-3-4-1-3-1-1-3-5-2-4-1-1-3-6-1-1-3-6-1-1-3-6-1-1-3-4-2-9-4h-2v-2a914 914 0 0 0-13-5v-2l-4-2-14-6-44-21-2-1a945 945 0 0 0-35-14l-15-6-10-4a253 253 0 0 0-14-5l-15-5-3-1a3362 3362 0 0 0-22-7l-3-1c-7-2-15-4-23-4v-2l-20-4-13-3-3-1-10-2h-3l-3-1h-3l-3-2a69 69 0 0 0-7-1l-2-1h-3a4549 4549 0 0 0-40-6c-28-6-55-7-83-6h-16a9184 9184 0 0 0-152 2Z"/><path d="M890 0a11249 11249 0 0 0 71 0h11a10286 10286 0 0 0 91-1 441 441 0 0 1 111 11h2a998 998 0 0 1 432 199l7 5 17 14a1109 1109 0 0 0 32 29 164 164 0 0 1 17 15l14 14a1827 1827 0 0 0 33 35 401 401 0 0 0 17 20 462 462 0 0 0 26 30 947 947 0 0 0 31 42 997 997 0 0 1 78 130l2 3a892 892 0 0 1 88 265v2a727 727 0 0 1 8 93v44h-1v-4c-5-88-19-174-46-258l-1-2c-19-61-45-121-76-177l-2-3c-20-36-42-71-66-103l-2-3-14-18-2-2a569 569 0 0 0-42-51 437 437 0 0 0-49-50l-11-12-14-12-7-6a321 321 0 0 0-21-18 254 254 0 0 0-24-20c-47-38-98-69-150-97l-3-1A1075 1075 0 0 0 1114 8h-2a444 444 0 0 0-11-1c-19-3-39-2-58-2a6876 6876 0 0 1-109 0c-32-1-65 2-97 7l-3 1c-67 10-134 27-198 52l-2 1c-49 19-96 41-141 67l-3 2c-27 15-53 33-79 51l-2 2a827 827 0 0 0-123 105 4898 4898 0 0 1-13 13l-3 3-12 12-6 8a277 277 0 0 0-19 22 225 225 0 0 0-21 25l-17 23-5 6A907 907 0 0 0 84 588l-1 2A1041 1041 0 0 0 6 874a414 414 0 0 0-3 69 15348 15348 0 0 1 0 94c0 62 10 123 24 183l1 2c6 26 13 51 21 76l1 2a908 908 0 0 0 127 254l3 5a891 891 0 0 0 138 157l9 8a265 265 0 0 0 23 20 223 223 0 0 0 25 21 618 618 0 0 0 72 52 732 732 0 0 0 70 41c69 38 143 67 219 87l2 1c43 11 86 19 129 24h2c28 4 57 5 85 7v1a4461 4461 0 0 1-47 0c-27 1-53-1-80-6l-9-1-19-4h-3a1040 1040 0 0 1-200-62l-4-2a885 885 0 0 1-154-83l-2-2-39-27-2-2a824 824 0 0 1-107-92l-17-17-6-7a169 169 0 0 1-16-16 295 295 0 0 1-22-26 403 403 0 0 1-22-27l-30-40-2-2a829 829 0 0 1-43-67c-45-77-80-159-129-371l-1-3v-18a4994 4994 0 0 1-1-134 10611 10611 0 0 1 0-59 434 434 0 0 1 11-111v-2a1080 1080 0 0 1 137-343l6-8c23-35 48-68 75-100l1-2a4452 4452 0 0 1 43-47 452 452 0 0 1 49-48 302 302 0 0 1 24-21 291 291 0 0 1 20-16 628 628 0 0 1 51-39l41-27 3-2a790 790 0 0 1 120-64l4-2A1036 1036 0 0 1 854 2c12-2 24-2 36-2Z"/><path fill="#1B1D1C" d="m1239 68 38 11 3 1a871 871 0 0 1 189 84l2 1a564 564 0 0 1 53 33v2l2 1 12 7 2 2 6 4v1l-13 2h-2a3233 3233 0 0 1-48 2h-17c-45 0-91-4-135-17v-2l2-1a5314 5314 0 0 0 25-8c23-7 23-7 43-18v-4h-2a878 878 0 0 1-53-3c-27-2-65-12-85-33-9-12-11-26-12-41V80l-4-1-4 2-2 2-2 2-5 3-3 2-17 12-3 2a566 566 0 0 1-156 70l-3 1-48 10h-3a1568 1568 0 0 1-24 3l-2 1h-13c1-3 2-4 5-6l10-1c8-1 15-4 23-6l8-3c125-37 125-37 233-105Z"/><path fill="#1D201E" d="M1310 761a18179 18179 0 0 0 113 1 6202 6202 0 0 1 101 5 299 299 0 0 1 40 7v1h-4a201214 201214 0 0 0-93 0h-2a75455 75455 0 0 1-120 0h-3l-14 1h-17l-79 1h-14l-3 1a2631 2631 0 0 1-68 1h-4c-10 0-19 2-26 9l-7 9a314 314 0 0 1-13 16l-2 2a869 869 0 0 0-13 17l-3 3-4 6c-12 14-11 29-11 47v3c0 15 0 29 3 44l1 3a427 427 0 0 0 41 117c3 4 4 7 4 13-7-2-9-7-12-13l-2-3-1-3-5-11a234 234 0 0 1-15-28c-11-21-19-43-26-65l-1-2-4-10c-4-12-4-12-12-21h-9l-4-1-23-1c-14-2-31-4-43 5l-2 2-2 2c-12 10-18 27-24 41l-5 11-1 2-7 10-2 5-2 3-1 3c-6 12-12 24-24 32h-2c-1-3-1-4 1-7a269 269 0 0 1 5-9l1-2 5-9 2-3 4-6 1-2 2-3 5-6 2-4 1-2 1-2 1-3c16-34 31-78 18-115-11-28-27-53-55-67-23-9-47-9-70-10h-11a7083 7083 0 0 0-39 0h-2a347437 347437 0 0 1-145 0c-11 0-21 0-31 2l-18 1h-2c-4 0-7 0-11-2v-3c9-5 18-4 28-4a1007 1007 0 0 0 12 0c7 0 13-1 20-4l14-2h3a1274 1274 0 0 1 43-1 3277 3277 0 0 1 212 0h2c6 1 10 2 14 6a214 214 0 0 1 23 30l20 28 2 2a2887 2887 0 0 1 9 13c2 4 3 6 3 10a143220094 143220094 0 0 0 1 10v2l2 6c4 3 8 2 12 2h2a1225 1225 0 0 0 64 0l2 1c4-1 6-1 8-3s2-3 2-6l1-3-1-5c1-10 5-15 11-22l4-4 1-2 8-9 14-18a3907 3907 0 0 0 22-26l1-2c5-5 9-9 16-9l4-1h2l25-1h28l127-1Z"/><path fill="#131313" d="M918 7a10776 10776 0 0 0 19 0h15a30399 30399 0 0 1 110 0c16 0 32 0 48 4 4 1 7 0 11-1l4 1h4v2h2l35 6 9 1 4 1v2h2l7 1h3l15 3h14l9 2h2l7 2 3 1a989 989 0 0 1 310 142l2 2a893 893 0 0 1 107 85l14 14 11 10 19 20 9 9 12 13 6 7a314 314 0 0 1 19 21l19 25 7 9a533 533 0 0 1 48 67 897 897 0 0 1 26 44c39 69 70 143 129 525v20c0 78 0 78-7 115l-3 14-4 22-1 2a1034 1034 0 0 1-142 338l-2 3-21 30-2 3-5 7-2 2a886 886 0 0 1-100 116l-3 3a247 247 0 0 1-20 18 172 172 0 0 1-17 16 321 321 0 0 1-21 18 254 254 0 0 1-24 20 635 635 0 0 1-33 25c-58 43-122 79-188 107l-2 1c-25 11-51 20-77 29l-3 1c-48 16-96 28-146 36l-3 1a1359 1359 0 0 1-22 3 245 245 0 0 1-62 3h-46v-1h4c88-5 174-19 374-89l3-2a825 825 0 0 0 123-67l3-2a916 916 0 0 0 131-102l16-16a218 218 0 0 1 19-18l16-17a244 244 0 0 0 18-20c8-8 8-8 14-18l4-6c3-3 5-5 6-9h3v-2l4-8h2l1-2c1-4 3-6 6-8l3-1 1-3 5-6 9-12 2-2 2-3 2-2 1-7 2-3 2-2 2-2 10-15 4-6 1-2a559 559 0 0 1 6-13l4-5 2-5 7-11 5-9 4-8 9-16 3-4 1-2 4-6 4-7 2-2 12-28 13-29 2-6h2v-2l4-11a287 287 0 0 0 9-24 147 147 0 0 0 9-25 26584 26584 0 0 1 15-50l3-11 1-2 3-9 8-36 2-4 3-10v-3a2055 2055 0 0 0 4-22h2v-3l1-10c3-10 4-21 5-31a595 595 0 0 1 2-22c3-18 4-36 5-54v-3a889 889 0 0 0 0-95v-5l1-3v-13a383 383 0 0 0-4-39l-1-6-2-14c0-7-1-13-3-19l-1-9-2-12v-3l-1-4v-2l-3-7-2-8c0-5 0-5-2-9l-1-6-1-6-2-11a431 431 0 0 0-13-51v-2l-3-7-4-12a4812668167 4812668167 0 0 1-7-30l-3-8c-3-12-3-12-9-24l-5-13-3-3-2-5v-3l-1-2h-2l-2-12h-2l-3-9h-2v-7h-2c-3-4-3-6-3-11l-3 1-1-4c-4-11-10-22-17-33l-2-6-7-15-2-3a185 185 0 0 0-7-14l-9-14-5-9c-3-6-6-11-10-15-3-3-4-6-5-9-3-4-5-8-9-11l-1-2-3-1-3-5-1-2-3-7-3-6c-2-2-2-2-2-6l-2-1-1-3-2-1v-2l-4-2v-2h-2l-1-4h-2l-1-4h-2l-4-5-2-3-2-3-3-4-2-5-2-1-3-3v-2l-3-1-1-2-3-4c-3-1-4-3-6-6l-2-2-1-4-2-1c-3-1-3-3-5-6l-5-5-3-3-6-4v-2l-3-1v-2l-3-1-3-4-8-8c-4-2-6-6-9-9l-5-4-4-4v-3l-2-1-5-5-10-9-6-5v-2l-3-1v-2l-3-1v-2l-2-1-6-4v-2h-2v-4h-2l-6-4v-3l-6-1v-2l-5-2v-2h-2l-3-3-2-1c-3-1-5-4-7-6v-2h-2l-4-4-4-2v-2h-2l-6-4-4-2v-2h-2v-2l-4-1v-2l-4-1v-2l-4-1v-2h-2l-1-2-5-3-4-3c-4-4-9-6-14-8v-2l-2-1c-4-2-9-5-13-9l-3-2-3-2-3-1-3-4a202 202 0 0 0-14-7l-1-3-6-2-8-5v-2h-2c-3 0-3 0-5-2-3-3-6-4-10-5l-5-4-3-1-6-3a1464 1464 0 0 1-17-10l-2-1-4-3-4-1v-2l-10-3v-2l-7-2v-2l-2-1-13-4v-2l-10-2-1-3h-2c-5-1-8-3-11-5-6-3-13-4-19-6l-15-5v-2l-4-1v-2h-2c-6 0-10-1-15-5-3-2-6-2-10-3l-5-3-13-3-16-6-21-5-6-3-5-1-3-1h-3l-5-1h-3l-5-3-13-3-4-1-19-3-8-1a471 471 0 0 0-118-15 14452 14452 0 0 1-22 0h-18a50585 50585 0 0 0-145 0l1-2 4-1 10-1h22Z"/><path d="M1977 1036h1c1 86 1 86-6 121l-3 16a1086 1086 0 0 1-147 363l-2 3-21 30-2 3-5 7-2 2a886 886 0 0 1-100 117l-3 2a247 247 0 0 1-19 19 172 172 0 0 1-18 15 321 321 0 0 1-21 18 254 254 0 0 1-24 20 635 635 0 0 1-33 25c-58 43-122 79-188 107l-2 1c-25 11-51 20-77 29l-3 1c-48 16-96 28-146 36l-3 1-19 3h-3a245 245 0 0 1-62 3h-46v-1h4c88-5 174-19 374-89l3-2a825 825 0 0 0 123-67l3-2c24-16 48-33 71-51l2-2a1109 1109 0 0 0 58-49l16-16a218 218 0 0 1 19-18l16-17a244 244 0 0 0 18-20 316 316 0 0 0 20-23l18-22 2-2 27-37 2-3a707 707 0 0 0 67-109l4-8c41-76 69-161 107-404Z"/><path fill="#F8F9F8" d="m1275 79 7 2h2a230 230 0 0 1 40 14l6 2a988 988 0 0 1 116 54v1c-53 0-53 0-73-2h-3a288 288 0 0 1-61-15c-32-11-32-11-39-22-4-10 0-23 4-33l1-1Z"/><path fill="#252626" d="M990 1439c16 13 35 18 56 16l19-5 4-1h10c2 7 2 7 0 11l-5 5-2 1-6 5-3 2c-10 8-20 12-33 11l-11-4-2-1c-7-3-13-8-19-12-14-12-29-19-47-25l-3-1c-15-5-32-5-48-5h-2c-10 0-19 0-28 2h-11l-1-4a62 62 0 0 1 16-5l6-1 21-5 8-3h3c28-6 55 2 78 19Z"/><path fill="#2A2D2B" d="M1688 913c5 1 5 1 7 3 0 7-2 15-4 22l-1 3-3 11-1 9a68 68 0 0 1-7 24 283 283 0 0 1-133 155l-2 1a385 385 0 0 1-47 20c-19 7-39 12-60 9l-2-2h2a372 372 0 0 0 42-13 309 309 0 0 0 127-74l3-3a183 183 0 0 0 19-22c29-36 52-87 55-133 1-5 2-7 5-10Z"/><path fill="#202220" d="m824 1842 8 5 2 1 2 2 3 2a2920 2920 0 0 1 40 30l2 1a254 254 0 0 0 121 38l10 1c-4 8-9 13-18 16-15 1-30-2-45-6l-10-3c-27-7-53-20-75-37l-3-2a294 294 0 0 1-23-21c-7-7-13-17-14-27Z"/><path fill="#F7F8F7" d="M1455 157c19 9 37 21 55 32l2 2 5 3 4 2 2 2v1a270342529 270342529 0 0 0-37 1l-3 1-15 1h-18a2430 2430 0 0 1-16 0c-15 0-31 0-46-3v-3l4-2a242 242 0 0 0 63-37Z"/><path fill="#3F3F3F" d="M71 643c-1 11-4 20-8 31l-5 15h-2v5l-1 3-1 5h-2v4l-5 21-4 15-5 19a332 332 0 0 0-11 49l-2 8v3l-1 3v3a3988 3988 0 0 0-6 45l-1 3-1 42a22624 22624 0 0 1-1 26v57h-1v-33l-1-3v-79l-2 11v2a452 452 0 0 0 0 49 25951 25951 0 0 0 2 154 1586 1586 0 0 0 3 31v2l1 3v2l1 4 2 11 1 5 1 9c1 12 3 23 7 35l5 22 5 19 2 10 1 1v8l-2-1-1-5-1-4v-3l-2-7v-3l-3-4-2-6-2-10-1-5-4-19-1-5-2-1 1-2-2-10-1-8-2-17v-3l-3-11-2-6v-5l-2-15-2-16a248 248 0 0 0-1-14v-3l-1-42 1-24v-3a3523 3523 0 0 0 0-69v-3l-1-15v-7l1-4 1-7H6c0-16 1-32 5-47l3-17c15-103 15-103 29-132h2l1-4 5-18 1-3 6-20 1-2 4-5 2-5 3-9 3-1Z"/><path fill="#353A37" d="m1749 1156 3 3c2 11-1 21-4 32l-2 9v2l-6 27-1 4v3l-2 4h-2v2l-4 20v4a3268 3268 0 0 1-17 65c-19 60-46 116-87 164 0-4 2-6 4-9a643 643 0 0 0 93-228l4-14 5-17v-2a4314 4314 0 0 0 7-32h2v-3l1-11 1-4 1-2 1-6 3-11Z"/><path fill="#141414" d="m453 160 2 1-10 7-8 5-5 1v3l-5 4-3 2-5 1v2c-4 3-4 3-7 3v2c-3 3-7 5-11 6v2l-4 1v2l-3 3-2 1v2l-4 3-2 1-4 1-1 3-5 4-2 2-3 2-3 2c-3 3-8 5-12 6l-1 2c-1 3-3 3-6 4l-1 2c-1 2-2 3-5 4l-9 9-5 5-4 5-5 5h-2l-1 2-5 6h-2l-1 3-3 3a169 169 0 0 0-20 19l-5 5-1 1-4 4h-2v2l-5 5a1106 1106 0 0 0-10 11h-2l-1 2c-2 5-5 8-9 12l-2 2-1 2h-2v2h-2l-1 2-6 8a539 539 0 0 0-22 28l-1 2-8 8-5 8-5 5-3 5-7 11-11 16-2 2-4 7-1 2-5 8-5 7-3 5-5 8-6 11-4 7h-2v2l-4 8-7 16h-2v3l-2 5h-2v2l-2 3-4 6a207 207 0 0 1-9 19l-3 4-1 3-3 4c0-6 2-10 5-15h2l1-3 3-6 5-12 4-10 2-6 8-15 4-7 2-3a755 755 0 0 0 26-43l2-2 1-3 1-1h3v-2c1-5 4-9 7-13l2-2 5-8 2-2c8-13 18-25 27-37l2-2a513 513 0 0 1 23-28l2-3 2-3 7-5 3-6c3-7 8-12 14-18l5-6 14-14 3-3a5219 5219 0 0 1 13-13l7-7 3-3 13-13 8-7a268 268 0 0 1 23-20 216 216 0 0 1 26-21 545 545 0 0 1 37-28l2-1 6-3 6-4 3-1 4-4 3-1 2-2 6-1v-2h3v-2l6-1v-2ZM94 574l1 4-2 2 1-6Z"/><path fill="#292A29" d="m1127 1404 9 3c13 3 25 8 36 15 9 6 9 6 20 6l9 2 9 2v4c-12 1-21 0-31-7l-6-1-29-11-17-7-3-2c-22-4-44-2-63 10-11 8-23 10-36 9-9-2-16-6-23-10-7-5-15-8-23-12v-2c9-3 15-2 24 1 24 7 47 4 70-3 17-6 38-4 54 3Z"/><path fill="#383A36" d="M1599 1516c3 1 4 2 6 5-5 8-10 15-17 21l-7 7-3 2-3 4-4 2-8 7-3 2a4996 4996 0 0 0-19 19l-12 12-16 15-9 10-14 12-9 9-10 9-7 8-10 8-12 12-10 9h-3l-1 4h-2l-1 3h-4v4h-4l-2 4-3-2 2-7h2l3-3 1-2h3v-2l1-2 2-1 7-5 3-2 2-3 5-4 5-6a4229 4229 0 0 1 37-36l1-1 5-5 18-17 10-10a230 230 0 0 1 22-21l12-11 10-10 4-3 9-8 3-4 1-2 10-11 9-10Z"/><path fill="#1E1F1F" d="m1620 275 9 6 2 2 2 1-10 11-7 8-20 19-7 6c-18 16-41 30-64 37l-3-1 2-2 11-8 2-1a518 518 0 0 0 67-60l1-2 15-16Z"/><path fill="#323434" d="M690 910a2447 2447 0 0 0 17 8l2 1 13 8c39 23 78 46 113 74l-2 1-7-3-2-1-7-3-2-2c-22-11-44-22-65-35l-2-1c-22-14-43-29-63-45 2-2 2-2 5-2Z"/><path fill="#1D1D1D" d="M1957 1165h1c1 12-2 24-5 36-2 7-4 15-4 22l-5 23-1 2-16 53-1 2c-9 29-20 56-32 84h-2v3l-4 11-2 3-1 3h-2v2c-1 6-4 10-6 15h-2l-1 3-4 9-2 6-6 11h-2v2c-1 5-4 9-6 14l-2 3-4 6h-2v2l-2 5h-2v2l-7 14-2 3-2 3-1 3-2 2h-4l-2 4-1-2 2-3 6-11a952 952 0 0 1 24-42l3-4 1-2 4-6 4-7 2-2 12-28 13-29 2-6h2v-2l4-11a287 287 0 0 0 9-24 147 147 0 0 0 9-25 26583 26583 0 0 1 15-50l4-11v-2l3-9 8-36 2-4 3-10v-3a2055 2055 0 0 0 4-22Z"/><path fill="#131313" d="m217 1607 10 10 2 3 6 7a320 320 0 0 0 17 20l14 14a676 676 0 0 1 30 32l3 3 6 4a87 87 0 0 1 6 5c2 2 2 2 2 5h2l4 5 3 2c4 1 5 4 7 7 4 5 8 9 14 10l4 2 2 2 1 1v2h2c3 1 5 4 7 6l3 2v2l2 1 6 4a500 500 0 0 0 11 9v2h3l1 3 6 2 2 1v2h2v2h2l1 3h3l1 3h2l6 3v2h2l5 3v2l3 1 7 4v2l2 1c4 1 7 4 11 6l2 1c4 3 7 5 9 9l5 2 4 1 2 4 6 1c3 3 3 3 3 6l6 1 4 3 3 1 3 3c5 4 9 6 15 8l3 3 3 1 6 4 5 1 5 3c3 3 7 5 11 6l15 6 3 2 3 1 3 2 5 4 3 1v2l4 1 3 1 6 2v2l9 2v2l5 1 2 1 7 2v2h2l5 1v2h2l9 4 4 1 2 1c-4 1-5 1-9-1l-3-1-3-1-3-2a2186 2186 0 0 1-104-50l-9-5a801 801 0 0 1-157-112 476 476 0 0 0-28-25l-25-24a5316 5316 0 0 0-13-14l-2-2-12-13-8-8a270 270 0 0 1-20-23c-12-13-12-13-14-20Z"/><path fill="#111" d="M1969 1114h1c0 7 0 14-2 21v4l-2 10-1 4a981 981 0 0 1-62 217l-1 2a775 775 0 0 1-44 91c-31 59-70 114-113 165l-1-3 2-2 2-2 2-3 4-7h3v-2l4-8h2l1-2c1-4 3-6 6-8l3-1 1-3 5-6 9-11 2-3 2-3 2-2 1-7 2-3 2-2 2-2 10-15 4-6 4-8 5-7h4l1-2 4-8 1-2 2-3 3-5 1-2 2-5h2l2-7h2l1-2 7-13 1-2 1-2 2-6h2l1-3 2-5 5-10 5-11h2l1-2 5-15h2l1-2 6-18h2l1-4 7-17c17-42 31-85 43-129l1-3 2-15 4-18 3-12 4-17 3-14 1-4 1-14 2-7v-6l1-1 1-6 1-3v-3Z"/><path fill="#191919" d="m256 329 1 2-10 12-2 2-1 2h-2v2h-2l-1 2-6 8a539 539 0 0 0-22 28l-1 2-8 8-5 8-5 5-3 5-7 11-11 16-2 2-4 7-1 2-5 8-5 7-3 5-5 8-6 11-4 7h-2v2l-4 8-7 16h-2v3l-2 5h-2v2l-2 3-4 6a207 207 0 0 1-9 19l-3 4-1 3-3 4c0-6 2-10 5-15h2l1-3 3-6 5-12 4-10 2-6 8-15 4-7 2-3a755 755 0 0 0 26-43l2-2 1-3 1-1h3v-2c1-5 4-9 7-13l2-2 5-8 2-2c8-13 18-25 27-37l2-2a503 503 0 0 1 35-40l6-7 5-5 1-1ZM94 574l1 4-2 2 1-6Z"/><path fill="#464646" d="M1922 685h2a4541 4541 0 0 1 5 15v3l1 3 1 6 3 1 1 4 1 2 1 3 1 3 2 10a15916 15916 0 0 0 10 42l2 8 1 7 2 8 4 27 3 17c2 8 2 16 3 25v2a496 496 0 0 1 0 9c0 3 0 3-2 5l-1 1v-2l-5-34v-8h-2l-1-12-1-3v-3l-1-3v-8h-2v-2l-6-30-5-22-9-36-1-4-5-14-2-11v-9Z"/><path fill="#1A1A1A" d="M1817 1520v5l-1 2-5 8-10 14-2 2-2 2-1 4c0 4-1 5-3 7l-2 3-2 3-2 2-5 7-2 3-4 3-1 3c-2 3-2 3-5 4-4 3-5 5-7 9l-2 2-2 5-2 3-3 1-1 2-4 7c-3 2-4 5-6 8a282 282 0 0 0-11 12l-2 2-10 11-24 25-1 1a5296 5296 0 0 1-31 31c-2 2-2 2-5 2l-1 3c-3 3-6 6-10 7l-3-1 10-9h2l1-2c1-4 4-6 7-9a325383210 325383210 0 0 1 38-37l10-10 3-3 2-3h2l1-2 4-6 4-6 8-10 12-14c1-2 2-3 5-3v-2h2l1-2 6-9 5-6 2-3a20373 20373 0 0 0 14-18l2-4h2l1-2 6-9 3-6h2l1-2 6-9 10-16Z"/><path fill="#3D3D3D" d="M901 10a7416 7416 0 0 0 22 0h17a20611 20611 0 0 1 128 0c16 0 31 1 46 4l17 2 34 4 3 1 12 3h-8a293 293 0 0 0-35-5l-26-4h-3a345 345 0 0 0-71-2 37153 37153 0 0 0-163 2 1278 1278 0 0 1-49 6 1578 1578 0 0 1-16 3l-3 1a188 188 0 0 0-27 5 200 200 0 0 0-27 6h-3l-14 2 11-4 3-1 8-2h3c31-7 62-13 94-18h2a409 409 0 0 1 45-3Z"/><path fill="#272727" d="M918 7a10776 10776 0 0 0 19 0h15a30399 30399 0 0 1 110 0c16 0 32 0 48 4 4 1 7 0 11-1l4 1h4v2h2l35 6 9 1 4 1v2h2l7 1h3l15 3 12 1 1 2 4-1v2l4 1 5 1h2c13 3 13 3 18 6l-15-2h-3l-6-3-13-3-4-1-19-3-8-1a471 471 0 0 0-118-15 14452 14452 0 0 1-22 0h-18a50585 50585 0 0 0-145 0l1-2 4-1 10-1h22Z"/><path fill="#323232" d="m18 817 1 4Zm-1 4h1c1 11-1 21-3 31l-1 15-2 7-2 13v63a29329 29329 0 0 0 0 90c-1 38-1 38 4 76l2 15 1 5v3l1 4 2 11 1 5 1 9c1 12 3 23 7 35l5 22 5 19 2 10 1 1v8l-2-1-1-5-1-4v-3a1048 1048 0 0 0-2-10l-3-4-2-6-2-10-1-5-4-19-1-5-2-1 1-2-2-10-1-8-2-17v-3l-3-11-2-6v-5l-2-15-2-16a248 248 0 0 0-1-14v-3l-1-42 1-24v-3a3523 3523 0 0 0 0-69v-3l-1-15v-7l1-4 1-7H6c0-16 1-32 5-47l4-22a12447 12447 0 0 1 2-16Z"/><path fill="#464646" d="M1965 891h1v3a9207 9207 0 0 0 5 28v11a1705 1705 0 0 1 1 62v42l-1 3-1 7a275 275 0 0 0-2 31v5l-1 2c0 2-1 3-3 5l1-45a856 856 0 0 0-1-139v-10l1-5Z"/><path fill="#434343" d="m649 70-3 3h-2v2l-6 2-4 1-5 1v2l-18 6-13 7-7 3-13 5-7 4-19 8a1819 1819 0 0 1-40 22l-2 1-2 1-2 1-6 2c0-3 0-3 2-5l2-2 2-2c3-3 6-4 10-6l7-3c4-4 10-5 15-8l4-2 6-4 2-1 2-1 2-1a245 245 0 0 1 23-10l10-4 4-3 6-2 15-7c26-13 26-13 37-10Z"/><path fill="#1D1D1D" d="M182 1557h2v3l2 1 5 2v2l2 1c3 1 3 3 4 6s2 4 5 6v2h2v2l1 2 2 1c3 2 4 5 5 8l3 2v2h2l2 5h2c3 4 3 4 3 7l3 1v3h3l1 3 4 5v3h3v3h2l1 3 5 3v2h2l1 3c2 3 3 3 6 5l1 4 3 1v2l3 1v2l3 1 3 5 3 2v2l3 1 3 3a238 238 0 0 0 35 34l6 7v2l2 1c3 1 4 2 6 5l-1 3-6-3-1-3-3-1v-2h-2l-1-2-8-7-20-19a2019 2019 0 0 0-19-20l-9-9a256 256 0 0 1-26-33h-2l-1-2-1-2-1-3-4-4v-2l-3-1-1-4-3-1-1-4-4-1v-2l-3-1v-3l-2-1c-3-1-4-4-6-6l-2-3-2-6-3-1-4-5-2-3c-2-3-3-5-3-8Z"/><path fill="#282828" d="m723 42-12 5-5 2-21 6a252 252 0 0 0-28 10l-2 1v2l13-4 6-1v-2l9-1v-2h8l-9 3-15 6-11 4-3 1c-6 2-6 2-9 1l4-3c-15 1-27 6-40 13a201 201 0 0 1-22 10l-9 4-9 4h-6a407 407 0 0 1 48-21v-2a230 230 0 0 1 37-15 178 178 0 0 1 29-9l7-1 5-2 17-6 7-1 3-1c5-2 5-2 8-1Zm-161 60c-1 3-2 3-5 4l-2 1-2 1-3 1-8 3-1 3-4 2-17 8a2601 2601 0 0 1-17 9l-7 2v2l-3-1 14-10a759 759 0 0 0 10-5l3-2 9-2 2-4 4-2a103 103 0 0 0 15-7c4-2 7-3 12-3Zm-73 36 4 1-7 2 3-3Z"/><path fill="#2C2C2C" d="M326 1719h4v2h2l3 4 1 2h3v2l3 1c4 1 5 3 8 6l4 3 11 11 7 4 6 5 3 3 4 4 4 1v2l2 1 3 4 4 2v2h2l7 3 2 2 3 3 4 2 10 7 5 2 1 3 4 2 12 8 2 1 4 3v2l2 1 6 3c2 2 4 2 7 2v3l5 1v2h3l6 3 1 2 5 3v2h3l7 4 4 2v2h3c4 1 5 3 8 6l10 4c5 2 10 3 14 7v2l3 1 7 3 12 5v2l7 2-3 3-3-1v-3h-2l-8-3-3-2-6-3-3-2-2-1-8-2-6-3v-3l-8-2-3-1-2-3h-2c-4-1-5-3-7-5h-2l-9-4-3-2-3-5h-5v-3h-2c-4 0-5-1-8-3l-1-5h-7l-1-5-7-1-3-1-1-2c-2-4-5-6-9-8l-2-1-9-6-4-3-5-3-7-6-3-1-1-1c-3-3-5-3-8-3v-4l-4 1v-4h-2v-2h-2v-2l-9-2v-4h-3l-4-4v-2l-5-2v-2l-5-2v-2l-2-1-7-5c-3-4-3-4-8-6l-2-2-8-5c-12-8-12-8-14-13v-2Z"/><path fill="#131313" d="m1196 1954 2 1Zm0 1c-3 3-6 3-10 4h-2l-9 2h-2c-38 7-75 12-113 15h-2c-34 3-68 2-101 2l-1-2 10-1h10a6522 6522 0 0 1 77-3h3l16-3 14-1 6-1h3l7-1 5 1h6l2-1h3l5-1 3-1 15-2 26-4h6l11-1 12-2Z"/><path fill="#1D1D1D" d="M1796 425h2v2l5 1-1 3 3 1-1 2 3 1-1 2 3 1-1 2 3 1-1 2 3 1-1 2 3 1-1 2 3 1-1 2 3 1 3 4 1 2 1 2-1 2 3 1 3 5-1 2 3 1 1 2-1 2 3 1 1 2-1 2 3 1c2 3 4 6 4 9l2 2 6 8 4 9c7 11 14 23 18 36l4 7c3 3 4 7 6 10l1 2 4 9 2 4a2788 2788 0 0 1 14 32l1 3 1 9-3-1-2-5v-3l-1-2h-2l-2-12h-2l-3-9h-2v-7h-2c-3-4-3-6-3-11l-3 1-1-3c-4-12-10-23-17-33l-2-7-7-15-2-3a185 185 0 0 0-7-13l-9-15-5-9c-3-6-6-11-10-15-3-3-4-6-5-9-3-4-5-8-9-11l-1-2-3-1-3-5-1-3-1-4Z"/><path fill="#4D4D4D" d="M13 884h1v3a62388 62388 0 0 0 0 142c0 39 0 39 3 77v10l-2 1c-5-28-5-56-5-83v-14a13045 13045 0 0 1 0-124v-2c1-4 1-7 3-10Z"/><path fill="#1C1C1C" d="M1572 196c4 1 6 3 9 6l11 5v2h2l2 1 1 2 2 1 3 3 4 2v2l2 1c3 1 4 2 5 5l5 3 2 2 8 6 5 4 2 1 3 3c2 3 4 4 7 5v4h2v2h3l3 1 2 4 4 2c8 6 15 14 23 22l6 5 5 6 9 9 6 8 14 13-1 4-4-2v-2l-3-1v-2l-3-1-3-4-8-7-9-10-5-4-4-4v-3l-2-1-5-5-10-9-6-5v-2l-3-1v-2l-3-1v-2l-2-1-6-4v-2h-2v-4h-2l-6-4v-3l-6-1v-2l-5-2v-2h-2l-3-3-2-1c-3-1-5-4-7-6v-2h-2l-4-4-4-2v-2h-2l-6-4-4-2v-2h-2v-2l-4-1v-2l-4-1v-2l-4-1v-2h-2v-2Z"/><path fill="#222" d="m1594 1765-1 3h-2v2l-5 3c2-4 4-8 8-8Zm-11 8 3 1-2 1-2 2-3 1-4 6-6 3-1 2h-3v3h-3l-1 2c-1 3-3 4-6 5h-3l-1 3-4 3-3 2-5 1v2h-3v2h-3v2l-3 1-6 4h-3v2h-2v2l-10 3 3-4 3-1 7-5 6-4 14-8 5-2 1-3 5-3 10-8a95 95 0 0 1 17-13l3-2Zm-77 53 3 1-4 2v2l-5 1v2l-5 1v2l-3 1-6 4h-2l-1 3-6 1-1 3-4 2-2 2-3 1a280538171 280538171 0 0 1-20 11c-3 2-4 2-8 2v2l-10 4-12 4c-8 4-8 4-13 4v2l-4 2h-7l10-3v-2l6-2 4-2 5-1v-2l5-1v-2a3423 3423 0 0 1 18-9l5-2 8-4 10-6 6-3 9-5 13-7 2-1 7-3h2l1-3 2-1Z"/><path fill="#282828" d="m1170 1957-8 3h-3l-2 1h-3c-13 3-27 5-40 6l-2 1-8-1-6 1h-8l-3 1a2397 2397 0 0 0-25 3l-18 2h-10l-10 1a262 262 0 0 1-40 0l-11 1h-11l-5 2-5-1h-2l-3-2-4-1h-8l-7-1v-2h3l52 1a2915 2915 0 0 1 65-2h3l32-4a255 255 0 0 1 35-4l14-1 20-2h2l16-2Z"/><path fill="#414442" d="m1399 1710 5 1-2 4-2 2-3 4-10 9c-4 2-6 5-9 8l-15 14-3 2c-7 6-7 6-9 6l-1 2a41 41 0 0 1-28 18l23-22 19-16 14-13 2-2 5-3 4-4 6-7h3l1-3Z"/><path fill="#131313" d="m793 1957 11 1 11 1 9 1c5 2 10 2 16 3l3 1a3391 3391 0 0 0 23 3h3l5-1 7 1h6l7 1 18 2a191 191 0 0 1 30 4l11 2v1c-53 2-108-7-160-18v-2Z"/><path fill="#1E1E1E" d="M91 580h2l-6 15-5 13-3 6-6 16-3 6a218 218 0 0 0-4 12 898 898 0 0 0-21 62h-2l-1 3-7 28-1-10h2v-3l2-10 1-5h2v-3c0-3 1-5 3-8v-5l6-20a814 814 0 0 0 9-20 143 143 0 0 0 6-18l1-2c1-4 2-6 5-9 3-6 5-12 6-19l7-13 4-11h2l1-5ZM33 741v11l-1 3-1 3a2145 2145 0 0 1-9 41l-2-1v-2l1-3v-8h2l2-18 1-4h2l-1-2 2-8 1-8 3-4Z"/><path fill="#2B2B2B" d="M42 1264c3 4 5 7 6 12l3 11 5 14c2 7 4 14 8 20l3 10a387 387 0 0 0 8 20c2 9 6 17 10 25l5 15 3 4 2 7v5h2l11 22 1 3a1384 1384 0 0 1 14 30l-4-3-2-3-1-4-4-8-10-21-2-3-1-2-1-4-2-1-2-4-1-2-1-6-2-1-1-5-3-6-4-10-1-1-3-7-5-13-4-10-3-7-6-20-2-4-3-8-1-4-2-3-1-4-1-4-1-3-2-8a425 425 0 0 0-5-19Z"/><path fill="#424242" d="M42 730h1l-4 18-1 11-4 18-5 25-3 11-1 7-1 4v3h-2l-1 11-3 1c-1-14 2-27 5-41l2-11 2-9 3-10a15462 15462 0 0 1 3-18l1-3 3-9h2v-3l3-5Z"/><path fill="#111" d="M248 333c0 4-2 7-5 10l-2 2a262 262 0 0 0-30 35 633 633 0 0 0-41 56l-2 3-1 2-1 1-2 6h-3l-1 2-4 7-1 3-2 3a729 729 0 0 0-27 44l-1 3-3 6-2 2-1 2-2 6h-2l-1 2-3 8-7 15h-2l-1 3a97 97 0 0 1-6 13 3176 3176 0 0 1-5 11l-2 4-3 10-2-4 2-5 2-4 1-3 2-3a1508 1508 0 0 1 30-60 945 945 0 0 1 128-180Z"/><path fill="#1E1E1E" d="m1926 688 3 1 2 4v3l2 11 3 4 1 6 4 14 5 19h2l2 9 1 2v3l1 2-1 5h2v9h2a3464 3464 0 0 1 5 27l1 2 1 14 1 7v2l2 5 2 12v3l2 26-2-1-1-4v-6l-3-19-1-9-2-12v-3l-1-4v-2l-3-7-2-8c0-5 0-5-2-9l-1-6-1-6-2-11a431 431 0 0 0-13-51v-2l-3-7-4-12v-3l-2-8Z"/><path fill="#2B2B2B" d="m1414 98 3 2 28 13v3l4 1 9 3v3h3l4 2 7 4h2l2 1v2l7 2v2l7 2v2l12 5v2l5 1v2h3v2l5 1v2h3l2 3 6 2v2h3v2h3v2h3v2h3v2h3v2h3c4 1 7 3 10 6v3l4 1v3l4 1v2h3v2h2v2l3 1v2l-7-4c-4-5-10-7-15-9v-2l-2-1-13-8-3-3-3-2-3-1-3-4a202 202 0 0 0-14-7l-1-3-6-2-8-5v-2h-2c-3 0-3 0-5-2-3-3-6-4-10-5l-5-4-3-1-6-3a1464 1464 0 0 1-19-11l-4-3-4-1v-2l-10-3v-2l-7-2v-2l-4-2 1-1Z"/><path fill="#1B1B1B" d="m1312 1919-8 4-3 1-6 1v2l-5 1-3 1-5 1-5 3h-4l-3 1-2 3a92 92 0 0 1-13 4h-3l-10 3-3 1a3866 3866 0 0 0-23 5l-4 1-2 1-4 2c-4 2-8 2-12 2-6 1-11 1-16 3l-7-1v-2c9-4 18-5 28-6 12-2 23-5 35-9a148 148 0 0 1 25-7l15-5c4 0 7-2 11-3l4-1 16-5 7-1Z"/><path fill="#1E1E1E" d="M707 1933c6 0 11 1 17 4 8 3 17 5 25 6l12 3a179 179 0 0 0 35 8 299 299 0 0 0 47 7l3 1c18 2 18 2 26 5h-9l-19-2-27-5h-8l-5-1-9-1-22-3-6-1-11-3-1-2-7-2h-3l-3-1v-2l-3 1-8-2v-2l-2 1-5-1v-2l-3-1-5-1h-2l-6-2-1-2Z"/><path fill="#1C1C1C" d="M1817 1520v5l-1 2-5 8-10 14-2 2-2 2-1 4c0 4-1 5-3 7l-2 3-2 3-2 2-5 7-2 3-4 3-1 3c-2 3-2 3-5 4-4 3-5 5-7 9l-2 2-2 5c-2 3-2 3-5 4l-2 1-2 3h-2l-1 2-4 7-2 2-2 2h-2l-1 2c-2 5-6 9-10 13l-3 3-2 2c0-4 1-5 3-7l5-7 8-10 12-14c1-2 2-3 5-3v-2h2l1-2 6-9 5-6 2-3a20373 20373 0 0 0 14-18l2-4h2l1-2 6-9 3-6h2l1-2 6-9 10-16Z"/><path fill="#5D5E5D" d="M1124 1404c17 3 33 10 48 18 7 4 12 7 20 6l9 2 9 2v4c-12 1-21 0-31-7l-6-1c-11-3-21-8-32-13l-14-5-3-4v-2Z"/><path fill="#3F3F3F" d="M1903 625h2l1 2c2 6 3 11 7 16l4 12 4 9 2 11 2 4 2 7 4 19v7l-3-9-1-3-3-15h-2l2 16c-4-5-6-12-6-19l-4-9-3-9-4-11-2-7c3 1 3 3 4 6v-5l-1-2-2-7v-6h-2l-1-7Z"/><path fill="#292929" d="M6 1068c2 2 2 4 3 7v3l1 4v3a2338 2338 0 0 1 5 33l1 13 1 5v3l1 4 2 11 1 5 1 9c1 12 3 23 7 35l5 22 5 19 2 10 1 1v8l-2-1-1-5-1-4v-3a1048 1048 0 0 0-2-10l-3-4-2-6-2-10-1-5-4-19-1-5-2-1 1-2-2-10-1-8-2-17v-3l-3-11-2-6v-5l-2-15-2-16v-8l-2-21Z"/><path fill="#373737" d="M751 1943c5 0 8 0 13 2l9 3 2 1 12 1 4 1 7 2h3l14 2 3 1 7 1a400 400 0 0 1 35 5l10 1 27 3h2a497 497 0 0 0 52 5l-4 2h-12l-24-2h-3c-6-1-11-1-16-3h-7l-17-1-2-1-12-2-17-3h-4l-16-3a296 296 0 0 1-66-14v-1Z"/><path fill="#191919" d="M8 863h2l-4 43h2v2l-1 8v12l1 8v4a14131 14131 0 0 1-1 124H6a164076 164076 0 0 1-2-154v-4a195 195 0 0 1 4-43Z"/><path fill="#202020" d="M863 11v2h-3c-34 5-69 11-103 19l-2 1a1154 1154 0 0 0-32 8h-4l1-3h3l7-2 5-1 19-4 3-1 2-1h4v-2h3c4 0 5 0 8-2l1 1 2-1h3l3-1 8-1v-2l5 1v-2h2l8-1h3l7-1h2a3419 3419 0 0 0 14-3l4-1h6v-2l21-1ZM718 40l1 2-11 4-3 1-4 1h-9l1-2h6l1-2 4-1c5-1 9-3 14-3Zm-26 9c-6 4-6 4-11 5l-12 3-6 1v-2l12-4 3-1 3-1 3-1h8Z"/><path fill="#424644" d="m910 979 1 2h5c-16 34-16 34-30 45h-2c-1-3-1-4 1-7a269 269 0 0 1 5-9l1-2 5-9 2-3 4-6 1-2 2-3 5-6Z"/><path fill="#202020" d="M450 1814c11 4 11 4 12 7l5 1h2v3l5 1v2h3l6 3 1 2 5 3v2h3l7 4 4 2v2h3c4 1 5 3 8 6l10 4c5 2 10 3 14 7v2l3 1 7 3 12 5v2l7 2-3 3-3-1v-3h-2l-8-3-3-2-6-3-3-2-2-1-8-2-6-3v-3l-8-2-3-1-2-3h-2c-4-1-5-3-7-5h-2l-9-4-3-2-3-5h-5v-3h-2c-4 0-5-1-8-3l-1-5h-7l-1-5-10-2v-4Z"/><path fill="#272727" d="m1253 38 2 1 11 2 15 4a125 125 0 0 0 10 3l1 2 4 1 3 1 2 1 19 6 10 4 3 1 2 1a577 577 0 0 1 42 15v2l7 1v2l3 1 10 4 12 6 4 3-11-3v-2l-10-2-1-3h-2c-5-1-8-3-11-5-6-3-13-4-19-6l-15-5v-2l-4-1v-2h-2c-6 0-10-1-15-5-3-2-6-2-10-3l-5-2-13-4-16-6-14-4h-4l-3-1-6-4 1-1Z"/><path fill="#3F3F3F" d="M47 701h1v3l-1 8h2l1-3v8l-1 3-2 7-5 16-4 17h-1c0-8 2-14 4-22l1-7-3 7h-2l-7 35-1 3v3l-3 9-1 5v2l-1 3-4 19h-1a65 65 0 0 1 2-19l2-8 1-3c5-26 11-52 19-77h2l2-9Z"/><path fill="#111" d="m217 1607 10 10 2 3 6 7a320 320 0 0 0 17 20l14 14a676 676 0 0 1 30 32l3 3 6 4a87 87 0 0 1 6 5c2 2 2 2 2 5h2l4 5 3 2c4 1 5 4 7 7 3 4 7 8 12 10 3 0 4 3 6 6l6 5c-8 0-17-12-23-17l-7-6a763 763 0 0 1-50-49l-3-3-11-12-8-8a270 270 0 0 1-20-23c-12-13-12-13-14-20Z"/><path fill="#3E3E3E" d="M1296 54c6 1 12 2 18 5l5 2 6 3 13 4h2l1 2 3 1 1 2 4 1 8 3 8 2 11 4 12 5 4 3 5 2h3l2 1v2h2l8 3 3 1 2 1v2h2l5 3c-7-1-7-1-10-3v-2h-2l-3-1h-3l-3-1-2-4-5-1-3-1h-2l-1-3h-6l-1-3h-6l-1-3h-3l-7-1h-5l-7-1-3-1-3-1-4-1-24-10 11 2c4 2 8 4 13 4l-1-3-8-1v-2l-8-1v-2h-4l-6-2v-2h-3l-7-2v-2h-6v-2l-5-1v-1Z"/><path fill="#2B2B2B" d="M1572 196c4 1 6 3 9 6l11 5v2h2l2 1 1 2 2 1 3 3 4 2v2l2 1c3 1 4 2 5 5l5 3 2 2 8 6 5 4 2 1 3 3c2 3 4 4 7 5v4h2v2l1 2 5 2 2 4h2c3 1 5 4 7 7l12 11-1 2-7-6-3-2-2-2-2-1-2-5-3-1v-2l-3-1v-2l-2-1-6-4v-2h-2v-4h-2l-6-4v-3l-6-1v-2l-5-2v-2h-2l-3-3-2-1c-3-1-5-4-7-6v-2h-2l-4-4-4-2v-2h-2l-6-4-4-2v-2h-2v-2l-4-1v-2l-4-1v-2l-4-1v-2h-2v-2Z"/><path fill="#2B2E2C" d="M945 1251h2c4 0 7 0 10 2-1 3-1 3-4 4l-3 2h-2a489 489 0 0 1-13 6l-4 1-9 1-2-5c7-8 15-11 25-11Z"/><path fill="#A4A5A4" d="M1292 1166c12 0 25 1 37 3h2l24 4v2c-21 4-41 1-61-7l-2-2Z"/><path fill="#989998" d="M1693 884c4 4 3 9 3 14s0 9-2 13l-5-4-1-6v-2l2-11h-30c9-9 22-7 33-4Z"/><path fill="#1B1B1B" d="m124 1462 4 6 4 5c2 2 3 4 3 7h2l3 5 1 3 2 3 1 2 1 5h2l6 9 2 3 4 9h2l1 2c3 7 7 13 12 19l1 2 2 2 2 6h-2v-3h-2l-1-2-3-4-6-8v-3h-2v-3h-2l-2-7-4-1-1-6h-3v-2h-2l-3-4-1-2-2-3-1-3-5-8-1-2c-6-11-6-11-7-17l-3-1-1-5-1-2v-2Z"/><path fill="#363636" d="M538 1864c6-1 11 2 16 5l3 1 6 4v2h2l6 3 3 1 7 3 9 3 1 2 6 1v2h2l12 4 1 2 4 1h4l1-1c6-1 10 1 16 3a9011 9011 0 0 0 17 7h-9l-2-1-3-1-3-1-7-3v3a1111 1111 0 0 1-12-1l-3-1-1-2-5-2h-2l-2-1v-2h-4l-3-1h-2l-1-2-6-2-13-6-9-4v-2h-2l-5-2v-2h-2c-7-2-13-5-20-9v-1Z"/><path fill="#3E3E3E" d="m1643 1723 2 1-3 3h-2l-1 3-4 3-8 7-8 7-1 2-5 3-1 2-7 3v2l-8 6-3-1 2-2 3-2 3-2c2-2 3-4 3-7l-8 6-2-1a1001 1001 0 0 1 34-29l2 1-8 9 2 1 2-2 3-2 3-3 6-3v-2l4-3Z"/><path fill="#343434" d="m723 42-12 5-5 2-21 6a252 252 0 0 0-28 10l-2 1v2l13-4 6-1v-2l9-1v-2h8l-9 3-15 6-11 4-3 1c-6 2-6 2-9 1l4-3h-9c2-2 4-3 7-3l3-1h2v-2c8-4 16-6 24-8l7-3h2l4-2 17-6 7-1 3-1c5-2 5-2 8-1Z"/><path fill="#3A3A3A" d="m1170 1957-8 3h-3l-2 1h-3c-13 3-27 5-40 6l-2 1-8-1-6 1h-7a4455 4455 0 0 1-18 2l-3 1h-3l-5-2a486 486 0 0 1 70-8l20-2h2l16-2Z"/><path fill="#212121" d="M325 262c-1 3-2 4-5 6h-2l-1 2-5 6h-2l-1 3-3 3-11 10-2 2a2671 2671 0 0 0-12 12l-1 1-4 4h-2v2l-5 5-8 9-2 2h-2c2-6 5-11 10-14l7-7 16-17 1-1 21-19 10-8 3-1Z"/><path fill="#A1A2A1" d="m1151 1219 3 3c2 11 1 24-5 34l-2 3c-3 6-3 6-6 7h-2l-1-5 2-2c3-4 3-7 4-12l1-2a1090 1090 0 0 0 6-26Z"/><path fill="#2E2E2E" d="m145 479 1 2-3 5-1 3-2 3-1 2-3 5h-2v-2h2v-2l1-2v-3l3-5h2l1-2 2-4Zm-12 20 1 3-4 7-7 16h-2v3l-2 5h-2v2l-2 3-4 6a207 207 0 0 1-9 19l-3 4-1 3-3 4c0-6 2-10 5-15h2l1-3 3-6 4-9c3-10 9-19 14-29l2-3 1-3 2-2 4-5Zm-39 75 1 4-2 2 1-6Z"/><path fill="#282828" d="M91 580h2l-6 15-5 13-3 6-6 16-3 6a215 215 0 0 0-6 16l-1 2-12 36-2-1 7-24 3-11 5-12 3-9 2-3c5-5 7-14 8-21l7-13 4-11h2l1-5Z"/><path fill="#181818" d="M115 526c1 3 1 3-1 7l-1 2-2 7c-2 6-5 12-9 17h-2l-1 2-3 11-2 6-3 3-1 4h-2l-1 2c-1 6-2 10-6 14l-4 13-6 16h-3v-2h2v-5h2v-5h2v-4c0-5 1-9 4-14l1-3c3-6 3-6 5-7l3-6 1-3 1-2 3-6 1-2 6-13 1-2 2-5h2v-2l11-23Z"/><path fill="#393939" d="M1969 1047h1c1 20 1 38-2 58v2l-5 34h-1v-14l1-8v-3l1-4v-12l-2-1 1-28h1l1 18c2-3 1-7 2-11v-3a4019 4019 0 0 0 2-28Z"/><path fill="#464646" d="M1961 1091h1v3l3 6v16l-2 13h-2v2c0 7-1 13-3 20l-2 9h-2c1-15 2-30 5-45l2-24Z"/><path fill="#A4A5A4" d="m549 775 1 3c-9 3-18 4-28 4h-3l-15-2c13-7 30-8 45-5Z"/><path fill="#323232" d="M866 14h-3l-4 1h-2l-11 2-20 3c-8 1-16 2-24 5l-18 4h-3l-2 1-5 1-16 4h-3l-20 3 11-4 3-1 8-2h3c28-7 57-12 85-17h3l7-1 3-1c5 0 5 0 8 2Z"/><path fill="#131313" d="M664 1922a141 141 0 0 1 21 4l6 4 11 2 11 3 11 4v2h7v2l11 1v2h2l14 3v1c-9 0-17-3-25-5h-2c-23-6-45-14-67-21v-2Z"/><path fill="#303030" d="m1488 1836 2 1h-3l1-1Zm-1 3-2 1-10 7c-5 4-11 7-17 9l-3 2-3 1-5 4-4 1-9 6-7 3-3 1-11 5-3 1-6 1v2l-4 2h-7l10-3v-2l6-2 4-2 5-1v-2l5-1v-2a3423 3423 0 0 1 18-9l5-2 8-4 10-6 8-4 10-6h5Z"/><path fill="#2B2B2B" d="m1926 688 3 1 2 4v3l2 11 3 4 1 6 4 14 4 13 1 4 2 10 6 30 1 7 1 3 1 13h-1l-1-3a16908 16908 0 0 0-1-7c0-4 0-4-2-7l-1-6-1-6-2-11a431 431 0 0 0-13-51v-2l-3-7-4-12v-3l-2-8Z"/><path fill="#111" d="m1736 1635 1 2a162 162 0 0 1-19 22l-16 16a225 225 0 0 0-19 20l-18 17-18 16-3 2-1 1c1-4 2-6 5-9l2-1c4-1 5-3 7-6l4-3 8-7 1-1a1394 1394 0 0 0 51-52l5-6 10-11ZM363 222l2 1-3 2-5 7c-3 5-6 6-11 8l-13 11a427 427 0 0 1-18 16l-2 1-42 42c0-3 0-3 2-5l2-2 2-2 3-3 2-3a1966 1966 0 0 1 20-19l3-3 13-13 8-7a267 267 0 0 1 24-20l13-11Z"/><path fill="#393939" d="m449 165 2 1-3 1-1 3-5 2c-7 3-13 9-19 14l-4 1-1 3c-3 4-7 6-11 9-5 2-10 6-14 9l-1-2 2-1 3-5 4-1v-2c3-3 7-5 11-6v-2c4-3 4-3 7-3v-2l5-4 3-2 5-1v-3l2-1 12-6 3-2Zm-39 31 2 1c0 3-1 4-3 6l-2 1-2-1 5-7Zm-20 12 2 1a486043637 486043637 0 0 1-20 16l-2-1 20-16Z"/><path fill="#1D1D1D" d="m881 1967 13 1 18 2a191 191 0 0 1 30 4l11 2v1h-29l-4-1-5-1-8-2h-9l-8-1v-2l-9-1v-2Z"/><path fill="#2C2C2C" d="M1723 333c3 1 5 3 7 6l2 2 2 2a3738 3738 0 0 0 21 25l2 3a194 194 0 0 1 11 13l1 2 2 2 1 4h2l1 4h2l1 4h2v2l5 1-1 3 4 2-1 2 3 1v2c1 4 3 7 6 10l-1 2-3-1-2-6-2-1-4-7-4-4-1-3-2-1-1-3-2-1-1-3-2-1-5-10h-2l-5-7-2-2-1-1v-2l-3-1-3-5-8-8-5-8-5-5v-2l-3-1c-4-4-4-4-4-7h-2v-2Z"/><path fill="#2B2B2B" d="M1957 1165h1c1 13-2 24-5 36l-2 7-2 7-4 11v2l-2 13-3 12-2 8h-2v4c-1 3-1 5-4 8l4-20 5-16v-3l7-30 2-4 3-10v-3a2055 2055 0 0 0 4-22Z"/><path fill="#3E3E3E" d="m1201 27 13 3 4 1h4l3 1 6 3 5 1h3l5 1 3 1h3l5 4-12-2 1 4h3v2l3 1-11-2v-2h-3l-13-2-4-1-5-3 10 1v-2l-2-1h-3l-2-1-5-2-7-2-2-1h-2v-2Z"/><path fill="#5D5E5D" d="m1361 1744 2 1-2 2-4 3-1 2-4 4 1 4h-2l-1 2a41 41 0 0 1-28 18c7-9 15-15 24-22l15-14Z"/><path fill="#3C3C3C" d="m1546 1799 2 1-11 9-2 1-10 5-4 1-1 3-4 2-2 1-4 1-1 3-5 2-1 2-5 3-3 1-2 1-2-1 3-2c3-1 5-3 6-6h-5c3-4 7-6 12-9l2-1 7-3-2 5 9-5 11-6 4-4 7-3 1-1Z"/><path fill="#424440" d="m1471 1642 2 1-2 2a4637 4637 0 0 0-39 38l-2 3-2 4 1 2-3 1-1 3h-4v4h-4l-2 4-3-2 2-7h2l3-3 1-2h3v-2l1-2 2-1 7-5 3-3 3-2 2-3 8-8 7-7 15-15Z"/><path fill="#1B1B1B" d="M176 429c0 8-10 19-15 25h-2v2c-1 4-3 7-6 10l-7 11c-3 7-3 7-6 10l-3 6v2l-1 2h-2l-1 2-4 7-8 15-4 3 5-11 2-3 1-3 4-7 2-3a789 789 0 0 0 26-43l2-2 1-3 1-1h3v-3h2l1-2 5-9 2-3 2-2Z"/><path fill="#1D1D1D" d="m1431 1873-4 2-2 1-6 1v2l-4 2-3 1-6 1v2l-7 4-2 1-11 2v2c-21 9-21 9-30 11l-10 4-2 1-2-1 2-1 6-4h5v-2h5v-2h2c5-1 9-2 14-5l3-1 8-4 6-2v-2l4-1 3-1 4-1v-2l3-1 5-2 2-1h2l2-1 6-3h7Z"/><path fill="#5F605F" d="m1749 1156 4 6c0 13-4 25-7 38h-1v-2l-1-3-2-1 3-21 1-6 3-11Z"/><path fill="#2F2F2F" d="m256 1647 3 1v2l3 1v2l3 1 3 5 3 2v2l3 1 3 3a238 238 0 0 0 35 34l6 7v2l2 1c3 1 4 2 6 5l-1 3-6-3-1-3-3-1v-2h-2l-3-5c-7-9-16-17-24-25a15382 15382 0 0 1-14-14l-3-3-6-6-5-6-2-4Z"/><path fill="#393939" d="m1392 1886 1 2-5 2-2 2-6 2-7 4c-5 2-8 2-13 2v2h-5v2l-3 1-6 3-9 1v2c-6 4-12 6-20 7l-4-1 9-2v-2h3v-2l7-2 2-1c4-2 8-2 13-3v-2l18-6 15-6 5-1v-2l7-2Z"/><path fill="#464646" d="M630 1901c5 0 9 2 13 3 6 3 12 4 18 5l8 3 1 2 5 2 3 1 2 1v2c-5 0-9-1-14-3-5-3-11-4-17-6l-18-6-1-4Z"/><path fill="#1C1C1C" d="m419 183 2 1h-2v2c-4 3-4 3-7 3v2c-3 3-7 5-11 6v2l-4 1v2l-3 3-2 1v2l-4 3-2 1-4 1-1 3-5 4-2 2-9 6c2-4 3-6 7-8l1-3 7-6 7-6 8-5 1-2 3-1a897 897 0 0 0 12-10l1-1c4-3 4-3 7-3Z"/><path fill="#131313" d="m616 1903 12 4v2h5v2l8 1v2h5l3 1 4 2a140 140 0 0 0 6 2h5l9 2 12 3 8 4a95 95 0 0 0 12 3v3c-12-1-12-1-16-4l-7-4h-2l-8-1v-2l-3 1c-8-1-16-4-24-7a602 602 0 0 0-10-3l-4-2-8-5-4-2-3-1v-1Z"/><path fill="#3D3D3D" d="m1768 1589 1 3-3 5-1 2-4 4-2 5c-2 3-2 3-5 4l-2 1-2 3h-2l-1 2-4 7-2 2-2 2h-2l-1 2c-2 5-6 9-10 13l-3 3-2 2c0-4 1-5 3-7l5-7 8-10 12-14c1-2 2-3 5-3v-2h2l1-2 8-11 3-4Z"/><path fill="#262626" d="m782 1952 18 3 22 3 21 3 3 1c18 2 18 2 26 5h-9l-19-2-27-5h-8l-5-1-10-1h-6l-1-2c-1-2-2-3-5-4Z"/><path fill="#2E2E2E" d="m1718 1649 2 1c-4 5-7 9-12 12l-5 6c-11 13-23 27-37 37-4 3-7 7-9 11-3 4-5 6-9 7l-3-1 10-9h2l1-2c1-4 4-6 7-9a325383210 325383210 0 0 1 38-37l10-10 5-6Z"/><path fill="#313332" d="M1384 1172h3c9 0 17 0 25 2v1a153 153 0 0 1-37 2h-13l-1-3c8-2 15-2 23-2Z"/><path fill="#3B3B3B" d="M1246 1937c-6 6-17 7-24 9l-9 2-9 2-4 1h-3l-24 5c-7 3-15 3-23 4h-2l-13 1v-1l28-5 17-4 14-2c8-1 16-2 23-5l12-4c6-1 11-3 17-3Z"/><path fill="#1F1F1F" d="M1970 1085v12a274 274 0 0 0-3 36l-2 9-1 7-4 25-3 1 5-31 1-14 1-3a3496 3496 0 0 0 3-25v-2a1999 1999 0 0 1 2-10l1-5Z"/><path fill="#939493" d="M930 1023h1c-1 11-6 20-13 28l-2 2-4 5h-2c-1-7 1-10 6-15l1-2a619 619 0 0 1 8-11l5-7Z"/><path fill="#222" d="M84 1381c3 2 4 4 5 7l4 7 2 7v5h2l11 22 1 3a1384 1384 0 0 1 14 30l-4-3-2-3-1-4-4-8-10-21-2-3-1-2-1-4-2-1-2-4-1-2-1-6-2-1-1-5a201 201 0 0 0-6-13l1-1Z"/><path fill="#2B2B2B" d="m201 394 3 1-2 3-5 7-5 5-3 5-7 11-11 16-2 2-4 7-1 2-5 8-5 7-2 4-6 7c1-5 4-8 6-13 3-3 4-6 6-10 1-3 4-5 6-7l5-7 1-2 7-13h2v-2l4-7 2-3 2-2h2v-2l1-2 3-1 1-4h2l2-6h2l1-4Z"/><path fill="#393939" d="M1956 842h1l6 43c2-3 1-6 1-10v-7c3 4 2 8 3 13 0 6 0 11 2 17l1 22h-1l-4-27-1 16h-1l-5-40v-4l-2-23Z"/><path fill="#161616" d="M1216 1948h2l-1 2-1-2Zm0 1-8 4-2 1c-4 2-8 2-12 2-6 1-11 1-16 3l-7-1v-2c14-7 30-7 45-7Z"/><path fill="#636463" d="M1577 772h2c7-1 11 1 16 5l1 2h-18l-5-1h-6l-1-5c2-2 8-1 11-1Z"/><path fill="#1B1B1B" d="M1920 663h2l6 19-1 2h2l1 3 1 4 1 3 3 10c3 7 5 15 6 22l1 4 1 3 3 3v7l-2 1-4-16-1-3-2-6v-3l-1-3-3-4-2-8-1-3v-3l-1-6-3-1v-2l-4-15-2-8Z"/><path fill="#303030" d="M39 724h1l-4 19-6 30-1 3v3l-3 9-1 5v2l-1 3-4 19h-1l2-16v-3l2-8 1-3c2-14 5-28 9-41l1-3 5-19Z"/><path fill="#181818" d="m529 114 2 1c-2 3-3 4-6 5a117 117 0 0 0-24 12l-3 2-4 1-1 3-3 1-5 3c-3 4-6 5-10 8l-7 3-4 2v-2l5-3 8-6 6-5 3-1 3-2 3-1a3396 3396 0 0 1 32-18l3-2 2-1Zm-68 41 3 1c-3 3-5 3-9 4l6-5Z"/><path fill="#1D1D1D" d="m1837 485 3 1v2l3 5 6 8 4 9 13 23 1 3 1 2-2 3-2-3a1656 1656 0 0 0-21-39l-2-3-2-3-2-8Z"/><path fill="#222" d="M6 928c2 2 2 2 2 5v6a10148 10148 0 0 1-1 125H6a15386 15386 0 0 1 0-74v-62Z"/><path fill="#3B3B3B" d="M1078 1967v1c-29 4-58 4-86 4h-40v-1h3a21829 21829 0 0 0 62-1h4l6-1h13a426 426 0 0 0 38-2Z"/><path fill="#3D3D3D" d="m362 228 2 1-3 3h-2l-1 2c-1 4-3 5-6 8l-3 2a488 488 0 0 1-18 16l-5 2c1-5 3-6 7-9l3-4 10-8c3-1 4-3 6-5l10-8Z"/><path fill="#303331" d="m1691 885 4 1c2 8 2 17-1 25l-5-4c-3-7 0-15 2-22Z"/><path fill="#2A2A2A" d="m142 1491 2 1 1 6h2l6 9 2 3 4 9h2l1 2c3 7 7 13 12 19l1 2 2 2 2 6h-2v-3h-2l-1-2-3-4-6-8v-3h-2v-3h-2l-2-7-4-1-1-6h-3l-2-9-3-1v-4h-2l-2-8Z"/><path fill="#202020" d="M617 74v2l-7 2v2l-6 2-3 2a315 315 0 0 1-13 5 304 304 0 0 1-25 13h-6c3-3 6-4 10-5v-2c7-3 7-3 11-3v-2h3c3-1 5-1 7-3l2-3c3-3 8-3 13-3v-2l6-2 3-2 5-1Z"/><path fill="#3B3B3B" d="M84 600v6l-1 2-5 12-1 3-5 15 5-4-7 21v-11h-2v2l-2 7-1 3-3 3c1-8 4-14 7-21l6-15 6-16 1-2 2-5Z"/><path fill="#2F2F2F" d="m1676 284 9 7 3 3 11 11c7 8 14 15 23 21l-1 4-4-2v-2l-3-1v-2l-3-1-3-4-8-7-9-10-5-4-4-4v-3l-2-1c-2-1-3-2-4-5Z"/><path fill="#4C4C4C" d="m1708 1655 1 3-3 2-6 7-11 11-2 2a3158 3158 0 0 1-14 14l-2 2-10 9-2-1 2-2 7-7 3-3 10-10 8-8 11-11 2-2 6-6Z"/><path fill="#2B2B2B" d="m1859 528 6 9 4 3 2 6 1 3c2 2 3 5 3 7 3 9 3 9 7 15 4 4 7 12 8 17l-1 4v-2h-2v-7h-2c-3-4-3-6-3-11l-3 1-1-3c-4-12-10-24-17-34l-2-8Z"/><path fill="#3E3E3E" d="M891 11v1l-36 5-24 4-21 2c3-3 6-3 10-3l3-1a1195 1195 0 0 1 43-5v-2c9-2 16-2 25-1Z"/><path fill="#292929" d="M1931 1273h1c0 7-2 13-4 20l-1 2a3221 3221 0 0 1-6 19l-1 3-5 11-2 5-1 3-1 2a576 576 0 0 0 20-65Z"/><path fill="#333" d="m1824 466 6 8c2 6 6 11 9 16l14 25 2 3v3h-2v-2l-3-1v-3l-5-7-2-5-2-2-2-5-2-2v-4l-3-1-2-5c-1-3-1-3-4-5v-4l-3-1-1-8Z"/><path fill="#272727" d="m1170 1957-8 3h-3l-2 1h-3l-48 7 4-3 11-2 2-1a1295 1295 0 0 1 35-4l12-1Z"/><path fill="#484C4A" d="m1201 1430 9 2v4c-9 0-17 0-25-4l-2-1v-2c6-2 12-1 18 1Z"/><path fill="#2F2F2F" d="m1523 161 2 1 9 6 3 2 4 2 3 2 10 5v2l4 1v3l4 1v2h3v2h2v2l3 1v2l-7-4c-4-5-10-7-15-9v-2l-2-1-7-4-3-3-3-2-3-2-8-5 1-2Z"/><path fill="#202020" d="m1253 38 2 1 11 2 15 4a125 125 0 0 0 10 3l1 2 4 2h3l3 1 3 1 7 2v1c-11-1-22-4-33-9l-14-4h-4l-3-1-6-4 1-1Z"/><path fill="#333" d="m615 79-12 7h-2l-9 4-7 4-8 3-9 4h-6a407 407 0 0 1 44-20l3-1 2-1h4Zm-55 23 2 1-4 1 2-2Z"/><path fill="#313131" d="m403 1780 7 4 6 4c5 2 7 4 10 7l5 2 1 3 4 2 18 12-2 2-2-1-7-5-2-1-11-7-7-6-3-1-7-6-3-1-3-3-2-1v-2h-2v-2Z"/><path fill="#2D2D2D" d="M450 1814c11 4 11 4 12 7l5 1h2v3l5 1v2h3l6 3 1 2 4 2-2 2-7-1v-3h-2c-4 0-5-1-8-3l-1-5h-7l-1-5-10-2v-4Z"/><path fill="#1C1C1C" d="M1721 327c6 2 10 10 14 15a282 282 0 0 0 8 9l2 1 1 4 2 1 5 5 2 2 1 4 2 1-1 3-3-6-3-1-1-2-3-4c-3-1-4-3-6-5l-2-3-1-4-2-1c-3-1-3-3-5-6l-7-7c-2-2-3-3-3-6Z"/><path fill="#3C3C3C" d="M1882 1397h2a233 233 0 0 1-19 44l-1 2-5 6c0-5 1-8 4-12l4-8 5-9 7-16 3-7Z"/><path fill="#949594" d="M876 1098h1c1 5-1 8-4 12l-5 5h-2l-1 3-5 4-2 2-4 1 4-8h3l1-2 4-5 8-10 2-2Z"/><path fill="#171717" d="m1106 1967-1 3h-4l-3 1-5 2h-22l-5-2c2-2 5-1 8-2h2a2098 2098 0 0 1 18-2l7-1 5 1Zm-19 4v1h5v-1h-5Z"/><path fill="#3C3C3C" d="M31 1211c2 2 3 4 3 8l1 3 1 4 5 20 5 16v3l5 19-3-4-1-5-5-11-1-5-1-5-1-4-5-20-3-19Z"/><path fill="#474747" d="M85 606c2 4 0 7-1 11l-1 4-3 4-2 5c-1 4-3 6-6 9-1-4-1-4 1-7l1-3 1-3 1-2a1016 1016 0 0 1 9-18Z"/><path fill="#242424" d="M623 1903c7 0 13 3 20 6v3l11 2v2h3l5 2-1 3-1-2-3 1-1-2h-4l-1-2-7-1-3-1v-2l-3 1-5-2v-2l-3 1-5-4v-2l-2-1Z"/><path fill="#3C3C3C" d="m310 276 2 1-2 1v-2Zm-3 3 2 1-2 2a2098 2098 0 0 0-26 27l-2 2-5 4h-2l-1 2-4 6-6 7-2 2h-2v2l-2-1c1-3 3-5 6-7a57 57 0 0 0 11-13h2v-2l3-3 18-17 4-3 8-9Z"/><path fill="#3A3A3A" d="M689 1926c9 0 16 2 24 5l2 1 12 4c6 3 13 4 20 5l-1 2-16-3-3-1-13-4-8-2-2-1c-3-2-7-2-11-3l-3-1-1-2Z"/><path fill="#1D1D1D" d="m407 1785 3 1v2h2l5 3v2l3 1 7 4v2l2 1c4 1 8 4 11 6l2 1 2 2 2 1 4 4-3 1v-3l-3 1v-3l-3 1v-3l-3 1v-3l-3 1-7-4-2-2-4-3v-2h-2l-7-4-3-2c-2-2-3-3-3-6Z"/><path fill="#2A2A2A" d="M1903 625h2l1 2c2 6 3 11 7 16l4 12 4 9 2 11 2 4 1 8-4-11-1-2a345 345 0 0 1-11-31l-1-4-3-1v-6h-2l-1-7Z"/><path fill="#1F1F1F" d="M9 1116h2l1 5v4l2 6v6l2 9 3 11v2l1 14-1-3h-2l-1-4v-3l1-4h-2v-12h-2l-2-3 1-4-1-8v-3l-2-13Z"/><path fill="#2C2C2C" d="m1312 1919-8 4-3 1-6 1v2l-5 1-3 1-5 1-5 3-6 1-11 2-8 1c7-4 15-6 22-8 4 0 7-2 11-3l4-1 16-5 7-1Z"/><path fill="#3D3D3D" d="M1941 742h1l4 20 1 4a1639 1639 0 0 1-1 5h-1l1 13-4-9v-3l-1-8 1 2h2l-1-6v-3l-2-5v-10Z"/><path fill="#464A48" d="M1099 1048c3 0 5 1 7 3 4 6 7 10 7 17-7-2-9-7-12-13l-2-3v-4Z"/><path fill="#111" d="M12 828c2 4 2 7 1 11l-3 24H8v3l-3 30H4a183 183 0 0 1 4-43v-6l1-2 3-17Z"/><path fill="#1B1B1B" d="m155 1519 4 1c2 3 2 4 2 7h2v3h2a1273 1273 0 0 1 6 12l3 1 1 4h2v3l2 1c3 1 4 2 6 5v3h2l-1 2-2-1v-3h-2l-1 2c-3-4-3-4-3-7h-2v-3h-2l-4-5-2-3-1-2-3-5-3-3-2-3-1-6h-2l-1-3Z"/><path fill="#CBCFCD" d="M875 1038v6c-3 4-5 5-9 6l-2 4-6 2 5-8h2v-2c2-5 5-8 10-8Z"/><path fill="#242424" d="m256 329 1 2-10 12-2 2-1 2h-2v2h-2l-1 2-6 8-2 2-3 4c0-6 5-13 8-17l7-5c3-2 5-4 7-8l5-5 1-1Z"/><path fill="#4C4C4C" d="M42 730h1l-4 21-1 4v3l-1 3-4 6h-1l4-20 1-3v-4l1-2 4-8Z"/><path fill="#333" d="m1365 79 18 7 6 2 3 3 5 2h3l2 1v2h2a48 48 0 0 1 11 4l2 1v2h2l5 3c-7-1-7-1-10-3v-2h-2l-3-1h-3l-3-1-2-4-5-1-3-1h-2l-1-3h-6l-1-3h-6l-1-3h-6l-1-3h-4v-2Z"/><path fill="#323232" d="M892 1968a455 455 0 0 1 59 3l-4 2h-12l-43-4v-1Z"/><path fill="#2B2B2B" d="M1817 1520v5l-1 2-5 8-10 13-7 11-1 2h-2v2l-3 1c1-4 4-7 7-11l3-6h2l1-2 6-9 10-16Z"/><path fill="#1C1C1C" d="m347 239 2 1-2 1-13 12-5 5-3 4-2 1-10 8-2-1c10-11 22-24 35-31Z"/><path fill="#444" d="m432 179 2 1Zm-3 2 2 1c-4 7-9 13-17 16h-2c0-4 1-5 4-8 8-7 8-7 13-9Z"/><path fill="#474747" d="M24 809h1l-1 18h-2l-1 11-3 1c-1-7 0-13 2-20v-2l4-8Z"/><path fill="#222" d="m1363 77 6 1h3l5 2v2l7 1v2l3 1 10 4 12 6 4 3-11-3v-2l-10-2-1-3h-2l-11-5-11-4-4-3Z"/><path fill="#939493" d="M848 1433h11v5c-3 2-5 2-8 2h-3l-6-1c1-4 2-6 6-6Z"/><path fill="#161616" d="M1958 1175h1l-2 19v2l-3 15-2 1-1 5-1 2v2h-2l3-18c2-5 3-9 3-14l4-14Z"/><path fill="#393939" d="M1256 42h4l3 1 6 2 4 1 10 3a527 527 0 0 0 12 5c-6 0-10 0-15-2l-11-3-13-6v-1Z"/><path fill="#343434" d="m1201 27 13 3 4 1h4l3 1 6 3 5 1h3l5 1 3 1h3l5 4-24-5-9-2-12-4-9-2v-2Z"/><path fill="#272727" d="M1170 1949h4l-9 3a717 717 0 0 0-41 7h-3l-16 1 1-2 7-1 20-2 3-1a3678 3678 0 0 0 20-3l8-2h6Z"/><path fill="#3F3F3F" d="M643 1910c12 1 23 6 34 10v2c-4 1-6 0-10-2h-5v-2l-8-2v-2h-4l-7-2v-2Z"/><path fill="#1B1B1B" d="M1477 1846c-1 3-2 4-5 5l-2 2-3 1a280538171 280538171 0 0 1-20 11c-3 2-4 2-8 2v2l-6 3-2-1 14-9 4-2 7-4c6-2 15-10 21-10Z"/><path fill="#272727" d="m397 203-3 3h-2v2l-4 3-2 1-4 1-1 3-5 4-2 2-9 6c2-4 3-6 7-8l1-3c2-4 5-4 9-6l5-4h2l1-3c4-2 4-2 7-1Z"/><path fill="#131313" d="M937 1973h3c4 1 9 1 13 3v1l-36-1v-2c7-2 13-2 20-1Z"/><path fill="#262626" d="m524 1857 10 4 2 1 2 1v2l3 1 7 3 12 5v2l7 2-3 3-3-1v-3h-2c-5-1-10-4-14-6l-3-2-3-1-3-2-6-5-6-3v-1Z"/><path fill="#1E1E1E" d="M16 822h1a427 427 0 0 1-4 33v3l-3 5v-18l1-3c0-4 1-7 3-11l1-5 1-2v-2Z"/><path fill="#5F605F" d="m979 182-1 5c-6 2-12 2-18 2 1-4 2-4 6-6l13-1Z"/><path fill="#C6CAC8" d="M1078 1448h12l1 4c-5 5-5 5-11 6l-2-10Z"/><path fill="#484A48" d="m998 891 35 1c-4 4-8 3-13 3-18 0-18 0-22-4Z"/><path fill="#242424" d="m664 1919 8 2c4 2 9 2 13 3l8 4a95 95 0 0 0 12 3v3c-12-1-12-1-16-4l-7-4h-2l-8-1v-2l-3 1-1-2-4-2v-1Z"/><path fill="#282828" d="M1209 1949c-3 3-4 3-8 3l-3 1-27 5v-2c11-5 26-7 38-7Z"/><path fill="#2D2D2D" d="M1858 1449v6l-1 3-1 2-3 4-1 3-3 4-3 5-8 13-1-3 3-4a137 137 0 0 0 13-23l5-10Z"/><path fill="#333" d="m97 1407 4 1 1 4 7 16 2 3a546 546 0 0 0 10 21l-1 2a196 196 0 0 1-14-27l-2-3-6-13-1-4Z"/><path fill="#303030" d="M13 1115h1a20908 20908 0 0 1 4 28l2 11 1 5 1 9v8c-2-4-3-7-3-11l-1-3a1316 1316 0 0 1-2-13l-3-30v-4Z"/><path fill="#272727" d="m1252 1937-4 2v2l-12 3-9 2-8 2-2 1-7 1v-2l3-1a284 284 0 0 0 27-8l3-1 9-1Z"/><path fill="#464646" d="m1913 1322-2 10-1 3-3 4-1 3-1 2-3 1c2-13 2-13 5-18l1-2c1-3 2-3 5-3Z"/><path fill="#1C1C1C" d="m1328 1916-15 6a891 891 0 0 0-10 4l-4 1h-6 2v-2l7-2 2-1 8-2v-2c6-2 10-2 16-2Z"/><path fill="#4B4B4B" d="M1938 1235h1c0 9-3 17-6 26h-3a93 93 0 0 1 4-18l4-8Z"/><path fill="#1C1C1C" d="m453 160 2 1-10 7-8 5-5 1v3l-4 3-2 1-2 1-2-1 3-1v-3l3-2 2-2 2-1 2-2c5-3 5-3 10-3v-2h3v-2l6-1v-2Z"/><path fill="#2E2E2E" d="m210 1592 5 3v2h2l2 5h2c3 4 3 4 3 7l3 1v3h3l1 5c-4-2-5-3-7-7l-3-2v-2l-3-1-1-4-3-1-2-6h-2v-3Z"/><path fill="#272727" d="m1969 898 2 1 1 8v2l2 30c-3-3-2-4-3-7l-1-8-1-26Z"/><path fill="#2F2F2F" d="m1643 253 4 1v2l1 2 5 2 2 4h2c3 1 5 4 7 7l12 11-1 2-7-6-3-2-2-2-2-1-2-5-3-1v-2l-3-1v-2l-2-1-6-4v-2h-2v-2Z"/><path fill="#313131" d="M785 31h9v1c-39 9-39 9-54 11l6-3 3-1h2l3-1 8-2 2-1 21-2v-2Z"/><path fill="#2D2D2D" d="m1594 1765-1 3h-2v2l-5 3c2-4 4-8 8-8Zm-11 8 3 1-2 1-2 2-3 1-4 6-6 3-1 2h-5c4-5 9-8 14-12l2-1 4-3Z"/><path fill="#1F1F1F" d="M1973 1046h1v24l-2 9-1 5-2-1v-2a37936 37936 0 0 0 1-12l1-13 1-3v-3l1-4Z"/><path fill="#2A2A2A" d="m225 365 2 1-2 3-3 3-1 2-8 10-1 2-3 3-5 5 2-7 3-1 2-5h2v-2l6-8h2v-2l4-4Z"/><path fill="#1D1D1D" d="M1565 1789v3h-3l-1 2c-1 3-3 4-6 5h-3l-1 3-4 3-3 2h-5l3-1v-2l2-1 3-1 1-3 5-3c3-2 8-7 12-7Z"/><path fill="#4C4C4C" d="m1945 1205 2 1c-1 9-3 17-6 25h-2v-6l1-4 1-7h2v-4l2-5Z"/><path fill="#383838" d="M47 701h1l-3 16-1 3-2 7-1 4-2 7h-1l2-16v-3l3-9h2l2-9Z"/><path fill="#1C1C1C" d="M326 1719h4v2h2l3 4 1 2h3l3 6-3 1-6-5-2-2c-3-2-4-4-5-8Z"/><path fill="#2E2E2E" d="m1768 1589 1 3-3 5-1 2-4 4-2 5c-2 3-2 3-5 4l-2 1-2 3h-2l6-10h2l1-2 8-11 3-4Z"/><path fill="#333" d="m505 132 2 1c-6 4-11 7-18 9l-4 4-4 2-2 1-5 1v2l-6 3-2-1 15-9 7-5 8-2v-2l4-2 3-1 2-1Z"/><path fill="#252525" d="m1414 98 3 2 28 13v2l-3-1-8-2v-2l-10-3v-2l-7-2v-2l-4-2 1-1Z"/><path fill="#131313" d="m761 1950 10 1h6l3 1 6 2v2l4 1-17-2h-2l-3-1h-2l-5-4Z"/><path fill="#262626" d="M10 864h1v11l-1 8c0 8-2 16-3 23H6l2-32v-2l2-8Z"/><path fill="#2F2F2F" d="m310 276-4 6c-7 5-12 11-18 17a12340 12340 0 0 1-12 12l1-5 2-1 2-2 2-2 2-2a1334 1334 0 0 1 16-16l2-2 2-2 2-2 3-1Z"/><path fill="#303030" d="m449 165 2 1-3 1-1 3-5 2c-7 3-13 8-18 13l-5 1v-2l5-4 3-2 5-1v-3l2-1 12-6 3-2Z"/><path fill="#3B3B3B" d="m101 564-2 8-3 9-6 10-1-2 2-5 5-11 5-9Zm-5 17h3l-3 10-1-9 1-1Z"/><path fill="#222" d="m1521 159 5 1v2h3v2h3v2h3v2h3v2h3v2h3c4 1 6 3 10 6l-4 1-8-4-2-2a718 718 0 0 1-15-10l-4-2v-2Z"/><path fill="#333" d="M1104 1966v1a24352 24352 0 0 1-31 3l-3 1h-3l-5-2 42-3Z"/><path fill="#292929" d="m1392 1886 1 2-5 2-2 2-6 2-10 5-5 1v-3l2-1 13-5 5-1v-2l7-2Z"/><path fill="#111" d="M1609 1758v3a85 85 0 0 1-10 8l-2 1-6 5-1 1-4 3-4 3-3-1 2-1 2-2 2-1 3-5 5-3 16-11Z"/><path fill="#2D2D2D" d="M1786 1564h2c-3 8-7 16-14 22h-2v2l-3 1 5-8 1-2 2-2 8-11 1-2Z"/><path fill="#3D3D3D" d="M61 659a1735 1735 0 0 0-3 15v2l-4 13c-1 3-1 3-4 5 1-7 3-14 6-20l1-4 4-11Z"/><path fill="#232323" d="M1796 425h2v2l5 1-1 3 3 1-1 2 3 1-1 2 3 1v6l-5-6-3-1-3-5-1-3-1-4Z"/><path fill="#1B1B1B" d="m746 1944 4 1a254845311 254845311 0 0 0 24 5l7 1v2h-2l-7-1h-3l-3-1h-2l-4 1-4-2-12-4 2-2Z"/><path fill="#3C3C3C" d="M1961 1141c2 3 2 4 2 7l-1 3c-2 5-3 9-3 14h-2v2l-2 13h-1c0-7-1-15 3-22l3-10v-2l1-5Z"/><path fill="#1A1A1A" d="M617 74v2l-7 2v2c-7 3-13 6-20 7l-1-2 6-4h8v-2l6-2 3-2 5-1Z"/><path fill="#191919" d="M56 660h1l-4 19-2 6-1 2-2 7c-1 3-1 3-4 5l8-26 1-4 3-9Z"/><path fill="#4A4A4A" d="M1905 632h1a1625 1625 0 0 1 4 20l-2 1-1-2-1-3-1-3-2-3v-4l1-3 1-3Z"/><path fill="#242424" d="M20 1173c5 8 6 18 7 28l1 7c-3-3-3-7-4-12l-1-5-2-1 1-2a146 146 0 0 0-3-14l1-1Z"/><path fill="#191919" d="M1866 1440h2l-6 13h-2v3l-5 10-1 2-3 5c-1-4 0-6 2-10l3-4 2-5 5-8 3-6Z"/><path fill="#CACECC" d="m882 1023 2 1c0 8 0 8-3 12l-4 1c-1-7-1-7 1-10l4-4Z"/><path fill="#252525" d="m484 141 2 1-12 8-5 3-5 2v-2l11-7 3-2 6-3Zm-23 14 3 1c-3 3-5 3-9 4l6-5Z"/><path fill="#1E1E1E" d="M928 1971c23 1 23 1 31 3l1 2-5 2-3-1h-2l-3-2-4-1h-8l-7-1v-2Z"/><path fill="#2A2C2C" d="M662 764h16c-2 3-3 3-7 3h-7l-11-1c3-2 5-2 9-2Z"/><path fill="#2F2F2F" d="m1616 1746 3 1c-1 3-3 3-6 5l-1 2-7 3v2l-8 6-3-1a30362 30362 0 0 1 20-17l2-1Z"/><path fill="#303030" d="m1643 1723 2 1-3 3h-2l-1 3-4 3-8 7c-2 3-4 4-8 6l7-9 3-3c8-6 8-6 10-6v-2l4-3Z"/><path fill="#191919" d="m1446 114 10 4h3l4 4 4 2v2h2l7 4-4-1h-3l-2-1-1-3-4-1-2-1h-2v-3h-2l-11-4 1-2Z"/><path fill="#2A2A2A" d="m1836 1489 1 4-4 6c-3 5-5 8-6 13h-3l-2 4-1-2 2-2a164 164 0 0 0 10-18l3-5Z"/><path fill="#212121" d="m1097 1968-14 3-7 2c-6 0-6 0-10-2 3-3 9-2 13-2a1006 1006 0 0 0 10-1l3-1 5 1Z"/><path fill="#282828" d="M1096 1960c-10 6-26 4-37 4v-1a4510 4510 0 0 1 37-3Z"/><path fill="#3B3B3B" d="M538 1864c6-1 11 2 16 5l3 1 6 4c-4 1-7 0-11-2l-2-1-12-6v-1Z"/><path fill="#1C1C1C" d="m1824 1512 3 1-6 8-4 8-3 3h-2c3-7 7-14 12-20Z"/><path fill="#202020" d="M1904 623c3 1 4 2 5 5l1 3 1 2v5h2l2 6h-3c-4-7-6-13-8-21Z"/><path fill="#3C3C3C" d="m194 408-2 7-2 2-2 3a10937 10937 0 0 0-13 19l-2-1 12-17 5-8 4-5Z"/><path fill="#2C2C2C" d="m347 241 1 2h-2v2c-5 5-5 5-8 5l-1 3c-4 4-4 4-7 4l-2 5h-2c1-5 3-6 7-9l3-4 11-8Z"/><path fill="#191919" d="M29 1222c3 3 4 5 4 9l3 7 2 6 1 4-1 6-2-1v-5l-3-7-2-7-1-2-1-10Z"/><path fill="#282828" d="M746 1936h4l3 1 4 1c3 2 7 2 10 3h5l2 1 7 1v1l-19-2-3-1-13-4v-1Z"/><path fill="#343434" d="M1572 196c4 1 7 3 11 6l3 2 2 2v2h2l4 5-6-2v-2h-2v-2l-4-1v-2l-4-1v-2l-4-1v-2h-2v-2Z"/><path fill="#111" d="M890 1970v2h2l24 2v1l-32-2v-2l6-1Z"/><path fill="#1D1D1D" d="m1605 1757 2 1c-2 4-5 7-8 9l-3 2c-3 2-5 3-8 3l1-2h2v-2c2-3 6-4 9-6h2l1-3h2v-2Z"/><path fill="#2F2F2F" d="M1873 1421v5l-1 2-1 3-2 2-1 3-8 13v-6l6-8 2-6h2l1-3 2-5Z"/><path fill="#191919" d="M9 1116h2l3 20 1 4-1 6-3-2 1-2-1-10v-3l-2-13Z"/><path fill="#393939" d="m128 509 1 3-1 2c-3 3-4 7-5 11h-2v3l-2 5h-2v2l-1 2-3 1 2-6 3-1 1-5c2-6 5-12 9-17Z"/><path fill="#252525" d="m124 513 1 2a126 126 0 0 1-4 10l-6 9-3 5-1-2 3-6 1-2 9-16Z"/><path fill="#191919" d="m209 1596 4 1 2 4 3 3 2 3 4 3c3 3 3 6 4 9l-11-11-1-2-7-10Z"/><path fill="#2A2A2A" d="m1890 592 3 1 2 5 6 14v6c-2-2-2-4-3-7h-2l-2-12h-2l-2-7Z"/><path fill="#474747" d="M1897 1359c1 4 1 6-1 9l-1 3-1 2-3-1c0-8 0-8 4-12l2-1Z"/><path fill="#1C1C1C" d="m373 220-2 1c-3 1-4 2-5 5-2 3-5 4-8 6l-2-1 8-9 2-2h7Z"/><path fill="#2C2C2C" d="m1336 1909 1 2c-6 4-12 6-20 7l-4-1 9-2v-2l14-4Z"/><path fill="#1D1D1D" d="m313 1707 5 2 3 2c2 1 4 2 5 5l-1 3-6-3-1-3-3-1v-2h-2v-3Z"/><path fill="#3C3C3C" d="M1295 1923c-2 3-4 3-7 4l-7 2-9 2-3 1h-2l12-6 4-1 4-1 8-1Z"/><path fill="#191919" d="m155 1519 4 1c2 3 2 4 2 7h2v3h2a671 671 0 0 1 6 13 52 52 0 0 1-10-13c-3-5-3-5-3-8h-2l-1-3Z"/><path fill="#3D3D3D" d="m1593 1763 2 1-2 1-2 2-2 2-3 4-4 2-9 6-2-1 22-17Z"/><path fill="#212121" d="m1657 1712 2 1-9 10-5-1c8-8 8-8 12-10Z"/><path fill="#3D3D3D" d="M1960 837c5 9 4 21 4 31h-1c-4-22-4-22-3-31Z"/><path fill="#353535" d="M1809 444c4 4 7 8 9 13 1 3 2 5 5 7l-2 2v-3h-2l-3-3-1-2c-1-4-1-4-4-6l-1-4-1-2v-2Z"/><path fill="#1C1C1C" d="M782 1952c13 1 13 1 17 5l-7 1h-4l-1-2c-1-2-2-3-5-4Z"/><path fill="#282828" d="m746 1942 21 6v2l-9-2h-2l-3-1h-2l-5-3v-2Z"/><path fill="#1F1F1F" d="m642 1911 12 3v2h3l5 2-1 3-1-2-3 1-1-2h-4l-1-2-7-1-3-1 1-3Z"/><path fill="#474747" d="m1524 1808 2 1-2 1v-2Zm-1 2 2 2-4 3-2 2-6 2 2-4 1-2 4-3h3Z"/><path fill="#222" d="m1558 182 10 6v3l4 1v2h3l1 3c-7-2-7-2-9-5v-2h-2v-2h-3v-2l-4-1v-3Z"/><path fill="#1A1A1A" d="m1431 1873-4 2-2 1-6 1v2l-4 2-3 1-2 1-2-1 5-3 3-2c5-3 10-6 15-4Z"/><path fill="#4D4D4D" d="M1957 1142h2l-1 7v2l-2 9h-2v-6l1-4 2-8Z"/><path fill="#4A4C49" d="M1329 772c3 0 4 0 6 3l-19 1-3-1h-6v-1h9l3-1h4l6-1Z"/><path fill="#1E1E1E" d="M75 611h2c0 7-3 13-6 19h-3v-2h2v-5h2v-5h2l1-7Z"/><path fill="#2C2C2C" d="m256 329 1 2-10 12-2 2-1 2h-2v2l-2-1 8-10a482 482 0 0 0 8-9Z"/><path fill="#4D4D4D" d="M22 820h1v6l-1 4-1 8-3 1c0-7 1-12 3-18l1-1Z"/><path fill="#272A28" d="M1571 772h3l1 4c-2 2-2 2-5 2h-3l-1-5 5-1Z"/><path fill="#282828" d="M49 690v8l-1 2v2l-1 3-2 5-4-1 1-1 3-9 4-9Z"/><path fill="#3A3A3A" d="m639 71-15 7-3 1h-7c21-10 21-10 25-8Z"/><path fill="#2C2C2C" d="M1736 1629c0 5-4 9-7 13l-3 2-3 3-2 2c0-4 1-5 4-8l3-2 2-3 6-7Z"/><path fill="#313131" d="m198 1576 4 2v2h2v2l1 2 2 1 2 1 1 6-4-3-1-2-2-1-1-3-2-1-2-6Z"/><path fill="#1B1B1B" d="M484 1836h5l4 5c2 2 4 2 7 3l-1 3-2-1-3-2-3-1-7-4v-3Z"/><path fill="#353535" d="m187 1561 4 2v2l2 1c3 1 3 3 4 6v2l1 2-3-1-1-3-2-1v-2h-2l-1-5h-2v-3Z"/><path fill="#212121" d="M1125 11h4v2l6 1v1h-9l-2-1h-5l-4-1v-2h10Z"/><path fill="#232323" d="m1360 1900 4 1c-6 5-14 8-22 8l2-1 6-4h5v-2h5v-2Z"/><path fill="#313131" d="m1546 1799 2 1c-3 4-7 6-11 9l-2 1-5 3-2-1 6-5 4-4 7-3 1-1Z"/><path fill="#333" d="M542 114c-4 3-8 4-13 6l-5 3-2 1-2-1c16-11 16-11 22-9Zm678 1831c-8 4-18 6-27 6l7-3 2-1h3l2-1 13-1Z"/><path fill="#2E2E2E" d="m721 1936 10 2 16 3-1 2-17-4h-2l-6-2v-1Z"/><path fill="#353535" d="M1153 19c22 1 22 1 27 6h-3l-8-1-4-1h-3l-9-3v-1Z"/><path fill="#282828" d="m1437 1865 2 1-12 7-3-1h2v-2l2-1 2-1 3-1 4-2Zm-15 8 2 1-4 2-1-2 3-1Z"/><path fill="#2F2F2F" d="M78 611c1 4 0 6-1 10l-1 2-6 13h-1c0-4 0-6 2-10l7-15Z"/><path fill="#181818" d="M1135 1963v3h-3l-6 3h-5l-3-1h-2l1-2 6-1 3-1h3l6-1Zm-14 4 4 1Z"/><path fill="#2B2B2B" d="M490 1838c5 1 9 3 13 6v2l6 1-2 2-7-3v-2l-7-2v-2l-3-1v-1Z"/><path fill="#2C2C2C" d="M131 1473h2l2 7h2l3 4 1 3 1 4h-2c-3-3-4-4-4-9h-2l-3-9Z"/><path fill="#2A2A2A" d="M1883 1399c1 4 0 7-2 11l-1 2c-1 4-2 6-5 9 2-8 4-15 8-22Z"/><path fill="#3B3B3B" d="m1322 1915-2 1a275 275 0 0 0-18 6h-7l9-3 3-1 2-1 3-1c4-2 6-2 10-1Z"/><path fill="#191919" d="m1768 1592 1 4-3 2-3 5-6 7 4-9h2l1-2 4-7Z"/><path fill="#292929" d="m1891 1381 2 4-5 10-2 2-1 2-1-2 3-8 1-2 3-6Z"/><path fill="#4B4B4B" d="m42 1242 2 1 1 5 1 3-1 4-3-1-1-5v-3l1-4Z"/><path fill="#303030" d="M654 1914a123 123 0 0 1 11 3l3 1 2 1 7 2-3 2-7-3h-5v-2l-8-2v-2Z"/><path fill="#212121" d="M20 800h1l-3 21-2-1v-5l1-3 3-12Zm1611-559 6 2 2 4 6 3-1 4-1-3h-2l-6-4v-3l-4-1v-2Z"/><path fill="#2B2B2B" d="m1320 69 11 2 10 4c3 1 3 1 5 4-9-2-17-6-26-9v-1Z"/><path fill="#393939" d="m509 1847 4 1 3 1 4 2 1 4c-5-1-8-2-12-6v-2Z"/><path fill="#3A3A3A" d="M1712 323h2l2 2 5 5 2 1v4h2v2c-3-1-4-2-6-5l-6-6-1-3Z"/><path fill="#262626" d="M881 1967c6 0 12 0 18 2l1 2h-7l-3-1-9-1v-2Z"/><path fill="#252525" d="M707 1933c7 0 13 2 20 5l-1 2-9-2-3-1-2-1h-2l-3-3Zm-257-119c11 5 11 5 14 8l2 1v2h-5l-1-5-10-2v-4Z"/><path fill="#2D2D2D" d="m242 1631 4 2v2h2l1 3c2 3 3 3 6 5l1 4c-6-4-12-9-14-16ZM362 228l2 1-3 3h-2l-1 3h-2v2h-3v2l-5 2c1-4 3-5 7-7l4-4 3-2Z"/><path fill="#242424" d="m453 160 2 1-10 7-6 4-2-1 4-2v-2h3v-2h3v-2l6-1v-2Z"/><path fill="#343434" d="M891 11v1l-17 1h-8v-1c9-2 16-2 25-1Z"/><path fill="#1D1D1D" d="m1752 1612 1 4-3 4-1 2-6 2c1-3 3-6 6-8l2-2 1-2Z"/><path fill="#343434" d="M122 1456c3 1 4 2 6 5l1 3 1 3v5c-3-3-4-6-6-10l-2-3v-3Z"/><path fill="#4B4B4B" d="M50 702h1v7l-5 5v-5l1-2 1-2 2-3Zm27-74v6l-5 5v-7c3-4 3-4 5-4Z"/><path fill="#292929" d="M100 559v8l-1 3-4 4c0-6 2-10 5-15Zm-6 15 1 4-2 2 1-6Z"/><path fill="#1D1D1D" d="M1576 197c5 0 8 2 11 5l1 4-8-5-2-2-2-1v-1Z"/><path fill="#323232" d="M475 1828c7 2 7 2 9 5l4 2-2 2-4-1-1-2-1-3-5-1v-2Z"/><path fill="#303030" d="m1784 408 2 1v2h2a124 124 0 0 1 8 12l-1 2-3-1-2-6-2-1-2-3-1-2-1-4ZM325 262c-1 3-2 4-5 6h-2l-1 2-5 6c0-5 3-7 6-10l7-4Z"/><path fill="#252525" d="m1475 132 8 2v2l3 1 4 1 1 3c-4 0-6-1-9-4h-2c-3-1-4-3-5-5Z"/><path fill="#1B1B1B" d="m385 1770 8 3v2h2v2h2l-1 3-5-4-4-2-2-2v-2Z"/><path fill="#222" d="m124 1462 6 9 2 3-1 4-2-6-3-1-1-5-1-2v-2Z"/><path fill="#252525" d="m1714 321 7 4 1 5-5-2v-2l-3-1v-4Z"/><path fill="#4A4A4A" d="M649 70c-3 3-4 4-9 4h-3c4-4 6-6 12-4Z"/><path fill="#212121" d="M880 9v2l-16 2c1-3 4-3 7-4h9Z"/><path fill="#252525" d="M1576 1781c-1 3-1 3-4 5l-3 1-1 2h-5l4-5 4 1v-2l5-2Z"/><path fill="#1C1C1C" d="m1587 1772 1 3-4 3-2 2-4 1-2-1 10-7 1-1Z"/><path fill="#2C2C2C" d="m740 43-10 4-4 1h-7l2-1h3a429794012 429794012 0 0 1 16-4Z"/><path fill="#383838" d="m1526 1811 3 1-8 4-1 3-3 2-3-1 5-4 3-2 4-3Z"/><path fill="#3A3A3A" d="M178 1546h2v3h2v2h2c2 3 3 4 3 8h-2l-1-3-4-5-2-2v-3Z"/><path fill="#1A1A1A" d="M1914 646h2l5 15-2 2-5-17Z"/><path fill="#181818" d="M115 526v5l-1 2-3 6c0 2 0 2-2 3l-2 1 8-17Z"/><path fill="#1F1F1F" d="M1180 21h7v2l7 1v1l-15-2 1-2Z"/><path fill="#1D1D1D" d="m1337 1909 4 1c-2 3-3 4-6 5l-2 1-5-1c6-4 6-4 9-4v-2Zm-993-174 6 4v2l4 1v3l-9-7-1-3Z"/><path fill="#212121" d="M77 1366h2a819 819 0 0 1 5 15c-4-3-6-5-6-10l-1-3v-2Z"/><path fill="#2F2F2F" d="M1961 1141c2 3 2 4 2 7l-1 3c-2 5-3 9-3 14h-1l3-24Z"/><path fill="#1F1F1F" d="M1899 608h2c2 5 3 9 3 14l-3-1v-4l-1-3-2-5 1-1Z"/><path fill="#343434" d="m1631 243 4 1v3l3 1v2l5 1v2c-4-1-7-2-10-5v-3h-2v-2Z"/><path fill="#292929" d="M1624 235c4 1 5 2 7 5v3h-2v-2l-5-2v-4Z"/><path fill="#494949" d="m418 189 2 1c-4 7-4 7-8 8 0-4 1-5 4-8l2-1Z"/><path fill="#393939" d="m505 132 2 1c-10 7-10 7-16 8v-2l5-1v-2l4-2 3-1 2-1Z"/><path fill="#191919" d="m1293 1928-7 4-3 1-6-1c5-4 10-4 16-4Z"/><path fill="#1A1A1A" d="m566 1879 12 7-2 1-6-2-3-2-2-1 1-3Z"/><path fill="#464B49" d="m1635 1482 1 2-3 4-2 3-5 4 7-12 2-1Z"/><path fill="#232323" d="m109 541 1 2c-1 4-3 7-6 10 0-5 2-8 5-12Zm-6 12 1 2-2-1 1-1Z"/><path fill="#3D3D3D" d="m150 474 1 2-3 6-2 3-2 3h-2l5-10 2-2 1-2Z"/><path fill="#313131" d="M1796 425h2l4 5 2 3 1 3-1 2-4-3-2-3-1-3-1-4Z"/><path fill="#4B4B4B" d="m464 158 2 1c-1 5-5 6-9 8 0-3 0-3 2-5l2-1 1-2 2-1Z"/><path fill="#2C2C2C" d="M1239 1934v2c-5 2-9 2-15 2l7-3 2-1h6Z"/><path fill="#2D2D2D" d="M1254 1930v2c-5 2-9 2-15 2l7-3 2-1h6Z"/><path fill="#313131" d="m1392 1886 1 2c-5 3-10 4-16 5 3-3 4-3 8-3v-2l7-2Z"/><path fill="#303030" d="m1560 1789 3 1-13 9-2-1 11-8 1-1Z"/><path fill="#1C1C1C" d="M1615 1749h2c0 3-1 4-3 6l-5 2-2-1 2-1c3-1 4-2 5-5l1-1Z"/><path fill="#4C4C4C" d="m1631 1727 2 1-3 4-2 3-6 3 3-4 1-2 5-5Z"/><path fill="#2D2D2D" d="M328 1719h2v2h2l3 4 1 2h3v2c-4 0-6-3-9-6l-2-4Z"/><path fill="#353535" d="M1903 625h2c3 9 3 9 3 14l-2-1v-6h-2l-1-7Z"/><path fill="#393939" d="m421 187 2 1c0 4-1 5-4 7l-2 2-2-1 6-9Z"/><path fill="#191919" d="m1132 12 16 2v2h-6l-4-1-6-1v-2Z"/><path fill="#303030" d="M746 1936c6 0 11 2 17 4v1c-6 0-11-2-17-4v-1Z"/><path fill="#3B3B3B" d="m393 1771 4 1v2l2 1c3 1 4 2 5 5-6-1-8-3-11-8v-1Z"/><path fill="#4C4C4C" d="m1738 1621 1 3-6 5c0-3 0-3 3-6l2-2Zm-11 10 2 1-2 1v-2Z"/><path fill="#2B2B2B" d="M268 316c0 4-2 5-4 8l-3 3-4 2c1-4 3-5 6-7l5-6Z"/><path fill="#1F1F1F" d="m471 1829 9 2 2 5h-3v-3h-2l-6-2v-2Z"/><path fill="#2E2E2E" d="M1747 1616c0 4-1 5-4 8l-2 3-2 2h-2l6-9 2-2 2-2Z"/><path fill="#4E4E4E" d="M1965 891h1v14l-2-1v-8l1-5Z"/><path fill="#313131" d="m1859 528 5 7 1 2v5c-3-5-6-8-6-14Z"/><path fill="#363636" d="M462 159c-6 6-6 6-11 6l1-2h2l1-3c4-2 4-2 7-1Z"/><path fill="#303030" d="m1240 37 6 1h3l6 4-15-4v-1Z"/><path fill="#272727" d="m1757 1606 1 2-1 3-5 2-2 3h-2c1-3 3-5 6-7l2-2 1-1Z"/><path fill="#4C4C4C" d="m1834 1486 1 3-4 6h-3l1-4h2l1-2 2-3Z"/><path fill="#4D4D4D" d="M1908 1336c-1 7-1 7-4 8l-2 1 2-8 4-1Z"/><path fill="#1D1D1D" d="M1612 225c4 0 5 1 8 3l2 6-3-3-2-1-5-5Z"/><path fill="#1E1E1E" d="m1106 1967-1 3h-6l-2-2c7-2 7-2 9-1Z"/><path fill="#1D1D1D" d="m873 1966 6 1 4 1 3 1 1 2-4 1-6-3-4-1v-2Z"/><path fill="#353535" d="m643 1910 11 2v2l-11-2v-2Z"/><path fill="#2D2D2D" d="M623 1903c9 1 9 1 12 4l-10-1v-2l-2-1Zm768-21-14 5c4-4 9-7 14-5Z"/><path fill="#393939" d="m454 1815 11 4-1 4-3-2v-2l-2-1-5-3Z"/><path fill="#303030" d="M387 1767h2v2l2 1 3 4 2 1h-3v-2l-6-2v-4Z"/><path fill="#1D1D1D" d="m1801 1548 2 2-3 2-1 3-1 2-3 1c1-4 3-7 6-10Z"/><path fill="#1B1B1B" d="m92 1403 3 2v2h2l1 6c-4-2-4-4-6-8v-2Z"/><path fill="#202020" d="M35 1238c2 3 3 6 3 10l1 4v2l-3-1v-5l-1-3-1-5 1-2Z"/><path fill="#3C3C3C" d="m202 397 1 3-3 4-2 2-1 2-2-1 2-4 2-2 3-4Z"/><path fill="#1D1D1D" d="m1759 373 4 1 3 5-1 3-3-4-2-2-1-3Z"/><path fill="#242424" d="m1588 206 4 1v2h2l2 1 1 3-7-3v-2h-2v-2Z"/><path fill="#1A1A1A" d="m1558 182 10 6h-6v-2l-4-1v-3Z"/><path fill="#4A4A4A" d="m448 168 3 1c-1 3-2 4-4 5l-2 1c0-4 1-4 3-7Z"/><path fill="#191919" d="m1490 138 12 6c-4 1-5 1-8-1l-4-3v-2Z"/><path fill="#363636" d="m1428 108 6 2v2h2l6 4-9-3v-2l-5-2v-1Z"/><path fill="#323232" d="M1256 42h4l3 1 6 2h-9l-2-1-2-1v-1Z"/><path fill="#292929" d="m1513 1821 3 1-5 4-2-1 4-4Zm-7 5 3 1-2 2-4-1 3-2Z"/><path fill="#2E2E2E" d="M318 1710c4 1 6 2 8 6l-1 3-4-5-3-2v-2Z"/><path fill="#212121" d="M227 1615c3 2 6 3 8 6l-1 2-4-1v-2h-2l-1-5Z"/><path fill="#252525" d="M1865 1439v5l-1 3-2 2-3 3 4-9 1-2 1-2Z"/><path fill="#2E2E2E" d="m373 219 3 1-10 8c0-3 0-3 2-5l5-4Z"/><path fill="#3D3D3D" d="M726 1936a261 261 0 0 1 8 0l5 4c-5-1-9-1-13-3v-1Z"/><path fill="#2D2D2D" d="M1348 1899c-3 3-4 4-8 4h-3c1-3 2-3 5-4l2-1 4 1Z"/><path fill="#383838" d="M1440 1864c-4 3-7 5-12 5 3-4 7-7 12-5Z"/><path fill="#1A1A1A" d="m452 1817 4 1 2 1 3 3v2l-4-2-2-1-3-4Z"/><path fill="#222" d="m1665 1705-1 5-2 1-2-1 5-5Z"/><path fill="#343632" d="m1421 1691 4 2v3h-5l-1-3 2-2Z"/><path fill="#222" d="M1711 1659c0 3 0 3-2 5l-2 2-2-1 6-6Z"/><path fill="#353535" d="m1720 1638 1 3-7 6 1-5 2-1 2-2 1-1Z"/><path fill="#383838" d="M235 1621c4 2 6 3 7 7l-1 3-1-4h-2v-3h-3v-3Z"/><path fill="#2A2A2A" d="m187 1561 3 2v3l4 2v3h-2v-2h-2l-1-5h-2v-3Z"/><path fill="#313131" d="M689 1926a525 525 0 0 1 9 4l-3-1-6-2v-1Z"/><path fill="#212121" d="m664 1919 11 4-3 2v-2l-3 1-1-2-4-2v-1Z"/><path fill="#303030" d="M1350 1905c-5 3-7 5-13 4l4-2 3-2h6Z"/><path fill="#2F2F2F" d="m1653 1714 1 3-2 1-4 3v2l-3-1 8-8Z"/><path fill="#393939" d="m1863 1438 1 4-1 2-1 2-3 3c0-5 1-8 4-11Z"/><path fill="#272727" d="m39 1253 3 2v8l-2-1-1-5v-4Zm1887-565 3 1 1 5 1 2v2c-4-3-4-5-5-10Z"/><path fill="#252525" d="M130 503v6h-2l-2 4-1-2 2-4 2-2 1-2Z"/><path fill="#3E3E3E" d="M1802 437c4 1 5 3 7 7v2c-4-1-5-3-7-7v-2Z"/><path fill="#1F1F1F" d="M1648 256c6 2 6 2 8 5l-1 3-2-2-5-4v-2Z"/><path fill="#1A1A1A" d="M1545 173c4 1 6 3 9 6l-9-3v-3Z"/><path fill="#343434" d="m1341 70 12 4h-7l-2-1v-2l-3-1Z"/><path fill="#4D4D4D" d="m1797 1544 1 2c-4 5-4 5-7 6 1-4 3-6 6-8Z"/><path fill="#313131" d="m128 509 1 3-3 4-2 5h-2c1-5 3-8 6-12Z"/><path fill="#323232" d="m1561 189 6 1v2l3 1v2c-4-1-6-3-9-6Z"/><path fill="#252525" d="m525 118 2 1-9 6-2-2 4-3 3-1 2-1Z"/><path fill="#171717" d="m823 1961 9 1-1 2-6 1-2-4Z"/><path fill="#191919" d="M1216 1948h2l-1 2-1-2Zm0 1c-3 3-6 3-10 3 3-4 6-3 10-3Z"/><path fill="#343434" d="m737 1940 10 1-1 2-8-1-1-2Z"/><path fill="#303030" d="M1252 1937c-3 3-4 3-8 3h-3c4-3 6-3 11-3Z"/><path fill="#373737" d="M413 1787c4 1 6 2 9 5-4 0-6-1-9-3v-2Z"/><path fill="#4A4A4A" d="m205 1577 3 2v6l-3-1v-7Z"/><path fill="#2A2A2A" d="M180 1552c3 1 3 1 5 4v3h2l-1 2-2-1v-3h-2v-2h-2v-3Z"/><path fill="#191919" d="m1789 413 7 2v3l-6-2-1-3Z"/><path fill="#2C2C2C" d="M1676 284c3 1 6 3 8 6l-7-2-1-4Z"/><path fill="#242424" d="m1501 147 6 1v2h3v2l-9-4v-1Z"/><path fill="#313131" d="m524 1857 10 4-9-2-1-2Z"/><path fill="#353535" d="m350 1737 4 2 2 2 2 2 1 1-2 1v-2h-2c-3-1-4-3-5-6Z"/><path fill="#303030" d="m1710 1649 1 2-8 7 7-9Z"/><path fill="#191919" d="m1907 626 5 10h-3l-2-10Z"/><path fill="#1F1F1F" d="m136 492 1 2-1 3h-2l-2 4-1-4 5-5Z"/><path fill="#313131" d="m660 60 2 1c-6 4-6 4-9 4l-2-1 4-2 3-1 2-1Z"/><path fill="#191919" d="M861 9h6v2h-10l4-2Z"/><path fill="#212121" d="m1270 1934-2 3h-7v-2c7-2 7-2 9-1Z"/><path fill="#222" d="M484 1836h5l2 4-7-1v-3Z"/><path fill="#252525" d="m381 1765 6 2v3l-3 1v-4h-3v-2Z"/><path fill="#4C4C4C" d="m1604 1750 2 1-1 4-5 1 4-6Z"/><path fill="#212121" d="m1645 1723 2 1-4 5h-3v-2l5-4Z"/><path fill="#444643" d="m1413 1697 1 2h2l-1 5-3-2 1-5Z"/><path fill="#1F1F1F" d="m1768 1592 1 4-4 4-2-1 5-7Z"/><path fill="#8F918F" d="m1181 1427 2 1-1 3-3-2-5-1c3-2 4-2 7-1Z"/></svg>