<svg version="1.1" id="Layer_1" xmlns="http://www.w3.org/2000/svg" xmlns:xlink="http://www.w3.org/1999/xlink" x="0px" y="0px"
	 width="100%" viewBox="0 0 496 496" enable-background="new 0 0 496 496" xml:space="preserve">
<path fill="#000000" opacity="1.000000" stroke="none" 
	d="
M337.562500,1.000000 
	C334.552032,4.903641 331.738403,9.178080 330.083832,14.170593 
	C328.362305,19.365366 329.179596,21.412622 334.130676,23.715939 
	C346.834930,29.626106 360.359131,30.803011 374.121368,30.648798 
	C375.869781,30.629206 377.759155,29.842930 379.880859,31.697359 
	C375.329193,36.793312 369.254730,39.394142 362.813660,42.995773 
	C371.625885,44.068893 379.718842,43.900227 387.818024,43.289402 
	C401.870026,42.229630 415.786041,42.208836 429.082703,47.938232 
	C435.059723,50.513660 435.428619,51.046486 432.388947,56.587952 
	C423.088776,73.542587 408.671600,84.596146 391.121979,91.948059 
	C390.593597,92.169395 389.891541,91.976059 388.917023,91.493629 
	C404.796753,80.724762 418.678314,67.972832 430.207062,53.012730 
	C429.418213,50.865753 427.920349,50.583271 426.447784,50.341797 
	C418.553223,49.047211 410.635010,48.265171 402.606476,48.737022 
	C382.650970,49.909828 362.728455,50.424511 343.054871,44.093918 
	C349.316864,42.339714 355.485596,40.376007 362.539062,36.810585 
	C356.357117,36.134167 351.501923,35.776680 346.710205,35.018391 
	C343.438904,34.500717 340.195740,33.606003 337.044647,32.563538 
	C325.814362,28.848248 323.395569,25.649313 322.240936,12.734756 
	C299.129303,28.835964 274.595428,40.285866 246.111084,40.668793 
	C276.240356,31.819456 304.813446,19.715050 330.782684,1.252123 
	C333.041656,1.000000 335.083344,1.000000 337.562500,1.000000 
z"/>
<path fill="#000000" opacity="1.000000" stroke="none" 
	d="
M222.463181,497.000000 
	C219.066528,493.151794 214.555191,490.877991 211.834900,486.819031 
	C210.589920,484.961365 208.720108,483.338745 209.717743,479.153381 
	C217.786835,486.014801 225.403854,492.426758 234.738174,496.770081 
	C230.975449,497.000000 226.950912,497.000000 222.463181,497.000000 
z"/>
<path fill="#000000" opacity="1.000000" stroke="none" 
	d="
M354.000092,192.714417 
	C376.481293,192.898712 398.442749,193.326111 420.124481,197.969513 
	C415.364777,199.615509 410.525757,199.176971 405.748230,198.904556 
	C388.467743,197.919266 371.206268,197.115540 353.872253,197.788986 
	C339.098480,198.362976 324.293762,198.116226 309.503754,198.309464 
	C303.851410,198.383316 298.202942,198.725937 292.550537,198.830856 
	C290.593536,198.867188 289.560760,200.102448 288.483643,201.361008 
	C286.642731,203.511993 285.066467,205.940353 282.998810,207.837830 
	C272.578583,217.400284 272.949341,229.203949 275.807343,241.522797 
	C278.221558,251.928787 281.347412,262.095398 286.568604,271.506622 
	C287.173096,272.596252 288.269012,273.679108 287.224976,275.205292 
	C284.680481,275.767365 284.358673,273.480438 283.473846,272.107117 
	C276.922089,261.938110 273.072754,250.528259 268.847076,239.328064 
	C267.462250,235.657532 265.677551,234.487762 261.795044,233.913696 
	C250.140900,232.190521 242.468323,235.308929 238.085449,247.314651 
	C234.498123,257.141235 227.804825,265.565369 220.000061,272.798065 
	C218.863113,273.851654 218.052200,275.551758 215.660263,275.391724 
	C216.993332,271.697571 220.083038,269.536224 222.221680,266.765167 
	C228.707260,258.361877 233.760666,249.082413 237.221344,239.228745 
	C240.824921,228.968246 241.704697,218.466476 233.346603,209.191818 
	C229.020889,204.391754 226.633713,199.052673 218.063095,198.763031 
	C188.919266,197.778091 159.827621,196.809021 130.717072,199.190994 
	C128.902679,199.339462 127.060959,199.220200 125.236725,199.129562 
	C124.840736,199.109879 124.465279,198.677170 124.080734,198.434937 
	C124.446671,196.403000 126.028465,196.838425 127.237885,196.665207 
	C159.854507,191.993820 192.612305,191.991409 225.428253,193.613266 
	C228.022858,193.741501 229.858002,194.616486 231.328598,196.650085 
	C235.329163,202.182205 239.394501,207.667664 243.369583,213.217850 
	C244.131729,214.282013 245.228409,215.632339 245.098160,216.722504 
	C244.380722,222.727325 248.471725,222.423294 252.300171,222.508911 
	C255.125641,222.572098 257.954437,222.561020 260.780365,222.509186 
	C265.028778,222.431290 268.776520,222.472168 269.415710,216.326202 
	C269.835907,212.285690 274.675293,210.004761 276.649475,206.382477 
	C282.768219,195.155640 292.346954,192.181305 304.524689,192.669891 
	C320.824158,193.323837 337.172638,192.757309 354.000092,192.714417 
z"/>
<path fill="#000000" opacity="1.000000" stroke="none" 
	d="
M416.453461,394.428986 
	C426.166412,384.496490 432.488129,372.777008 437.753052,360.520538 
	C446.266235,340.702118 450.602295,319.622223 455.653381,298.769531 
	C456.215240,296.449829 456.196198,293.831970 457.957764,292.043549 
	C459.203766,292.085876 459.278381,292.882355 459.184265,293.449219 
	C455.255402,317.113464 450.646179,340.591583 441.336884,362.889587 
	C433.095764,382.629028 418.849182,397.676147 403.514282,411.883698 
	C385.435913,428.632965 367.938324,446.017426 349.051239,461.883484 
	C345.483917,464.880219 341.765198,467.699677 338.062164,470.530060 
	C337.078644,471.281769 336.046387,472.429504 333.845551,470.916656 
	C362.639038,446.716583 388.607361,419.831055 416.453461,394.428986 
z"/>
<path fill="#000000" opacity="1.000000" stroke="none" 
	d="
M337.588531,300.710632 
	C370.253937,304.698883 399.411255,298.623322 421.998718,273.358704 
	C432.753265,261.329437 437.480652,246.406647 439.452332,230.570526 
	C439.717682,228.439194 438.717773,227.526062 436.659607,227.384171 
	C435.235352,227.285995 433.636932,227.767929 432.251984,226.170258 
	C435.347595,223.897278 438.729431,224.517258 441.528564,225.839035 
	C444.278290,227.137482 442.973877,230.163651 442.784698,232.607925 
	C441.514954,249.013168 435.759979,263.598053 425.455353,276.450104 
	C413.150574,291.796753 396.596497,299.506012 377.820343,303.305450 
	C364.942413,305.911407 352.043854,305.563202 339.145172,303.438507 
	C337.705505,303.201355 336.133301,303.230042 335.247467,301.714569 
	C335.497253,300.539703 336.479156,300.874969 337.588531,300.710632 
z"/>
<path fill="#000000" opacity="1.000000" stroke="none" 
	d="
M221.070251,374.273804 
	C218.664001,374.132660 216.610428,374.800201 214.684998,373.484283 
	C214.853455,373.046356 214.975754,372.270813 215.186844,372.245850 
	C222.301254,371.404327 229.105240,369.124329 236.105225,367.778198 
	C242.633163,366.522827 248.240814,368.954224 253.408661,372.600342 
	C259.740509,377.067810 266.342499,379.287537 274.030090,376.232697 
	C277.114807,375.006927 280.638214,376.194550 284.461823,373.958191 
	C276.238525,386.460327 265.863129,389.111115 255.159302,381.113037 
	C244.785217,373.361420 233.603760,372.284912 221.070251,374.273804 
z"/>
<path fill="#000000" opacity="1.000000" stroke="none" 
	d="
M312.237061,373.938721 
	C306.429565,373.360504 301.576904,371.193787 296.690308,369.042389 
	C288.552032,365.459442 280.368683,364.385193 272.338165,369.395935 
	C267.731018,372.270599 263.310089,371.933044 258.716431,369.211517 
	C255.501495,367.306763 252.022202,365.848206 248.186920,363.956573 
	C250.349304,362.090759 252.357864,362.649261 254.110031,363.120331 
	C261.671539,365.153137 269.084198,365.506409 276.689789,362.955902 
	C280.981842,361.516602 285.601013,362.009094 289.981598,363.368195 
	C299.128265,366.205994 307.405548,371.571198 317.839020,372.010437 
	C316.164307,374.964050 314.272766,374.043640 312.237061,373.938721 
z"/>
<path fill="#000000" opacity="1.000000" stroke="none" 
	d="
M185.559677,243.503296 
	C179.640396,239.302414 174.019455,235.305130 169.459351,229.928406 
	C187.489532,239.070541 204.484787,249.813416 221.813324,261.166290 
	C217.777115,261.890869 215.436172,260.960205 203.039993,253.850494 
	C197.271484,250.542023 191.586090,247.088623 185.559677,243.503296 
z"/>
<path fill="#000000" opacity="1.000000" stroke="none" 
	d="
M285.673035,331.651001 
	C293.997559,329.156403 294.915466,321.756561 297.343048,315.343781 
	C299.330322,321.580566 297.786926,327.071533 293.026489,330.860748 
	C287.600677,335.179657 280.228973,336.369904 274.846313,341.164917 
	C276.870911,336.268280 280.383606,333.206299 285.673035,331.651001 
z"/>
<path fill="#000000" opacity="1.000000" stroke="none" 
	d="
M237.308212,263.451416 
	C238.484756,261.900238 239.035507,260.199524 240.900375,259.763519 
	C240.603455,266.306671 222.369705,289.815308 215.375214,291.979858 
	C223.447464,283.186249 230.704651,273.782013 237.308212,263.451416 
z"/>
<path fill="#000000" opacity="1.000000" stroke="none" 
	d="
M237.799438,328.453979 
	C234.463623,328.146240 234.489395,326.496155 236.488174,325.116058 
	C239.324493,323.157684 242.529663,321.835083 246.342377,324.095306 
	C244.267883,327.263916 240.660049,326.809570 237.799438,328.453979 
z"/>
</svg>