<?xml version="1.0" encoding="UTF-8" standalone="no"?>
<!-- Created with Inkscape (http://www.inkscape.org/) -->

<svg
   width="210mm"
   height="297mm"
   viewBox="0 0 210 297"
   version="1.1"
   id="svg1"
   xml:space="preserve"
   sodipodi:docname="Avatar-EXP-2.svg"
   inkscape:version="1.4.2 (f4327f4, 2025-05-13)"
   xmlns:inkscape="http://www.inkscape.org/namespaces/inkscape"
   xmlns:sodipodi="http://sodipodi.sourceforge.net/DTD/sodipodi-0.dtd"
   xmlns="http://www.w3.org/2000/svg"
   xmlns:svg="http://www.w3.org/2000/svg"><sodipodi:namedview
     id="namedview1"
     pagecolor="#ffffff"
     bordercolor="#eeeeee"
     borderopacity="1"
     inkscape:showpageshadow="0"
     inkscape:pageopacity="0"
     inkscape:pagecheckerboard="0"
     inkscape:deskcolor="#505050"
     inkscape:document-units="mm"
     inkscape:zoom="0.70710678"
     inkscape:cx="149.19953"
     inkscape:cy="532.4514"
     inkscape:window-width="1920"
     inkscape:window-height="1009"
     inkscape:window-x="-8"
     inkscape:window-y="-8"
     inkscape:window-maximized="1"
     inkscape:current-layer="layer1"
     showgrid="false"><inkscape:grid
       id="grid1"
       units="mm"
       originx="0"
       originy="0"
       spacingx="0.99999998"
       spacingy="1"
       empcolor="#0099e5"
       empopacity="0.30196078"
       color="#0099e5"
       opacity="0.14901961"
       empspacing="5"
       enabled="true"
       visible="false" /></sodipodi:namedview><defs
     id="defs1" /><g
     inkscape:label="Layer 1"
     inkscape:groupmode="layer"
     id="layer1"
     style="display:inline"><path
       style="display:inline;opacity:1;fill:#000000;stroke:none;stroke-width:0;stroke-dasharray:none"
       d="m 142.06362,58.840552 c 0,0 8.71546,-2.409334 10.44603,-4.233449 0,0 -16.13632,0.409051 -18.36764,-4.663635 -1.86558,-4.241198 1.84561,-7.108658 1.84561,-7.108658 -15.62231,10.647242 -21.42043,12.585958 -35.15306,14.450981 17.7643,-4.123399 27.5032,-11.039008 37.12922,-16.379499 -0.63108,1.777283 -5.08322,5.647451 -1.9562,8.937107 3.82471,2.946165 12.1371,4.081624 20.01546,3.51746 -3.52314,3.313302 -8.82846,5.052893 -8.82846,5.052893 -0.003,0.0024 1.97026,0.341466 3.04139,0.431908 2.19157,0.185049 4.25533,0.179914 6.73835,0.125234 3.92918,-0.08653 8.26527,-0.727889 13.08037,-0.11583 2.89842,0.368425 4.32244,0.707226 7.43279,2.087005 0,0 -2.46328,-0.655057 -5.02001,-0.914348 -2.21041,-0.224169 -5.84227,-0.176411 -6.67761,-0.157042 -2.68665,0.06229 -5.81709,0.245105 -8.76266,0.27865 -1.94748,0.02218 -4.78254,-0.06365 -6.73237,-0.273696"
       id="path1-8"
       sodipodi:nodetypes="ccsccccccssscsssc"
       inkscape:label="path1" /><path
       style="display:inline;fill:#000000;stroke:none;stroke-width:0;stroke-dasharray:none"
       d="m 160.78977,78.136218 c 9.26668,-6.33627 11.03698,-8.512775 18.00115,-16.584197 -3.63943,7.307599 -7.53549,11.629822 -18.00115,16.584197 z"
       id="path12"
       sodipodi:nodetypes="ccc"
       inkscape:label="path13" /><path
       style="display:inline;opacity:1;fill:#000000;stroke:none;stroke-width:0;stroke-dasharray:none"
       d="m 50.550905,122.18095 c 9.454489,-2.07389 39.233191,-1.39172 42.940936,-1.40175 0.415513,0.0156 0.605704,0.0904 0.805943,0.34172 0.03472,0.0436 5.786636,7.90563 5.974036,8.22983 0.23691,0.40985 0.24051,0.63542 0.28931,1.08549 l 0.0676,1.32539 c 0.0219,0.43304 0.002,1.04187 0.42428,1.0392 l 9.28802,-0.0582 c 0.71776,0.008 0.64618,-0.47098 0.68025,-1.15231 l 0.0671,-1.34204 c 0.0446,-0.56139 0.14579,-0.78631 0.49695,-1.20709 l 6.71361,-8.07733 c 0.26133,-0.27571 0.45248,-0.41186 0.84688,-0.42244 4.70199,-0.12438 42.73883,-1.03806 53.78122,1.63627 0,0 -37.7244,-0.90557 -53.12337,-0.17321 -0.25629,0.0122 -0.502,0.0363 -0.80739,0.39718 l -5.90579,7.20967 c -0.31661,0.33991 -0.40712,0.78868 -0.42979,1.23904 -0.25067,4.97889 -0.18213,10.53798 5.35647,23.07941 -4.181,-5.44103 -6.41828,-14.67727 -6.91937,-16.80391 -0.0978,-0.41499 -0.22571,-0.65861 -0.7356,-0.65801 l -9.12104,-0.0126 c -0.52463,0.0181 -0.59296,0.32406 -0.81625,0.71682 -1.428837,2.51315 -7.30488,14.42709 -11.619264,16.75769 4.914692,-4.11462 9.239112,-14.22469 10.031506,-16.68914 0.119,-0.3701 0.197877,-0.66021 0.194639,-1.05553 l 0.0097,-4.84329 c 0.0014,-0.68034 0.09295,-1.25424 -0.307272,-1.82165 l -4.948003,-7.015 c -0.263683,-0.34955 -0.407982,-0.42701 -0.899598,-0.4979 0,0 -9.581032,-1.11436 -42.335679,0.17378 z"
       id="path2"
       sodipodi:nodetypes="ccssccccccccscsccscsccscscsscccc" /><path
       style="display:inline;opacity:1;fill:#000000;stroke:none;stroke-width:0.4;stroke-dasharray:none"
       d="m 69.843235,135.31962 20.857017,12.95002 c -6.973683,-1.95528 -19.740049,-11.2005 -20.857017,-12.95002 z"
       id="path3"
       sodipodi:nodetypes="ccc" /><path
       style="display:inline;opacity:1;fill:#000000;stroke:none;stroke-width:0.4;stroke-dasharray:none"
       d="m 99.117508,148.04193 c 0,0 -4.053704,5.91563 -7.532469,10.17304 -0.976151,1.19464 -2.046634,2.0674 -2.793061,2.90079 1.097002,-1.02023 2.003796,-1.61975 2.864676,-2.54419 2.87232,-3.0844 4.734031,-6.35098 7.460854,-10.52964 z"
       id="path4"
       sodipodi:nodetypes="cscsc" /><path
       style="display:inline;opacity:1;fill:#000000;stroke:none;stroke-width:1e-08;stroke-dasharray:none"
       d="m 178.52212,133.89159 3.70837,-0.26024 c -0.77147,29.02831 -26.0335,34.65536 -44.21166,31.38167 29.88603,4.14494 43.75097,-14.47952 43.42598,-30.97569 z"
       id="path5"
       sodipodi:nodetypes="ccccc"
       inkscape:label="path5" /><path
       style="display:inline;opacity:1;fill:#000000;stroke:none;stroke-width:0;stroke-dasharray:none"
       d="m 97.343195,175.5215 c -0.150693,0.44478 0.344911,0.11059 1.287618,-0.30441 0.421293,-0.18547 0.849207,-0.3683 1.304396,-0.48733 0.516511,-0.13507 0.928081,-0.25244 1.343121,-0.29899 -1.568839,-0.38785 -3.546646,-0.0559 -3.935135,1.09073 z"
       id="path6-1"
       sodipodi:nodetypes="ssscs"
       inkscape:label="path6" /><path
       style="display:inline;opacity:1;fill:#000000;stroke:none;stroke-width:0;stroke-dasharray:none"
       d="m 113.44605,181.09199 c 0,0 1.90798,-1.99984 3.21747,-2.50787 2.06819,-0.80238 5.10565,-1.48837 5.44428,-4.58834 l 0.35872,-3.28388 c 0,0 -0.61101,4.18479 -1.63177,5.17745 -1.5582,1.51533 -3.08819,1.58571 -4.47271,2.36975 -1.29662,0.73426 -2.13529,1.59677 -2.91599,2.83289 z"
       id="path7"
       sodipodi:nodetypes="csscssc" /><path
       style="display:inline;opacity:1;fill:#000000;stroke:none;stroke-width:0;stroke-dasharray:none"
       d="m 103.81428,191.01328 c 1.2644,-0.0314 1.76739,0.0726 3.37288,0.52002 1.45417,0.40518 2.52876,0.4514 4.35368,0.0675 0.85624,-0.18012 1.82792,-0.68971 3.33044,-1.05342 2.63214,-0.63715 6.08139,0.76225 9.68085,2.4246 1.81378,0.83766 3.75281,1.10175 5.72886,1.34462 -1.85777,0.17339 -3.86049,-0.10029 -5.9196,-0.85099 -2.75434,-1.03813 -5.50482,-2.74774 -8.56695,-2.3294 -3.39556,0.60167 -4.24288,2.39624 -6.62434,2.17229 -2.27836,-0.21425 -2.10508,-1.44719 -5.35582,-2.29522 z"
       id="path8"
       sodipodi:nodetypes="csssscsssc" /><path
       style="display:inline;opacity:1;fill:#000000;stroke:none;stroke-width:0;stroke-dasharray:none"
       d="m 89.967853,194.47636 c 6.417134,-0.98589 4.938461,-1.31088 8.57932,-1.66693 2.877927,-0.28144 6.576017,3.353 9.683397,4.18766 2.31948,0.62302 6.24468,-0.9028 6.24468,-0.9028 0,0 -2.85887,5.06253 -6.96763,2.63562 -2.396,-1.41523 -6.19919,-4.75403 -9.678602,-4.69643 -1.291362,0.0214 -7.861165,0.44288 -7.861165,0.44288 z"
       id="path9"
       sodipodi:nodetypes="csscssc" /><path
       style="display:inline;opacity:1;fill:#000000;stroke:none;stroke-width:3"
       d="m 189.06169,161.15135 c -3.24643,14.77167 -6.22479,28.66852 -15.53694,41.47646 10.17626,-11.79331 12.85814,-25.91255 15.53694,-41.47646 z"
       id="path10"
       sodipodi:nodetypes="ccc" /><path
       style="display:inline;opacity:1;fill:#000000;stroke:none;stroke-width:3"
       d="m 138.21802,235.02158 c 6.68073,-5.4901 18.2867,-16.4942 18.2867,-16.4942 l 16.80319,-15.65325 c -5.50807,6.64048 -16.21842,15.91739 -16.21842,15.91739 0,0 -12.44642,11.5288 -18.87147,16.23006 z"
       id="path1"
       sodipodi:nodetypes="ccccc"
       inkscape:label="path11" /><path
       style="display:inline;opacity:1;fill:#000000;stroke:none;stroke-width:0;stroke-dasharray:none"
       d="m 88.176057,240.51668 c 3.777175,3.3574 7.874485,7.01057 18.459693,7.6878 l -1.18216,1.30777 c -15.79221,-0.83316 -22.643771,-14.3265 -17.277533,-8.99557 z"
       id="path11"
       sodipodi:nodetypes="cccc"
       inkscape:label="path12" /></g></svg>
