<?xml version="1.0" encoding="UTF-8" standalone="no"?>
<!-- Created with Inkscape (http://www.inkscape.org/) -->

<svg
   width="1000mm"
   height="1000mm"
   viewBox="0 0 1000 1000"
   version="1.1"
   id="svg1"
   xml:space="preserve"
   sodipodi:docname="nazDridoyAvaterCircle.svg"
   inkscape:version="1.4.2 (f4327f4, 2025-05-13)"
   inkscape:export-filename="nazDridoyAvaterCircle.png"
   inkscape:export-xdpi="49.987198"
   inkscape:export-ydpi="49.987198"
   xmlns:inkscape="http://www.inkscape.org/namespaces/inkscape"
   xmlns:sodipodi="http://sodipodi.sourceforge.net/DTD/sodipodi-0.dtd"
   xmlns="http://www.w3.org/2000/svg"
   xmlns:svg="http://www.w3.org/2000/svg"><sodipodi:namedview
     id="namedview1"
     pagecolor="#000000"
     bordercolor="#eeeeee"
     borderopacity="1"
     inkscape:showpageshadow="0"
     inkscape:pageopacity="0"
     inkscape:pagecheckerboard="0"
     inkscape:deskcolor="#505050"
     inkscape:document-units="mm"
     inkscape:zoom="0.1767767"
     inkscape:cx="2435.2758"
     inkscape:cy="1835.6492"
     inkscape:window-width="1920"
     inkscape:window-height="1009"
     inkscape:window-x="-8"
     inkscape:window-y="-8"
     inkscape:window-maximized="1"
     inkscape:current-layer="layer1"
     showgrid="true"
     inkscape:export-bgcolor="#00000000"><inkscape:grid
       id="grid1"
       units="mm"
       originx="0"
       originy="0"
       spacingx="0.99999998"
       spacingy="1"
       empcolor="#0099e5"
       empopacity="0.30196078"
       color="#0099e5"
       opacity="0.14901961"
       empspacing="5"
       enabled="true"
       visible="true" /></sodipodi:namedview><defs
     id="defs1" /><circle
     style="display:inline;fill:#ffffff;stroke:#000000;stroke-width:15.484;stroke-dasharray:none"
     id="path6"
     cx="434.91248"
     cy="498.67758"
     r="490"
     transform="translate(65.087534,1.5875)" /><g
     inkscape:label="Layer 1"
     inkscape:groupmode="layer"
     id="layer1"
     style="display:inline;fill:#000000"
     transform="translate(65.087534,1.5875)"><path
       style="display:inline;opacity:1;fill:#000000;stroke:none;stroke-width:0;stroke-dasharray:none"
       d="m 598.63218,114.86083 c 0,0 39.41897,-10.89712 47.24613,-19.147333 0,0 -72.98261,1.850068 -83.07461,-21.092967 -8.43779,-19.182422 8.34747,-32.151593 8.34747,-32.151593 -70.6578,48.156107 -96.88199,56.924639 -158.99301,65.359903 80.34577,-18.649567 124.39363,-49.927966 167.93095,-74.082355 -2.8543,8.038435 -22.99079,25.542732 -8.84766,40.421445 17.2987,13.325102 54.89463,18.460612 90.5275,15.908977 -15.93474,14.985603 -39.93006,22.853563 -39.93006,22.853563 -0.0136,0.0108 8.91124,1.54441 13.75583,1.95347 9.91221,0.83696 19.24635,0.81373 30.47674,0.56642 17.77121,-0.39136 37.38282,-3.29216 59.16093,-0.52389 13.1092,1.66635 19.54987,3.1987 33.6176,9.43928 0,0 -11.14111,-2.96275 -22.70489,-4.13549 -9.99742,-1.0139 -26.42387,-0.79788 -30.20202,-0.71028 -12.15139,0.28173 -26.30998,1.10857 -39.63244,1.2603 -8.80822,0.10032 -21.63085,-0.28789 -30.44969,-1.23789"
       id="path1-8"
       sodipodi:nodetypes="ccsccccccssscsssc"
       inkscape:label="path1" /><path
       style="display:inline;fill:#000000;stroke:none;stroke-width:0;stroke-dasharray:none"
       d="m 683.32828,202.13278 c 41.91207,-28.65818 49.91892,-38.50225 81.41702,-75.0083 -16.4607,33.05137 -34.08211,52.60026 -81.41702,75.0083 z"
       id="path12"
       sodipodi:nodetypes="ccc"
       inkscape:label="path13" /><path
       style="display:inline;opacity:1;fill:#000000;stroke:none;stroke-width:0;stroke-dasharray:none"
       d="m 184.73081,401.34173 c 42.76171,-9.37995 177.4472,-6.29458 194.21695,-6.33994 1.87934,0.0706 2.73955,0.40886 3.64522,1.54555 0.15693,0.1972 26.17239,35.75621 27.01999,37.22252 1.0715,1.85371 1.08779,2.87393 1.30851,4.90955 l 0.30574,5.99457 c 0.0991,1.95858 0.008,4.71225 1.91896,4.70017 l 42.00858,-0.26322 c 3.24635,0.0362 2.9226,-2.13019 3.0767,-5.21177 l 0.30349,-6.06988 c 0.20172,-2.5391 0.65938,-3.55638 2.24764,-5.45951 l 30.36484,-36.53279 c 1.18196,-1.247 2.04651,-1.8628 3.83034,-1.91064 21.26653,-0.56255 193.30253,-4.69502 243.24591,7.40065 0,0 -170.62287,-4.09579 -240.27054,-0.78341 -1.15916,0.0552 -2.27048,0.16418 -3.65173,1.7964 l -26.71117,32.60846 c -1.43198,1.53736 -1.84135,3.56709 -1.94388,5.60402 -1.13375,22.51891 -0.82376,47.662 24.22665,104.38537 -18.91014,-24.60911 -29.0291,-66.38352 -31.29546,-76.00205 -0.44234,-1.87695 -1.02086,-2.97881 -3.32703,-2.9761 l -41.25335,-0.057 c -2.37284,0.0818 -2.68189,1.46568 -3.6918,3.24209 -6.46247,11.36667 -33.03926,65.25198 -52.55282,75.793 22.22868,-18.60992 41.78765,-64.33655 45.37153,-75.48295 0.53826,-1.67393 0.89499,-2.98606 0.88033,-4.77404 l 0.0453,-21.90562 c 0.005,-3.07709 0.42063,-5.67276 -1.38975,-8.23909 l -22.37934,-31.728 c -1.19264,-1.58096 -1.84528,-1.93131 -4.06877,-2.25193 0,0 -43.33398,-5.04012 -191.47946,0.78598 z"
       id="path2"
       sodipodi:nodetypes="ccssccccccccscsccscsccscscsscccc" /><path
       style="display:inline;opacity:1;fill:#000000;stroke:none;stroke-width:1.80915;stroke-dasharray:none"
       d="m 271.98788,460.76634 94.33381,58.57137 c -31.54118,-8.8435 -89.2819,-50.6585 -94.33381,-58.57137 z"
       id="path3"
       sodipodi:nodetypes="ccc" /><path
       style="display:inline;opacity:1;fill:#000000;stroke:none;stroke-width:1.80915;stroke-dasharray:none"
       d="m 404.39211,518.3078 c 0,0 -18.33453,26.75568 -34.06863,46.01142 -4.41505,5.40322 -9.25674,9.3506 -12.63275,13.11992 4.96163,-4.61437 9.06299,-7.32593 12.95669,-11.50705 12.99119,-13.95037 21.41152,-28.72471 33.74469,-47.62429 z"
       id="path4"
       sodipodi:nodetypes="cscsc" /><path
       style="display:inline;opacity:1;fill:#000000;stroke:none;stroke-width:0.0000000452287;stroke-dasharray:none"
       d="m 763.52955,454.30753 16.7725,-1.17703 C 776.81279,584.42202 662.5557,609.87248 580.33809,595.06597 715.50897,613.81304 778.21841,529.57687 776.74851,454.9667 Z"
       id="path5"
       sodipodi:nodetypes="ccccc"
       inkscape:label="path5" /><path
       style="display:inline;opacity:1;fill:#000000;stroke:none;stroke-width:0;stroke-dasharray:none"
       d="m 396.36709,642.59455 c -0.68161,2.01169 1.55998,0.50018 5.82374,-1.3768 1.90549,-0.83886 3.84092,-1.66578 5.89969,-2.20415 2.3361,-0.61089 4.19759,-1.14175 6.07476,-1.35229 -7.09567,-1.7542 -16.04111,-0.25282 -17.79819,4.93324 z"
       id="path6-1"
       sodipodi:nodetypes="ssscs"
       inkscape:label="path6" /><path
       style="display:inline;opacity:1;fill:#000000;stroke:none;stroke-width:0;stroke-dasharray:none"
       d="m 469.1984,667.7892 c 0,0 8.62956,-9.04503 14.55223,-11.34279 9.35416,-3.62906 23.09223,-6.73171 24.62381,-20.75251 l 1.62244,-14.85258 c 0,0 -2.76352,18.92729 -7.3803,23.41697 -7.04754,6.85366 -13.96749,7.17197 -20.22952,10.71809 -5.86444,3.32097 -9.65765,7.22199 -13.18866,12.81282 z"
       id="path7"
       sodipodi:nodetypes="csscssc" /><path
       style="display:inline;opacity:1;fill:#000000;stroke:none;stroke-width:0;stroke-dasharray:none"
       d="m 425.63508,712.66199 c 5.71872,-0.14202 7.99368,0.32835 15.25513,2.35199 6.57703,1.83257 11.43726,2.04163 19.69116,0.30529 3.87267,-0.81466 8.26746,-3.11948 15.06317,-4.76449 11.90485,-2.88175 27.50538,3.44756 43.78531,10.96617 8.2035,3.78862 16.9735,4.98307 25.91093,6.08155 -8.40247,0.78422 -17.46053,-0.4536 -26.77362,-3.84893 -12.45755,-4.69533 -24.89763,-12.42769 -38.74729,-10.53559 -15.3577,2.72129 -19.19002,10.8379 -29.96107,9.82501 -10.30475,-0.96903 -9.52102,-6.54546 -24.22372,-10.381 z"
       id="path8"
       sodipodi:nodetypes="csssscsssc" /><path
       style="display:inline;opacity:1;fill:#000000;stroke:none;stroke-width:0;stroke-dasharray:none"
       d="m 363.00913,728.32507 c 29.02409,-4.45905 22.33615,-5.92895 38.8034,-7.53932 13.01658,-1.27291 29.74259,15.16521 43.79688,18.94028 10.49073,2.81784 28.24394,-4.08325 28.24394,-4.08325 0,0 -12.93032,22.8972 -31.51375,11.92058 -10.83682,-6.40091 -28.03818,-21.5019 -43.77522,-21.24137 -5.84071,0.0968 -35.55525,2.00308 -35.55525,2.00308 z"
       id="path9"
       sodipodi:nodetypes="csscssc" /><path
       style="display:inline;opacity:1;fill:#000000;stroke:none;stroke-width:13.5687"
       d="m 811.19874,577.60011 c -14.68321,66.81046 -28.15397,129.66423 -70.27169,187.59298 46.02597,-53.3397 58.1558,-117.19931 70.27169,-187.59298 z"
       id="path10"
       sodipodi:nodetypes="ccc" /><path
       style="display:inline;opacity:1;fill:#000000;stroke:none;stroke-width:13.5687"
       d="m 581.239,911.70616 c 30.21613,-24.83104 82.70853,-74.60125 82.70853,-74.60125 l 75.99877,-70.79775 c -24.91231,30.03409 -73.35393,71.99242 -73.35393,71.99242 0,0 -56.29365,52.14336 -85.35337,73.40658 z"
       id="path1"
       sodipodi:nodetypes="ccccc"
       inkscape:label="path11" /><path
       style="display:inline;opacity:1;fill:#000000;stroke:none;stroke-width:0;stroke-dasharray:none"
       d="m 354.905,936.55984 c 17.08376,15.1851 35.61554,31.70794 83.49124,34.77097 l -5.34676,5.91489 C 361.62296,973.47742 330.63417,912.44869 354.905,936.55984 Z"
       id="path11"
       sodipodi:nodetypes="cccc"
       inkscape:label="path12" /></g></svg>
