<?xml version="1.0" encoding="UTF-8" standalone="no"?>
<!-- Created with Inkscape (http://www.inkscape.org/) -->

<svg
   width="1000mm"
   height="1000mm"
   viewBox="0 0 1000 1000"
   version="1.1"
   id="svg1"
   xml:space="preserve"
   sodipodi:docname="nazDridoy-light.svg"
   inkscape:version="1.4.2 (f4327f4, 2025-05-13)"
   inkscape:export-filename="Avatar-EXP-3 - Copy.png"
   inkscape:export-xdpi="48.4632"
   inkscape:export-ydpi="48.4632"
   xmlns:inkscape="http://www.inkscape.org/namespaces/inkscape"
   xmlns:sodipodi="http://sodipodi.sourceforge.net/DTD/sodipodi-0.dtd"
   xmlns="http://www.w3.org/2000/svg"
   xmlns:svg="http://www.w3.org/2000/svg"><sodipodi:namedview
     id="namedview1"
     pagecolor="#ffffff"
     bordercolor="#eeeeee"
     borderopacity="1"
     inkscape:showpageshadow="0"
     inkscape:pageopacity="0"
     inkscape:pagecheckerboard="0"
     inkscape:deskcolor="#505050"
     inkscape:document-units="mm"
     inkscape:zoom="0.1767767"
     inkscape:cx="2186.3742"
     inkscape:cy="2078.8939"
     inkscape:window-width="1920"
     inkscape:window-height="1009"
     inkscape:window-x="-8"
     inkscape:window-y="-8"
     inkscape:window-maximized="1"
     inkscape:current-layer="layer1"
     showgrid="true"
     inkscape:export-bgcolor="#ffffffa6"><inkscape:grid
       id="grid1"
       units="mm"
       originx="0"
       originy="0"
       spacingx="0.99999998"
       spacingy="1"
       empcolor="#0099e5"
       empopacity="0.30196078"
       color="#0099e5"
       opacity="0.14901961"
       empspacing="5"
       enabled="true"
       visible="true" /></sodipodi:namedview><defs
     id="defs1" /><g
     inkscape:label="Layer 1"
     inkscape:groupmode="layer"
     id="layer1"
     style="display:inline;fill:#000000"
     transform="translate(65.087534,1.5875)"><path
       style="display:inline;opacity:1;fill:#000000;stroke:none;stroke-width:0;stroke-dasharray:none"
       d="m 608.65712,84.384441 c 0,0 41.77954,-11.549684 50.07542,-20.293992 0,0 -77.35311,1.960872 -88.04946,-22.356196 C 561.74,21.403108 579.53043,7.657289 579.53043,7.657289 504.64135,58.697259 476.84675,67.990934 411.01626,76.931343 496.17347,57.164897 542.8591,24.013354 589.00361,-1.5875 c -3.02522,8.5198098 -24.36757,27.072337 -9.37749,42.842049 18.33462,14.123113 58.18195,19.566189 95.94866,16.861745 -16.88898,15.883062 -42.32124,24.222185 -42.32124,24.222185 -0.0144,0.01147 9.44489,1.636899 14.57959,2.070454 10.5058,0.887077 20.3989,0.86246 32.30182,0.600338 18.83542,-0.414798 39.62145,-3.489305 62.70373,-0.555264 13.89423,1.766136 20.72059,3.390253 35.63076,10.004539 0,0 -11.80829,-3.140163 -24.06455,-4.383138 -10.59611,-1.074609 -28.00625,-0.845663 -32.01065,-0.752815 -12.87906,0.298605 -27.88553,1.174963 -42.00579,1.335771 -9.33569,0.10633 -22.9262,-0.305121 -32.27315,-1.31202"
       id="path1-8"
       sodipodi:nodetypes="ccsccccccssscsssc"
       inkscape:label="path1" /><path
       style="display:inline;fill:#000000;stroke:none;stroke-width:0;stroke-dasharray:none"
       d="m 698.42518,176.88259 c 44.42193,-30.37435 52.90827,-40.80792 86.2926,-79.500107 -17.44643,35.030627 -36.12308,55.750187 -86.2926,79.500107 z"
       id="path12"
       sodipodi:nodetypes="ccc"
       inkscape:label="path13" /><path
       style="display:inline;opacity:1;fill:#000000;stroke:none;stroke-width:0;stroke-dasharray:none"
       d="m 169.96961,388.02101 c 45.32246,-9.94167 188.07348,-6.67153 205.84747,-6.71961 1.99189,0.0748 2.90361,0.43335 3.86351,1.63811 0.16633,0.20901 27.73971,37.89744 28.63806,39.45156 1.13567,1.96471 1.15294,3.04603 1.38687,5.20355 l 0.32405,6.35355 c 0.10499,2.07587 0.009,4.99444 2.03388,4.98164 l 44.52423,-0.27899 c 3.44075,0.0384 3.09761,-2.25775 3.26094,-5.52387 l 0.32166,-6.43337 c 0.2138,-2.69115 0.69887,-3.76935 2.38224,-5.78645 l 32.18322,-38.72052 c 1.25274,-1.32168 2.16906,-1.97435 4.05971,-2.02506 22.54006,-0.59624 204.87829,-4.97618 257.81249,7.84383 0,0 -180.84048,-4.34106 -254.65894,-0.83032 -1.22858,0.0585 -2.40645,0.17401 -3.87041,1.90397 l -28.31075,34.56119 c -1.51773,1.62943 -1.95161,3.78071 -2.06028,5.93962 -1.20165,23.86743 -0.87309,50.5162 25.67744,110.6364 -20.04256,-26.08281 -30.76748,-70.35884 -33.16956,-80.55337 -0.46883,-1.98935 -1.082,-3.1572 -3.52627,-3.15432 l -43.72377,-0.0604 c -2.51494,0.0867 -2.84249,1.55346 -3.91288,3.43624 -6.84947,12.04736 -35.01779,69.15954 -55.6999,80.3318 23.55982,-19.72436 44.29006,-68.18929 48.08856,-80.00318 0.5705,-1.77417 0.94859,-3.16488 0.93305,-5.05993 l 0.048,-23.21742 c 0.005,-3.26136 0.44582,-6.01247 -1.47297,-8.73248 l -23.71951,-33.628 c -1.26406,-1.67564 -1.95578,-2.04697 -4.31243,-2.38679 0,0 -45.92899,-5.34194 -202.94604,0.83305 z"
       id="path2"
       sodipodi:nodetypes="ccssccccccccscsccscsccscscsscccc" /><path
       style="display:inline;opacity:1;fill:#000000;stroke:none;stroke-width:1.91749;stroke-dasharray:none"
       d="m 262.452,451.00421 99.98291,62.07886 c -33.43,-9.37308 -94.62847,-53.69214 -99.98291,-62.07886 z"
       id="path3"
       sodipodi:nodetypes="ccc" /><path
       style="display:inline;opacity:1;fill:#000000;stroke:none;stroke-width:1.91749;stroke-dasharray:none"
       d="m 402.78515,511.99149 c 0,0 -19.43248,28.35792 -36.1088,48.76678 -4.67945,5.72678 -9.81108,9.91055 -13.38926,13.90559 5.25876,-4.8907 9.60572,-7.76464 13.73259,-12.19614 13.76916,-14.78578 22.69374,-30.44487 35.76547,-50.47623 z"
       id="path4"
       sodipodi:nodetypes="cscsc" /><path
       style="display:inline;opacity:1;fill:#000000;stroke:none;stroke-width:4.79372e-08;stroke-dasharray:none"
       d="m 783.42923,444.15862 17.77691,-1.24752 C 797.50793,582.0649 676.40865,609.03944 589.2675,593.34626 732.53298,613.21598 798.99772,523.9354 797.4398,444.85726 Z"
       id="path5"
       sodipodi:nodetypes="ccccc"
       inkscape:label="path5" /><path
       style="display:inline;opacity:1;fill:#000000;stroke:none;stroke-width:0;stroke-dasharray:none"
       d="m 394.27955,643.72105 c -0.72242,2.13216 1.6534,0.53013 6.17249,-1.45925 2.0196,-0.8891 4.07093,-1.76554 6.25299,-2.33614 2.476,-0.64748 4.44896,-1.21013 6.43855,-1.43328 -7.52059,-1.85924 -17.00172,-0.26796 -18.86403,5.22867 z"
       id="path6-1"
       sodipodi:nodetypes="ssscs"
       inkscape:label="path6" /><path
       style="display:inline;opacity:1;fill:#000000;stroke:none;stroke-width:0;stroke-dasharray:none"
       d="m 471.47231,670.42446 c 0,0 9.14633,-9.58669 15.42367,-12.02205 9.91433,-3.84638 24.47509,-7.13483 26.09839,-21.99525 l 1.7196,-15.74202 c 0,0 -2.92901,20.06074 -7.82226,24.81928 -7.46958,7.26408 -14.80393,7.60146 -21.44095,11.35993 -6.21563,3.51985 -10.23599,7.65448 -13.97845,13.58011 z"
       id="path7"
       sodipodi:nodetypes="csscssc" /><path
       style="display:inline;opacity:1;fill:#000000;stroke:none;stroke-width:0;stroke-dasharray:none"
       d="m 425.30023,717.98442 c 6.06119,-0.15053 8.47238,0.34801 16.16867,2.49283 6.97089,1.94232 12.12218,2.16389 20.87035,0.32358 4.10458,-0.86345 8.76255,-3.30629 15.96522,-5.04981 12.61776,-3.05432 29.15252,3.65401 46.40735,11.62287 8.69477,4.0155 17.98995,5.28148 27.46259,6.44574 -8.90565,0.83118 -18.50614,-0.48077 -28.37694,-4.07942 -13.20356,-4.97651 -26.3886,-13.17191 -41.06763,-11.16651 -16.27739,2.88425 -20.3392,11.48692 -31.75527,10.41337 -10.92184,-1.02706 -10.09118,-6.93743 -25.67434,-11.00265 z"
       id="path8"
       sodipodi:nodetypes="csssscsssc" /><path
       style="display:inline;opacity:1;fill:#000000;stroke:none;stroke-width:0;stroke-dasharray:none"
       d="m 358.92398,734.58547 c 30.76217,-4.72608 23.67373,-6.284 41.12711,-7.99081 13.79607,-1.34914 31.5237,16.07337 46.41962,20.0745 11.11896,2.98659 29.9353,-4.32777 29.9353,-4.32777 0,0 -13.70464,24.26838 -33.40092,12.63444 -11.48577,-6.78423 -29.71722,-22.78953 -46.39666,-22.5134 -6.19048,0.1026 -37.68445,2.12304 -37.68445,2.12304 z"
       id="path9"
       sodipodi:nodetypes="csscssc" /><path
       style="display:inline;opacity:1;fill:#000000;stroke:none;stroke-width:14.3812"
       d="M 833.95305,574.83447 C 818.39055,645.64582 804.1131,712.26353 759.4732,773.6613 808.2554,717.12739 821.11161,649.44361 833.95305,574.83447 Z"
       id="path10"
       sodipodi:nodetypes="ccc" /><path
       style="display:inline;opacity:1;fill:#000000;stroke:none;stroke-width:14.3812"
       d="m 590.22236,928.94818 c 32.0256,-26.31803 87.66147,-79.06868 87.66147,-79.06868 l 80.54989,-75.03742 c -26.40417,31.83266 -77.74667,76.30363 -77.74667,76.30363 0,0 -59.66475,55.26592 -90.46469,77.80247 z"
       id="path1"
       sodipodi:nodetypes="ccccc"
       inkscape:label="path11" /><path
       style="display:inline;opacity:1;fill:#000000;stroke:none;stroke-width:0;stroke-dasharray:none"
       d="m 350.33454,955.2902 c 18.10681,16.09445 37.74835,33.60675 88.49105,36.8532 l -5.66695,6.2691 c -75.70384,-3.99394 -108.54837,-68.67732 -82.8241,-43.1223 z"
       id="path11"
       sodipodi:nodetypes="cccc"
       inkscape:label="path12" /></g></svg>
