<svg version="1.1" id="Layer_1" xmlns="http://www.w3.org/2000/svg" xmlns:xlink="http://www.w3.org/1999/xlink" x="0px" y="0px"
	 width="100%" viewBox="0 0 508 508" enable-background="new 0 0 508 508" xml:space="preserve">
<path fill="#040304" opacity="1.000000" stroke="none" 
	d="
M483.320709,508.619415 
	C323.886078,509.000000 164.772186,508.988403 5.658315,509.076202 
	C2.191199,509.078094 0.881796,508.758270 0.885107,504.661163 
	C1.019627,338.216461 1.011109,171.771637 0.921610,5.326863 
	C0.919789,1.940511 1.346094,0.880860 5.170511,0.885885 
	C113.134430,1.027762 221.098572,1.000000 329.531342,1.000000 
	C331.473419,4.623202 328.345947,5.656316 326.339722,6.969942 
	C314.935699,14.436982 302.908112,20.794716 290.463501,26.333191 
	C278.174896,31.802237 265.602142,36.513546 252.255600,39.748394 
	C252.018433,39.825989 251.584549,39.928085 251.584549,39.928085 
	C251.584549,39.928085 251.711075,39.905251 251.981293,39.837715 
	C260.758331,37.485710 269.538544,36.441750 277.919708,33.479752 
	C291.193878,28.788500 303.851654,23.007389 315.294586,14.729708 
	C316.373901,13.948921 317.451202,13.152757 318.619934,12.513649 
	C322.248535,10.529344 324.355652,11.224495 324.435913,15.221472 
	C324.618073,24.295265 330.533875,27.864761 337.773926,30.579483 
	C344.098114,32.950794 350.739624,33.508083 357.361450,34.214275 
	C358.353821,34.320110 359.368134,34.249897 360.348602,34.440720 
	C361.781158,34.719528 363.632904,34.722218 363.891083,36.539509 
	C364.098328,37.998619 362.636139,38.780312 361.510742,39.476223 
	C358.214813,41.514328 354.430634,42.352226 349.655273,44.152706 
	C357.260620,45.443680 363.665436,47.289963 370.356476,47.222443 
	C381.003632,47.115002 391.658142,47.765842 402.296783,46.428570 
	C409.441376,45.530499 416.547913,46.958645 421.954254,47.552639 
	C408.025238,42.475048 392.042419,45.733311 376.197693,45.731510 
	C372.366852,45.731075 368.531128,45.869652 364.706940,45.634563 
	C362.941406,45.526028 360.539856,45.701397 360.156891,43.501068 
	C359.832550,41.637634 361.971130,40.946884 363.436310,40.248688 
	C367.296417,38.409199 370.969482,36.300297 374.280914,33.302769 
	C368.060913,32.791042 361.973938,32.492004 355.926605,31.668583 
	C348.131897,30.607241 340.442017,29.214241 333.387970,25.529541 
	C327.745941,22.582424 326.300720,19.171574 328.436157,13.179641 
	C330.052399,8.644544 331.789032,4.050252 336.675781,1.219046 
	C385.354218,1.000000 433.708466,1.000000 482.531342,1.000000 
	C484.382721,2.380524 484.988129,4.121818 484.913818,5.997536 
	C484.584625,14.307564 485.874939,22.602203 485.099701,30.915359 
	C484.914215,32.904411 485.009949,34.909981 485.009796,36.908131 
	C485.005981,90.032578 485.008240,143.157013 485.007690,196.281464 
	C485.006592,297.191132 485.013000,398.100800 484.983429,499.010468 
	C484.982544,502.127075 485.569183,505.380524 483.320709,508.619415 
z"/>
<path fill="#000000" opacity="1.000000" stroke="none" 
	d="
M483.468658,509.000000 
	C483.000366,339.979095 483.000732,170.958176 483.000549,1.468632 
	C490.827209,1.000000 498.656281,1.093462 506.480408,0.937987 
	C508.584625,0.896173 509.456085,1.296442 509.019714,3.481658 
	C508.891785,4.122257 509.000000,4.810012 509.000000,5.476158 
	C509.000000,171.846008 508.982574,338.215851 509.106140,504.585602 
	C509.109070,508.518524 508.033997,509.255249 504.417236,509.089874 
	C497.603485,508.778351 490.765320,509.000000 483.468658,509.000000 
z"/>
<path fill="#E7E5E6" opacity="1.000000" stroke="none" 
	d="
M336.562500,1.000000 
	C333.867249,4.890374 331.083038,8.995687 329.422028,13.752213 
	C327.349884,19.686094 328.173889,21.821869 333.865936,24.429113 
	C343.546448,28.863247 353.842560,30.658022 364.403229,31.037418 
	C369.160706,31.208332 373.929382,31.066374 379.875671,31.066374 
	C373.599609,36.909546 367.141266,40.256546 359.082794,43.467587 
	C383.383026,46.916054 407.351685,38.534515 430.827637,49.499680 
	C427.552673,50.484436 425.601227,49.368935 423.650940,49.062366 
	C414.539551,47.630131 405.374756,47.573303 396.239807,48.300175 
	C379.023560,49.670082 361.997925,49.036640 344.702515,44.220222 
	C351.487366,41.780693 358.396454,40.398647 365.242523,35.967205 
	C357.172668,35.103161 350.184448,35.384064 343.435242,33.704544 
	C341.017487,33.102890 338.595215,32.460396 336.255646,31.613659 
	C325.300690,27.648853 323.089539,24.148466 323.363190,10.676344 
	C301.892883,26.997822 278.351868,37.439484 251.487854,40.766003 
	C250.700134,40.471855 250.522842,40.089775 250.810516,39.352180 
	C277.604767,31.711988 302.588196,20.761326 325.776001,5.806340 
	C327.637115,4.606005 330.048126,3.893119 330.410614,1.196375 
	C332.041656,1.000000 334.083344,1.000000 336.562500,1.000000 
z"/>
<path fill="#E5E2E4" opacity="1.000000" stroke="none" 
	d="
M150.290802,195.835449 
	C154.419815,193.469269 158.953888,194.804169 163.618729,194.147705 
	C166.458832,193.827713 168.865479,194.056931 171.625244,194.032776 
	C190.134964,192.945953 208.280441,194.048447 226.427917,194.117310 
	C228.401184,194.124786 229.405869,195.264603 230.413101,196.650970 
	C234.522690,202.307480 238.674667,207.933212 242.781509,213.591690 
	C243.961365,215.217316 245.149155,216.948730 244.834076,219.067383 
	C244.338547,222.399551 245.684616,223.288193 248.906219,223.146378 
	C254.726196,222.890167 260.568756,222.947403 266.394714,223.118118 
	C268.971802,223.193649 270.064972,222.476944 269.826508,219.790756 
	C269.667084,217.995270 269.655579,216.158234 270.972595,214.576172 
	C276.085052,208.434921 281.135651,202.242203 286.219788,196.077332 
	C288.209961,193.664124 291.056335,194.123138 293.653107,194.055862 
	C320.799530,193.352661 347.947845,192.981461 375.560089,194.004837 
	C376.455872,194.054443 376.889191,194.048630 377.645874,194.108063 
	C387.963165,194.198425 397.904907,194.811630 407.736389,197.036331 
	C387.437836,196.862961 367.169952,196.683914 346.430908,196.875229 
	C345.181000,196.972656 344.399384,197.003006 343.322693,196.899109 
	C326.734009,197.252380 310.438477,197.744537 294.139404,197.936188 
	C291.136383,197.971512 289.228271,198.865448 287.467834,201.165939 
	C283.729553,206.051117 279.843384,210.828384 275.875000,215.529327 
	C274.484070,217.177032 274.073639,218.945068 273.865723,220.980133 
	C272.108948,238.175491 277.688538,253.752731 284.514771,269.453339 
	C284.423218,269.967072 284.178467,270.126129 283.529083,270.118042 
	C276.854431,259.522369 272.824768,248.100143 268.696472,236.752075 
	C267.723389,234.077209 266.605652,232.886581 263.890594,233.158722 
	C263.727173,233.175095 263.558411,233.132767 263.393829,233.143478 
	C257.041016,233.557190 249.418594,230.508163 244.657410,234.646591 
	C240.108261,238.600754 238.279755,245.684952 235.050369,251.666351 
	C234.349350,252.349716 233.784241,252.499725 232.789276,252.109360 
	C237.358978,242.814102 240.998627,233.543167 240.268021,222.887329 
	C239.991653,218.856506 238.468719,215.776947 236.704849,212.333618 
	C230.948059,201.095413 222.501358,197.267792 209.659897,197.410553 
	C190.386444,197.624771 171.066315,196.769485 151.754745,197.104446 
	C147.111252,197.184998 142.562042,198.574646 137.462402,197.810455 
	C136.862564,197.605713 136.686157,197.555511 136.439331,197.239365 
	C140.109634,194.363861 144.273727,196.542191 148.657257,195.989075 
	C149.343826,195.679977 149.665253,195.536514 150.290802,195.835449 
z"/>
<path fill="#DAD7D9" opacity="1.000000" stroke="none" 
	d="
M439.050781,248.813263 
	C431.713837,272.505249 416.953430,289.050659 394.035217,297.778717 
	C387.107758,300.416962 379.968964,303.371063 372.158051,301.956421 
	C384.257599,298.867706 396.027069,295.224365 406.519653,288.234100 
	C424.719452,276.109222 435.266785,259.120148 438.906250,237.689072 
	C439.044922,236.872589 438.837372,235.919815 439.192871,235.240921 
	C439.506409,234.642258 439.853058,233.589111 440.936218,233.824799 
	C442.085724,234.074890 441.924835,235.100906 441.767792,235.819290 
	C441.089417,238.922546 440.444855,242.049881 439.459900,245.061157 
	C439.070374,246.251999 439.337738,247.346313 439.050781,248.813263 
z"/>
<path fill="#DDDCDC" opacity="1.000000" stroke="none" 
	d="
M218.887939,372.416260 
	C222.866730,371.389679 226.697754,370.923645 230.267700,369.697510 
	C238.650009,366.818512 246.157043,368.131317 253.227829,373.316406 
	C257.860931,376.713928 262.933716,379.147064 268.917908,378.177673 
	C271.681458,377.730042 274.378418,376.871216 277.496826,376.133331 
	C278.566345,376.693146 278.708069,377.455780 278.226257,378.656555 
	C269.592316,387.262665 265.544525,388.179718 256.430450,381.021942 
	C245.288818,372.271820 233.067963,371.646851 219.640121,373.648438 
	C218.774414,373.473389 218.568878,373.129517 218.887939,372.416260 
z"/>
<path fill="#E2E0E2" opacity="1.000000" stroke="none" 
	d="
M226.302750,492.865570 
	C236.802689,499.115753 247.956131,501.803864 260.168030,502.319794 
	C258.059509,505.869354 255.809280,507.294708 251.854813,506.682434 
	C237.828598,504.510834 225.266998,499.437805 214.992676,489.367889 
	C212.608948,487.031586 210.600754,484.480164 209.961533,480.843964 
	C215.340179,484.782288 220.226318,489.344421 226.302750,492.865570 
z"/>
<path fill="#D2CCCF" opacity="1.000000" stroke="none" 
	d="
M452.728210,320.803406 
	C447.751251,346.688080 440.137115,371.312775 421.694397,391.059265 
	C437.255981,370.405029 444.857117,346.382172 451.029633,321.345978 
	C451.528259,320.654999 451.949585,320.522186 452.728210,320.803406 
z"/>
<path fill="#E5E4E4" opacity="1.000000" stroke="none" 
	d="
M419.546326,72.543152 
	C412.329987,79.553947 404.759003,85.327576 395.355072,88.132339 
	C409.113281,78.439095 420.142120,65.929672 431.799866,53.994591 
	C429.742035,61.452168 425.034332,67.048721 419.546326,72.543152 
z"/>
<path fill="#D3D1D1" opacity="1.000000" stroke="none" 
	d="
M178.853271,235.213074 
	C190.961121,242.393753 202.839264,249.245819 213.645203,257.799347 
	C199.110046,251.382065 185.525528,243.388916 173.015686,233.307388 
	C175.496780,232.299179 176.832214,234.221573 178.853271,235.213074 
z"/>
<path fill="#CECCD0" opacity="1.000000" stroke="none" 
	d="
M409.119995,404.724304 
	C396.732788,416.840851 384.406952,428.548279 371.798492,440.442444 
	C371.264771,440.475830 371.013672,440.322449 370.493530,439.819214 
	C382.537415,427.695068 394.850342,415.920807 407.465393,404.017456 
	C408.352600,403.653778 408.823883,403.796021 409.119995,404.724304 
z"/>
<path fill="#DBDADB" opacity="1.000000" stroke="none" 
	d="
M290.152588,365.336548 
	C284.298950,364.715057 278.710205,364.404388 273.633453,367.874756 
	C268.180511,371.602203 262.861847,371.424500 257.446625,367.684692 
	C255.566574,366.386292 253.343338,365.584869 251.190979,364.513733 
	C252.896561,363.437805 254.750061,363.656952 256.378632,364.210846 
	C262.945404,366.444092 269.384094,366.161163 275.904358,363.973236 
	C280.261017,362.511353 284.744019,362.643433 289.567017,363.971436 
	C290.078125,364.375549 290.205566,364.648743 290.152588,365.336548 
z"/>
<path fill="#C3BFC1" opacity="1.000000" stroke="none" 
	d="
M232.191315,252.038422 
	C232.964767,251.874680 233.501038,251.920090 234.441330,251.952438 
	C232.537659,256.174133 230.689529,260.723663 226.371490,263.830750 
	C225.854980,263.723267 225.678833,263.599609 225.708557,263.227295 
	C227.927658,259.401611 229.940887,255.824585 232.191315,252.038422 
z"/>
<path fill="#A9A8A9" opacity="1.000000" stroke="none" 
	d="
M290.253448,365.906311 
	C289.961517,365.476440 289.950867,365.201721 289.945496,364.514709 
	C295.682281,365.456757 300.787476,368.249573 305.890198,371.123901 
	C300.310699,370.807617 295.818237,367.215485 290.253448,365.906311 
z"/>
<path fill="#626162" opacity="1.000000" stroke="none" 
	d="
M352.697113,303.269562 
	C346.988403,304.543304 341.103577,304.187439 334.341980,301.051697 
	C341.171936,301.700409 346.768707,302.231964 352.697113,303.269562 
z"/>
<path fill="#C8C6CA" opacity="1.000000" stroke="none" 
	d="
M409.369019,404.998535 
	C408.805756,404.818542 408.552887,404.503693 408.033813,404.038635 
	C410.739075,400.661713 413.710541,397.434967 416.682007,394.208221 
	C417.125214,394.618744 417.568420,395.029266 418.011627,395.439819 
	C416.462982,399.548126 412.297424,401.596924 409.369019,404.998535 
z"/>
<path fill="#DAD7D9" opacity="1.000000" stroke="none" 
	d="
M244.224731,323.750549 
	C245.292343,324.142120 246.380417,324.503021 244.841461,325.164062 
	C242.596130,326.128448 240.285950,326.941986 238.002548,327.817535 
	C237.208084,328.122192 236.282135,328.341492 235.857849,327.449249 
	C235.448074,326.587494 236.146103,325.929657 236.855865,325.457214 
	C238.985016,324.040009 241.355545,323.562531 244.224731,323.750549 
z"/>
<path fill="#C3BFC1" opacity="1.000000" stroke="none" 
	d="
M360.051819,450.776672 
	C357.335327,453.637299 354.531097,456.213440 351.427490,458.931824 
	C350.626465,459.296051 350.215210,459.184570 349.948853,458.373260 
	C352.788879,455.408539 355.574432,452.810089 358.662384,450.064911 
	C359.368652,449.986206 359.698456,450.183350 360.051819,450.776672 
z"/>
<path fill="#CECCD0" opacity="1.000000" stroke="none" 
	d="
M453.169342,320.662292 
	C452.608521,321.003021 452.198700,321.001526 451.481506,321.000488 
	C452.090271,316.927673 453.006439,312.854431 454.036041,308.420654 
	C454.773560,307.934418 455.220703,308.160126 455.526154,309.153900 
	C454.813934,313.154663 454.067139,316.737366 453.169342,320.662292 
z"/>
<path fill="#A9A8A9" opacity="1.000000" stroke="none" 
	d="
M455.741241,309.237305 
	C455.278748,309.203094 454.996765,308.834259 454.432129,308.262756 
	C454.908600,304.718475 455.667755,301.376831 456.259552,298.771820 
	C456.661011,298.145905 456.531128,298.271698 456.555603,298.321136 
	C458.361053,301.971558 456.079163,305.374237 455.741241,309.237305 
z"/>
<path fill="#626162" opacity="1.000000" stroke="none" 
	d="
M294.779846,325.354370 
	C295.570709,322.072754 296.323486,319.095581 297.362061,314.988007 
	C298.791412,320.213989 297.717438,323.764221 295.355865,327.010010 
	C294.959900,327.554230 293.980164,328.199799 293.528656,326.962280 
	C293.436249,326.709045 294.312195,326.102478 294.779846,325.354370 
z"/>
<path fill="#626162" opacity="1.000000" stroke="none" 
	d="
M135.986160,197.143250 
	C136.675934,196.873734 136.902252,196.967926 137.043427,197.455963 
	C132.958313,199.161438 128.772949,199.154297 124.505951,198.228683 
	C128.192337,197.767563 131.700653,195.734253 135.986160,197.143250 
z"/>
<path fill="#717071" opacity="1.000000" stroke="none" 
	d="
M233.092636,270.551086 
	C235.043701,267.761871 236.819519,265.235260 238.595337,262.708679 
	C238.358948,266.693390 235.921890,269.511230 233.576233,272.216064 
	C232.898849,272.997162 232.621872,271.601685 233.092636,270.551086 
z"/>
<path fill="#A9A8A9" opacity="1.000000" stroke="none" 
	d="
M349.705994,458.159241 
	C350.213654,458.289520 350.424011,458.572083 350.881226,458.964386 
	C348.716797,461.704620 346.082672,464.017334 342.278717,464.765381 
	C344.655396,462.614075 347.032043,460.462799 349.705994,458.159241 
z"/>
<path fill="#A9A8A9" opacity="1.000000" stroke="none" 
	d="
M409.722046,196.638092 
	C412.424255,195.623169 414.388672,196.635056 415.841797,198.056763 
	C414.293152,198.056763 412.472748,198.056763 410.299011,197.958801 
	C409.808075,197.590973 409.670441,197.321106 409.722046,196.638092 
z"/>
<path fill="#D3D1D1" opacity="1.000000" stroke="none" 
	d="
M171.637329,193.936798 
	C169.664459,195.648590 167.148575,194.946426 164.368408,194.438293 
	C166.475449,194.083710 168.882294,193.955582 171.637329,193.936798 
z"/>
<path fill="#717071" opacity="1.000000" stroke="none" 
	d="
M440.781006,227.113693 
	C437.873566,227.029739 435.197052,227.029739 432.520569,227.029739 
	C435.005035,224.794189 437.661682,225.824524 440.631439,225.938385 
	C441.018677,226.023636 441.298676,226.426041 441.352783,226.665527 
	C441.406891,226.905014 441.011963,227.197647 440.781006,227.113693 
z"/>
<path fill="#C3BFC1" opacity="1.000000" stroke="none" 
	d="
M311.039185,371.733704 
	C311.906097,371.908722 312.434326,371.900360 312.854767,372.109100 
	C313.115692,372.238617 313.677429,372.799713 312.765533,372.924011 
	C310.325867,373.256439 308.004517,372.969208 305.134460,371.376495 
	C307.562347,370.411133 309.102631,371.184967 311.039185,371.733704 
z"/>
<path fill="#C8C6CA" opacity="1.000000" stroke="none" 
	d="
M360.436768,450.923645 
	C359.841217,450.841980 359.542938,450.622742 359.104706,450.160828 
	C359.917969,448.961212 360.871185,448.004272 362.092041,446.936157 
	C362.718719,446.758972 363.077820,446.692993 363.947144,446.825958 
	C363.216248,448.278625 361.975128,449.532349 360.436768,450.923645 
z"/>
<path fill="#C3BFC1" opacity="1.000000" stroke="none" 
	d="
M283.188477,270.295654 
	C283.380737,269.917084 283.637085,269.883209 284.280670,269.828674 
	C285.750488,271.317841 286.907227,272.796509 287.183807,275.084930 
	C284.622711,274.248688 284.472046,271.994080 283.188477,270.295654 
z"/>
<path fill="#E7E5E6" opacity="1.000000" stroke="none" 
	d="
M353.469299,303.922180 
	C353.028748,303.775574 353.139801,303.504456 353.087341,303.367676 
	C357.136230,302.458984 361.222351,302.799896 366.802826,303.314270 
	C361.567413,304.656403 357.720490,304.053558 353.469299,303.922180 
z"/>
<path fill="#717071" opacity="1.000000" stroke="none" 
	d="
M218.779877,372.107452 
	C219.235947,372.528107 219.317535,372.855133 219.318542,373.422607 
	C217.785645,374.298370 216.376755,374.008759 214.741364,373.580750 
	C215.436356,371.360138 217.211578,372.374023 218.779877,372.107452 
z"/>
<path fill="#A9A8A9" opacity="1.000000" stroke="none" 
	d="
M250.642258,39.063797 
	C251.053040,39.468414 251.066589,39.838291 251.081161,40.486862 
	C249.520050,40.905361 247.957916,41.045170 245.924011,41.227203 
	C247.117035,39.074120 248.902786,39.523701 250.642258,39.063797 
z"/>
<path fill="#717071" opacity="1.000000" stroke="none" 
	d="
M220.847244,287.135681 
	C221.768585,285.650696 222.744064,284.499237 224.169296,282.816864 
	C224.462601,285.409119 222.944183,286.225342 221.785950,287.538452 
	C221.318939,287.638306 221.110168,287.553772 220.847244,287.135681 
z"/>
<path fill="#373335" opacity="1.000000" stroke="none" 
	d="
M278.326385,378.984436 
	C278.030823,378.255768 278.073029,377.515686 278.001648,376.421722 
	C278.994324,376.181519 281.003876,376.137085 281.056061,376.435211 
	C281.336273,378.036194 279.805389,378.409485 278.326385,378.984436 
z"/>
<path fill="#DAD7D9" opacity="1.000000" stroke="none" 
	d="
M441.759521,226.815338 
	C442.580475,229.043884 442.405487,230.991196 441.550781,233.275757 
	C439.007843,231.422623 440.604462,229.538071 440.589447,227.441833 
	C440.550049,227.029739 440.816040,227.259140 440.954254,227.150787 
	C441.236664,226.904938 441.380890,226.767471 441.759521,226.815338 
z"/>
<path fill="#373335" opacity="1.000000" stroke="none" 
	d="
M220.737564,269.986511 
	C221.252808,268.491821 221.766800,267.231537 223.668976,267.032135 
	C224.029236,268.480286 223.185867,269.428131 221.688049,270.272156 
	C221.180145,270.345093 220.985748,270.311340 220.737564,269.986511 
z"/>
<path fill="#373335" opacity="1.000000" stroke="none" 
	d="
M225.606903,263.125549 
	C225.914413,262.978638 226.082825,263.397980 226.056976,263.622437 
	C225.893097,264.992157 226.023453,266.260315 224.315247,266.909973 
	C223.971512,266.975861 224.000305,267.001221 224.013763,267.015320 
	C224.034439,265.635956 224.114258,264.267059 225.606903,263.125549 
z"/>
<path fill="#C8C6CA" opacity="1.000000" stroke="none" 
	d="
M343.258484,196.996002 
	C343.762390,196.029251 344.617828,195.950134 345.763885,196.653809 
	C345.205505,197.595154 344.332245,197.236465 343.258484,196.996002 
z"/>
<path fill="#D3D1D1" opacity="1.000000" stroke="none" 
	d="
M150.371811,195.942291 
	C150.148224,196.090134 149.802658,196.129044 149.290344,196.109039 
	C149.507339,196.021133 149.733261,195.172165 150.371811,195.942291 
z"/>
<path fill="#C3BFC1" opacity="1.000000" stroke="none" 
	d="
M377.799927,194.023254 
	C377.519592,194.768478 376.979340,194.913147 376.173950,194.271515 
	C376.558838,194.022339 377.094879,193.961197 377.799927,194.023254 
z"/>
<path fill="#717071" opacity="1.000000" stroke="none" 
	d="
M217.881470,290.124573 
	C218.061996,290.900238 217.768173,291.321289 217.017944,290.973816 
	C217.191559,290.646454 217.365173,290.319061 217.881470,290.124573 
z"/>
<path fill="#E5E4E4" opacity="1.000000" stroke="none" 
	d="
M432.358459,52.177402 
	C432.518982,52.176613 432.600922,52.075619 432.682861,51.974625 
	C432.548523,52.008816 432.414185,52.043007 432.358459,52.177402 
z"/>
<path fill="#E5E2E4" opacity="1.000000" stroke="none" 
	d="
M409.443604,196.148972 
	C409.909363,196.497787 409.907349,196.770599 409.925537,197.452118 
	C409.031982,197.939560 407.904602,198.269531 407.658142,196.994095 
	C407.531219,196.337418 408.259308,196.001694 409.443604,196.148972 
z"/>
<path fill="#373335" opacity="1.000000" stroke="none" 
	d="
M284.219849,374.994263 
	C284.253174,374.799622 284.471466,374.564148 284.726746,374.379883 
	C284.783203,374.339142 284.970428,374.479584 285.097443,374.536591 
	C284.871002,374.681671 284.644562,374.826752 284.219849,374.994263 
z"/>
<path fill="#373335" opacity="1.000000" stroke="none" 
	d="
M219.794312,271.040161 
	C219.890366,270.480164 220.075211,270.221375 220.499908,269.848999 
	C220.683792,269.695465 221.030350,270.032715 221.202454,270.205811 
	C221.235352,270.675842 221.038559,270.927856 220.567749,271.243713 
	C220.176605,271.335480 220.001877,271.318451 219.794312,271.040161 
z"/>
<path fill="#373335" opacity="1.000000" stroke="none" 
	d="
M283.990601,374.987762 
	C283.893127,375.017761 283.804749,375.058746 283.868958,375.058197 
	C284.021576,375.016693 283.999664,374.998749 283.990601,374.987762 
z"/>
<path fill="#373335" opacity="1.000000" stroke="none" 
	d="
M219.273712,271.969543 
	C218.955826,271.557281 219.132843,271.292725 219.572678,270.928284 
	C219.761475,270.778900 220.056717,271.061890 220.204010,271.207184 
	C220.186325,271.640381 219.967422,271.878815 219.273712,271.969543 
z"/>
<path fill="#373335" opacity="1.000000" stroke="none" 
	d="
M218.242950,272.946533 
	C218.044815,272.645020 218.213745,272.375763 218.659485,272.015137 
	C218.852798,271.871338 219.049026,272.060364 219.146729,272.160217 
	C219.056702,272.537781 218.817383,272.759857 218.242950,272.946533 
z"/>
<path fill="#D2CCCF" opacity="1.000000" stroke="none" 
	d="
M420.492249,392.500305 
	C420.509735,392.506226 420.474762,392.494415 420.492249,392.500305 
z"/>
<path fill="#373335" opacity="1.000000" stroke="none" 
	d="
M218.029633,273.035156 
	C217.879257,273.338409 217.706970,273.617401 217.244659,273.929688 
	C217.041504,273.629272 217.226776,273.364380 217.734924,273.067535 
	C217.959412,272.966705 218.007690,273.010864 218.029633,273.035156 
z"/>
<path fill="#C8C6CA" opacity="1.000000" stroke="none" 
	d="
M441.994812,226.715958 
	C441.993927,227.000671 441.540527,226.999237 441.316498,227.020828 
	C441.048126,226.874908 441.003754,226.707397 440.989044,226.281769 
	C441.344330,226.159500 441.670013,226.295380 441.994812,226.715958 
z"/>
<path fill="#CECCD0" opacity="1.000000" stroke="none" 
	d="
M369.415283,440.813171 
	C369.330017,440.231079 369.550293,439.974426 369.997528,439.593536 
	C370.445312,439.656433 370.666107,439.843567 371.201355,440.329926 
	C371.381409,440.922577 371.183960,441.164551 370.713135,441.462463 
	C370.242126,441.426117 369.981506,441.282379 369.415283,440.813171 
z"/>
<path fill="#CECCD0" opacity="1.000000" stroke="none" 
	d="
M368.349548,441.789978 
	C368.244202,441.222168 368.454163,440.971497 368.886902,440.604248 
	C369.348053,440.660126 369.586395,440.832550 370.163757,441.287415 
	C370.371979,441.869385 370.171356,442.110931 369.685486,442.395508 
	C369.201630,442.366730 368.933197,442.236969 368.349548,441.789978 
z"/>
<path fill="#CECCD0" opacity="1.000000" stroke="none" 
	d="
M366.980042,443.161133 
	C366.792572,442.686157 367.082397,442.274780 367.703247,441.668121 
	C368.279083,441.635651 368.523956,441.798492 369.119415,442.228943 
	C369.356598,442.818054 369.153717,443.066498 368.631836,443.326111 
	C368.087341,443.348450 367.772339,443.286591 366.980042,443.161133 
z"/>
<path fill="#CECCD0" opacity="1.000000" stroke="none" 
	d="
M367.942078,443.243164 
	C367.859833,444.214020 367.302338,444.925751 366.468445,443.414246 
	C366.829071,443.090332 367.155426,443.083191 367.942078,443.243164 
z"/>
<path fill="#CECCD0" opacity="1.000000" stroke="none" 
	d="
M364.536438,446.542542 
	C364.107239,446.997711 363.757080,446.970490 362.883301,446.884125 
	C362.961273,446.126648 363.456390,445.114075 364.536438,446.542542 
z"/>
<path fill="#373335" opacity="1.000000" stroke="none" 
	d="
M217.035477,274.042480 
	C216.929855,274.116577 216.875763,274.974701 216.806427,274.035828 
	C216.954636,273.963013 217.010040,274.014496 217.035477,274.042480 
z"/>
<path fill="#717071" opacity="1.000000" stroke="none" 
	d="
M221.356842,287.482483 
	C221.348587,287.963348 221.144623,288.180573 220.723145,288.491516 
	C220.325546,288.566376 220.120682,288.524261 219.881668,288.170258 
	C219.905563,287.514618 220.074570,287.238892 220.573822,286.916687 
	C220.924042,286.948822 221.054993,287.095490 221.356842,287.482483 
z"/>
<path fill="#717071" opacity="1.000000" stroke="none" 
	d="
M218.920135,289.150391 
	C218.938263,288.547943 219.107086,288.270630 219.621155,287.962036 
	C219.966675,287.977051 220.085815,288.095764 220.367676,288.411499 
	C220.348175,288.859009 220.130173,289.073090 219.667816,289.351196 
	C219.290131,289.435486 219.121063,289.419312 218.920135,289.150391 
z"/>
<path fill="#717071" opacity="1.000000" stroke="none" 
	d="
M218.014206,290.016785 
	C218.098358,289.649689 218.253983,289.361542 218.648926,288.985504 
	C218.888275,288.897614 219.175323,289.167542 219.317261,289.309601 
	C219.211380,289.680176 218.963547,289.908691 218.469940,290.197327 
	C218.224136,290.257477 218.085663,290.095703 218.014206,290.016785 
z"/>
<path fill="#A9A8A9" opacity="1.000000" stroke="none" 
	d="
M265.915100,228.287476 
	C262.850891,229.489838 259.460541,228.775269 256.033691,228.044678 
	C259.227814,228.044678 262.421936,228.044678 265.915100,228.287476 
z"/>
</svg>